<?xml version="1.0" encoding="iso-8859-1"?>
<!-- Generator: Adobe Illustrator 19.0.0, SVG Export Plug-In . SVG Version: 6.00 Build 0)  -->
<svg version="1.1" id="Capa_1" xmlns="http://www.w3.org/2000/svg" xmlns:xlink="http://www.w3.org/1999/xlink" x="0px" y="0px"
	 viewBox="0 0 512 512" style="enable-background:new 0 0 512 512;" xml:space="preserve">
<path style="fill:#5E3369;" d="M440.018,430.793c40.43-44.286,65.093-103.213,65.093-167.903
	C505.111,125.309,393.58,13.778,256,13.778S6.889,125.309,6.889,262.889c0,64.69,24.663,123.618,65.093,167.903h368.036V430.793z"/>
<path style="fill:#D04B33;" d="M69.303,427.793C114.946,479.429,181.664,512,256,512s141.054-32.571,186.697-84.207H69.303z"/>
<path style="fill:#AA332D;" d="M246.419,427.792H69.303c43.062,48.716,104.885,80.448,174.163,83.883
	C189.725,508.493,192.158,427.792,246.419,427.792z"/>
<path style="fill:#E2E9F2;" d="M261.937,99.765v-70.66c0-0.674,0.548-1.222,1.222-1.222h46.592c7.699,0,13.941-6.242,13.941-13.942
	S317.451,0,309.751,0h-46.592c-16.049,0-29.105,13.056-29.105,29.105v70.66H261.937z"/>
<path style="fill:#C1CEDB;" d="M266.362,13.941c0-6.298,3.866-11.688,9.352-13.941h-12.555c-16.049,0-29.105,13.057-29.105,29.105
	v70.66h27.883v-70.66c0-0.674,0.548-1.222,1.222-1.222h12.555C270.228,25.629,266.362,20.24,266.362,13.941z"/>
<path style="fill:#8AC9FF;" d="M279.297,98.732H122.319c-10.222,0-18.585,8.363-18.585,18.584v9.299h194.148v-9.299
	C297.882,107.095,289.519,98.732,279.297,98.732z"/>
<path style="fill:#7AACF4;" d="M160.986,98.732h-38.667c-10.222,0-18.585,8.363-18.585,18.585v9.298h38.667v-9.298
	C142.401,107.095,150.764,98.732,160.986,98.732z"/>
<path style="fill:#E2E9F2;" d="M83.718,152.433l31.014,311.855c0.429,4.596,4.286,8.11,8.902,8.11h154.348
	c4.616,0,8.473-3.514,8.902-8.11l31.014-311.855L83.718,152.433L83.718,152.433z"/>
<path style="fill:#C1CEDB;" d="M145.45,464.288l-31.014-311.855H83.718l31.014,311.855c0.429,4.596,4.286,8.11,8.902,8.11h30.718
	C149.736,472.398,145.878,468.884,145.45,464.288z"/>
<path style="fill:#F76D6D;" d="M96.824,284.216l14.822,149.038c82.038-26.392,144.38-72.839,190.336-120.779l12.905-129.76
	C273.508,224.875,200.095,280.084,96.824,284.216z"/>
<path style="fill:#E24F58;" d="M111.646,433.254c10.186-3.277,20.067-6.864,29.651-10.724l-14.031-141.082
	c-9.842,1.399-19.986,2.349-30.442,2.768L111.646,433.254z"/>
<path style="fill:#B3C2CE;" d="M115.514,244.756c-3.933,0-7.3-2.983-7.698-6.98l-4.176-41.987c-0.423-4.257,2.684-8.051,6.941-8.473
	c4.255-0.417,8.05,2.684,8.474,6.941l4.176,41.987c0.423,4.257-2.684,8.051-6.941,8.473
	C116.03,244.743,115.77,244.756,115.514,244.756z"/>
<path style="fill:#7AACF4;" d="M319.387,153.465H82.23c-7.7,0-13.941-6.242-13.941-13.941c0-7.7,6.242-13.941,13.941-13.941h237.157
	c7.7,0,13.941,6.242,13.941,13.941C333.328,147.224,327.086,153.465,319.387,153.465z"/>
<path style="fill:#6393E4;" d="M106.955,139.524c0-7.7,6.242-13.941,13.942-13.941H82.23c-7.7,0-13.941,6.242-13.941,13.941
	c0,7.7,6.242,13.942,13.941,13.942h38.667C113.197,153.466,106.955,147.224,106.955,139.524z"/>
<path style="fill:#FFBD4A;" d="M271.835,407.913c-13.727,0-20.461,16.911-10.343,26.188c0.139,0.127,0.278,0.254,0.417,0.38
	c9.442,8.584,21.837,13.191,34.599,13.191c13.718,0,80.589,0,126.554,0c13.194-11.936,25.101-25.268,35.494-39.759
	C400.474,407.913,289.256,407.913,271.835,407.913z"/>
<path style="fill:#FC9F4A;" d="M341.41,441.707c-0.139-0.161-0.278-0.323-0.417-0.484c-10.118-11.8-3.384-33.311,10.343-33.311
	c-37.828,0-70.683,0-79.502,0c-13.727,0-20.461,16.911-10.343,26.188c0.139,0.127,0.278,0.254,0.417,0.38
	c9.442,8.584,21.837,13.191,34.599,13.191c6.837,0,26.877,0,50.951,0C345.338,445.89,343.312,443.906,341.41,441.707z"/>
<path style="fill:#ED6658;" d="M475.889,380.03H268.166c-7.7,0-13.941,6.242-13.941,13.942c0,7.7,6.242,13.941,13.941,13.941
	h190.389C464.922,399.037,470.714,389.724,475.889,380.03z"/>
<path style="fill:#E24F58;" d="M331.865,393.972c0-7.7,6.242-13.942,13.941-13.942h-77.641c-7.7,0-13.941,6.242-13.941,13.942
	c0,7.7,6.242,13.941,13.941,13.941h77.641C338.107,407.913,331.865,401.671,331.865,393.972z"/>
<path style="fill:#AA332D;" d="M495.078,333.047c-0.028-0.001-0.054-0.004-0.082-0.004h-226.83c-7.7,0-13.941,6.242-13.941,13.941
	c0,7.7,6.242,13.942,13.941,13.942h216.9C488.936,351.896,492.282,342.589,495.078,333.047z"/>
<path style="fill:#9E2A26;" d="M350.558,346.984c0-7.7,6.242-13.941,13.941-13.941h-96.333c-7.7,0-13.941,6.242-13.941,13.941
	c0,7.7,6.242,13.942,13.941,13.942H364.5C356.8,360.926,350.558,354.684,350.558,346.984z"/>
<path style="fill:#FFD391;" d="M344.448,413.743l33.712-33.713h-77.502l33.712,33.713
	C337.153,416.526,341.665,416.526,344.448,413.743z"/>
<path style="fill:#FFBD4A;" d="M326.306,380.03h-25.648l33.712,33.712c2.783,2.783,7.294,2.783,10.077,0l7.785-7.785L326.306,380.03
	z"/>
<path style="fill:#F76D6D;" d="M422.184,174.65l-34.234-15.482v35.856l34.234-15.482C424.288,178.59,424.288,175.602,422.184,174.65
	z"/>
<path style="fill:#C9CF4F;" d="M472.636,358.91c-2.52,2.382-5.289-0.089-5.393-0.131c-6.978-6.453-17.693-6.14-24.293,0.328
	c-1.253,1.223-3.358,1.449-4.962-0.107c-6.865-6.567-17.579-6.488-24.332-0.072c-1.418,1.344-3.673,1.469-5.277-0.055
	c-6.688-6.285-17.194-6.425-24.04-0.097c-1.545,1.429-3.993,1.429-5.539,0c-6.938-6.407-17.574-6.128-24.16,0.206
	c-1.38,1.319-3.596,1.454-5.184-0.072c-6.886-6.499-17.649-6.386-24.389,0.161c-1.376,1.335-3.54,1.335-4.915,0
	c-6.988-6.789-18.243-6.564-24.904,0.338c-1.162,1.19-3.095,1.166-4.259-0.022c-10.628-10.885-29.464-3.962-30.211,11.488
	c-0.166,3.423,0.595,6.515,1.996,9.155h213.114c4.425-8.288,8.406-16.849,11.888-25.663
	C482.692,353.434,477.141,354.692,472.636,358.91z"/>
<path style="fill:#B1B94D;" d="M348.528,370.875c0.215-4.455,1.94-8.194,4.532-11.009c-1.19,0.33-2.537,0.069-3.604-0.956
	c-6.886-6.499-17.649-6.386-24.389,0.161c-1.376,1.335-3.54,1.335-4.915,0c-6.988-6.789-18.243-6.564-24.904,0.338
	c-1.162,1.19-3.095,1.166-4.259-0.022c-10.628-10.885-29.464-3.962-30.211,11.488c-0.166,3.423,0.595,6.515,1.996,9.155h87.75
	C349.123,377.39,348.362,374.298,348.528,370.875z"/>
<path style="fill:#FFBD4A;" d="M381.581,228.098c-56.215,0-104.762,32.808-127.552,80.319c-5.476,11.416,3.013,24.626,15.674,24.626
	h223.755c0.558,0,1.105-0.035,1.645-0.085c3.435-11.74,6.027-23.838,7.71-36.227C478.086,255.615,433.056,228.098,381.581,228.098z"
	/>
<path style="fill:#FC9F4A;" d="M360.686,229.635c-47.171,6.988-86.745,37.271-106.657,78.782
	c-5.476,11.416,3.013,24.626,15.674,24.626h93.284C331.457,308.286,330.201,255.445,360.686,229.635z"/>
<g>
	<path style="fill:#F8804A;" d="M318.332,303.091c-4.272,0-7.745-3.452-7.745-7.745c0-3.514,2.386-6.786,6.227-7.591
		c4.132-0.807,8.209,1.774,9.108,6.082C326.89,298.483,323.294,303.091,318.332,303.091z"/>
	<path style="fill:#F8804A;" d="M360.497,303.091c-4.265,0-7.745-3.449-7.745-7.745c0-5.044,4.685-8.536,9.264-7.591
		c3.906,0.837,6.227,4.156,6.227,7.591C368.242,299.61,364.783,303.091,360.497,303.091z"/>
	<path style="fill:#F8804A;" d="M402.662,303.091c-4.299,0-7.745-3.503-7.745-7.745c0-5.008,4.654-8.542,9.263-7.591
		c3.742,0.784,6.227,3.981,6.227,7.591C410.407,299.605,406.969,303.091,402.662,303.091z"/>
	<path style="fill:#F8804A;" d="M444.838,303.091c-4.336,0-7.745-3.516-7.745-7.745c0-5.035,4.662-8.538,9.253-7.591
		c3.87,0.811,6.237,4.128,6.237,7.591C452.583,299.62,449.103,303.091,444.838,303.091z"/>
	<path style="fill:#F8804A;" d="M339.409,280.371c-4.374,0-7.745-3.589-7.745-7.735c0-4.241,3.453-7.755,7.745-7.755
		c4.3,0,7.745,3.495,7.745,7.755C347.154,276.876,343.719,280.371,339.409,280.371z"/>
	<path style="fill:#F8804A;" d="M381.585,280.371c-4.309,0-7.745-3.496-7.745-7.735c0-4.321,3.511-7.755,7.745-7.755
		c4.37,0,7.745,3.597,7.745,7.755C389.33,276.835,385.92,280.371,381.585,280.371z"/>
	<path style="fill:#F8804A;" d="M423.75,280.371c-4.301,0-7.745-3.504-7.745-7.735c0-3.489,2.372-6.793,6.228-7.601
		c4.65-0.934,9.263,2.605,9.263,7.601C431.495,276.876,428.046,280.371,423.75,280.371z"/>
</g>
<path style="fill:#FFEAD7;" d="M381.582,250.942c-4.278,0-7.745-3.467-7.745-7.745v-90.361c0-4.278,3.468-7.745,7.745-7.745
	c4.278,0,7.745,3.467,7.745,7.745v90.361C389.327,247.475,385.859,250.942,381.582,250.942z"/>
<path style="fill:#F9D6BF;" d="M381.582,212.094c-4.278,0-7.745-3.467-7.745-7.746v38.849c0,4.278,3.468,7.745,7.745,7.745
	c4.278,0,7.745-3.467,7.745-7.745v-38.849C389.327,208.627,385.859,212.094,381.582,212.094z"/>
<path style="fill:#A0D7FB;" d="M242.601,444.574c-4.074,0-7.607,4.799-3.661,9.362c10.406,12.015,24.066,18.463,38.129,18.463
	c14.566,0,65.457,0,113.74,0c12.71-8.195,24.619-17.521,35.6-27.825C349.176,444.574,251.662,444.574,242.601,444.574z"/>
<g>
</g>
<g>
</g>
<g>
</g>
<g>
</g>
<g>
</g>
<g>
</g>
<g>
</g>
<g>
</g>
<g>
</g>
<g>
</g>
<g>
</g>
<g>
</g>
<g>
</g>
<g>
</g>
<g>
</g>
</svg>
