<svg id="Capa_1" enable-background="new 0 0 511.999 511.999" height="512" viewBox="0 0 511.999 511.999" width="512" xmlns="http://www.w3.org/2000/svg"><g><path d="m172.31 123.77c-.858-1.542-.256-3.449 1.288-4.305.009-.005.019-.011.029-.016 11.444-6.368 15.051-21.365 7.218-32.342-5.84-8.184-16.748-11.408-26.091-7.694-6.778 2.694-11.353 8.16-13.182 14.427-.818 2.802-3.709 4.411-6.522 3.629-6.29-1.75-13.346-.744-19.208 3.596-8.081 5.982-11.091 16.951-7.216 26.228 5.198 12.443 19.844 17.284 31.288 10.916.01-.005.019-.011.029-.016 1.541-.861 3.479-.367 4.337 1.175l16.697 30.007h2.926l25.105-13.772v-1.825z" fill="#ffdda8"/><g><path d="m179.262 160.618-16.697-30.007c-.858-1.542-2.796-2.036-4.337-1.175-.01.005-.019.011-.029.016-11.444 6.368-26.09 1.527-31.288-10.916-3.064-7.334-1.809-15.716 2.837-21.865-4.765-.143-9.65 1.243-13.907 4.394-8.081 5.982-11.091 16.951-7.216 26.228 5.198 12.443 19.844 17.284 31.288 10.916.01-.005.019-.011.029-.016 1.541-.861 3.479-.367 4.337 1.175l16.697 30.007h2.926l15.962-8.757z" fill="#ffd086"/></g><path d="m249.797 197.636c-13.442-3.816-25.23-12.001-33.673-23.135l-8.898-11.734c-6.851-9.034-19.304-11.65-29.211-6.138l-8.821 4.908c-9.907 5.513-14.248 17.474-10.183 28.058l5.279 13.742c1.365 3.555 2.381 7.2 3.079 10.894l3.352 5.113 60.491 21.302 42.302-24.907v-5.915c-7.072-5.636-15.152-9.756-23.717-12.188z" fill="#cb6c35"/><path d="m195.79 228.172 35.424 12.474 42.302-24.907v-5.915c-6.699-5.336-14.305-9.295-22.364-11.766-15.602 4.615-29.949 11.858-42.438 21.18-4.216 3.146-8.53 6.119-12.924 8.934z" fill="#ae5e2e"/><circle cx="417.77" cy="373.594" fill="#ffa90f" r="50.427"/><g><path d="m417.77 430.716c-4.267 0-7.726-3.459-7.726-7.726v-98.793c0-4.268 3.459-7.726 7.726-7.726s7.726 3.459 7.726 7.726v98.793c0 4.267-3.459 7.726-7.726 7.726z" fill="#ffc365"/></g><g><path d="m456.685 404.983-85.557-49.396c-3.696-2.134-4.962-6.859-2.828-10.554 2.133-3.696 6.859-4.962 10.554-2.828l85.557 49.396c3.696 2.134 4.962 6.859 2.828 10.554-2.132 3.695-6.857 4.961-10.554 2.828z" fill="#ffc365"/></g><g><path d="m368.3 402.155c-2.134-3.695-.868-8.42 2.828-10.554l85.557-49.396c3.695-2.133 8.42-.867 10.554 2.828s.868 8.42-2.828 10.554l-85.557 49.396c-3.696 2.133-8.421.867-10.554-2.828z" fill="#ffc365"/></g><path d="m343.697 190.957c-31.151 0-59.78 10.074-82.348 26.919-9.247 6.902-18.948 13.012-29.003 18.306l-1.868 7.37-74.999 27.878 36.514 77.442s-39.273 42.772 16 76.516c2.99 1.826 5.423 3.601 7.359 5.327h161.926l-1.444-6.696c8.343 0 16.446-1.12 24.193-3.22-19.093-7.181-32.682-25.603-32.682-47.207 0-27.85 22.577-50.427 50.427-50.427 19.775 0 36.885 11.385 45.147 27.956 1.709-4.771 4.344-9.299 7.932-13.308 1.017-1.136 2.087-2.193 3.197-3.187.977-5.952 1.517-12.071 1.566-18.319.006-.755.009-1.516.009-2.28-.001-67.969-59.066-123.07-131.926-123.07z" fill="#cb6c35"/><path d="m499.618 344.965c-10.435.736-20.604 5.37-28.131 13.781-1.57 1.754-2.947 3.611-4.164 5.536.553 2.954.856 5.997.868 9.109.066-.003.13.001.195-.004 10.118-.714 19.979-5.207 27.278-13.362 3.779-4.222 6.497-9.02 8.192-14.069-1.245-.713-2.695-1.1-4.238-.991z" fill="#00e49d"/><path d="m471.88 358.933c7.299-8.155 17.16-12.649 27.278-13.363 1.631-.115 3.167.321 4.442 1.139 1.765-4.931 2.54-10.122 2.333-15.272-.166-4.112-3.7-7.276-7.805-6.986-10.118.714-19.979 5.207-27.278 13.363-3.59 4.011-6.226 8.541-7.934 13.314 2.139 4.29 3.678 8.928 4.525 13.804 1.271-2.095 2.745-4.106 4.439-5.999z" fill="#00d391"/><path d="m312.395 373.634c-9.212 4.322-15.601 13.663-15.601 24.512s6.389 20.19 15.601 24.512c10.226-3.455 17.591-13.12 17.591-24.512s-7.365-21.057-17.591-24.512z" fill="#f27182"/><path d="m297.552 398.146c0-10.875 6.712-20.177 16.217-24.004-2.985-1.202-6.242-1.87-9.657-1.87-8.479 0-16.005 4.079-20.724 10.381l-1.461 1.391v26.141l1.461 3.455c4.719 6.302 12.245 10.381 20.724 10.381 3.415 0 6.672-.668 9.657-1.87-9.505-3.828-16.217-13.13-16.217-24.005z" fill="#ed5469"/><g><path d="m417.77 431.746c-32.065 0-58.153-26.087-58.153-58.153s26.087-58.154 58.153-58.154 58.153 26.087 58.153 58.154c0 32.066-26.088 58.153-58.153 58.153zm0-100.853c-23.545 0-42.7 19.156-42.7 42.701s19.155 42.7 42.7 42.7 42.7-19.155 42.7-42.7c0-23.546-19.155-42.701-42.7-42.701z" fill="#ffd086"/></g><g><path d="m246.005 139.28c-4.267 0-7.726-3.459-7.726-7.726v-51.498c0-4.268 3.459-7.726 7.726-7.726s7.726 3.459 7.726 7.726v51.498c0 4.267-3.459 7.726-7.726 7.726z" fill="#dbedff"/></g><g><path d="m292.707 139.28c-4.267 0-7.726-3.459-7.726-7.726v-66.863c0-4.268 3.459-7.726 7.726-7.726s7.726 3.459 7.726 7.726v66.863c0 4.267-3.459 7.726-7.726 7.726z" fill="#dbedff"/></g><g><path d="m339.408 139.28c-4.267 0-7.726-3.459-7.726-7.726v-81.384c0-4.268 3.459-7.726 7.726-7.726s7.726 3.459 7.726 7.726v81.384c0 4.267-3.459 7.726-7.726 7.726z" fill="#dbedff"/></g><g><path d="m386.109 139.28c-4.267 0-7.726-3.459-7.726-7.726v-66.863c0-4.268 3.459-7.726 7.726-7.726s7.726 3.459 7.726 7.726v66.863c0 4.267-3.459 7.726-7.726 7.726z" fill="#dbedff"/></g><g><path d="m432.81 139.28c-4.267 0-7.726-3.459-7.726-7.726v-51.498c0-4.268 3.459-7.726 7.726-7.726s7.726 3.459 7.726 7.726v51.498c.001 4.267-3.459 7.726-7.726 7.726z" fill="#dbedff"/></g><path d="m314.955 329.228c8.009 5.4 17.216 7.633 26.158 7.009-2.594-8.612-8.054-16.418-16.093-21.839-8.059-5.434-17.368-7.566-26.345-6.725 2.78 8.497 8.293 16.169 16.28 21.555z" fill="#00e49d"/><path d="m340.835 335.363c-8.825.719-17.945-1.437-25.858-6.773-7.766-5.237-13.122-12.7-15.817-20.965-1.295.106-2.584.271-3.862.5-4.051.725-6.703 4.658-5.856 8.685 2.087 9.926 7.884 19.082 16.958 25.201s19.736 8.059 29.72 6.273c4.051-.725 6.703-4.658 5.856-8.685-.3-1.431-.687-2.844-1.141-4.236z" fill="#00d391"/><path d="m269.561 373.209c-10.005 3.874-17.111 13.565-17.111 24.937s7.106 21.064 17.111 24.937c10.94-3.019 18.978-13.037 18.978-24.937-.001-11.901-8.038-21.918-18.978-24.937z" fill="#ffc365"/><path d="m253.056 398.146c0-11.448 7.437-21.152 17.741-24.562-2.559-.847-5.291-1.312-8.133-1.312-14.29 0-25.874 11.584-25.874 25.874s11.584 25.874 25.874 25.874c2.843 0 5.575-.465 8.133-1.312-10.304-3.41-17.741-13.114-17.741-24.562z" fill="#ffa90f"/><path d="m192.451 348.912-36.599-77.621-31.14 11.575h-3.6c-27.478 19.958-43.723 46.495-41.323 74.167 0 36.996 27.567 66.987 61.574 66.987l7.729 6.696h67.827c-2.088-2.15-4.975-4.383-8.764-6.696-54.254-33.122-15.704-75.108-15.704-75.108z" fill="#ae5e2e"/><path d="m509.473 436.228c4.993-4.106 2.089-12.208-4.375-12.208h-498.196c-6.464 0-9.368 8.102-4.375 12.208l12.559 10.329c18.079 14.869 40.76 22.998 64.168 22.998h353.493c23.408 0 46.089-8.129 64.168-22.998z" fill="#dbedff"/><path d="m113.87 436.228c-4.993-4.106-2.089-12.208 4.375-12.208h-111.343c-6.464 0-9.368 8.102-4.375 12.208l12.559 10.329c18.079 14.869 40.76 22.998 64.168 22.998h111.344c-23.408 0-46.089-8.129-64.168-22.998z" fill="#b5dcff"/><path d="m99.644 161.751c.008-.007.016-.015.025-.023 9.674-8.827 9.739-24.252-.408-33.135-7.565-6.622-18.921-7.253-27.161-1.493-5.978 4.18-9.174 10.551-9.514 17.07-.152 2.915-2.596 5.146-5.513 5.031-6.523-.258-13.16 2.343-17.868 7.914-6.49 7.679-6.899 19.046-.996 27.184 7.918 10.916 23.285 12.261 32.959 3.434.008-.008.016-.015.024-.022 1.302-1.192 3.302-1.156 4.491.147l23.146 25.367h3.906l19.791-19.12v-2.501l-23.146-25.367c-1.189-1.304-1.041-3.299.264-4.486z" fill="#ffdda8"/><g><path d="m113.424 202.236-23.146-25.367c-1.189-1.303-3.189-1.339-4.491-.147-.008.007-.016.015-.024.022-9.674 8.827-25.041 7.482-32.959-3.434-5.039-6.947-5.463-16.239-1.447-23.588-4.533 1.01-8.824 3.456-12.151 7.393-6.49 7.679-6.899 19.046-.996 27.184 7.918 10.916 23.285 12.261 32.959 3.434.008-.008.016-.015.024-.022 1.302-1.192 3.302-1.156 4.491.147l23.146 25.367h3.906l11.374-10.989z" fill="#ffd086"/></g><path d="m238.736 242.308c-12.615-13.825-29.641-21.212-46.968-21.988-13.959-.625-27.312-5.882-38.088-14.778l-7.346-6.064c-.91.615-1.796 1.281-2.629 2.041l-7.634 6.965c-8.574 7.823-10.085 20.762-3.545 30.35l8.492 12.45c8.213 12.041 11.991 26.435 11.473 41.001-.66 18.574 6.099 37.423 20.515 51.719 3.13 3.104 6.505 5.835 10.06 8.211l18.6 2.131c10.848-2.084 21.294-6.818 30.263-14.272 29.917-24.863 32.731-69.355 6.807-97.766z" fill="#dd8858"/><g><path d="m173.964 342.332c-14.082-13.965-20.684-32.377-20.04-50.52.506-14.228-3.184-28.289-11.207-40.05l-8.295-12.161c-6.389-9.366-4.912-22.005 3.462-29.647l7.457-6.804c.89-.811 1.837-1.522 2.814-2.168l-5.831-4.814c-8.743-7.218-21.464-6.903-29.839.739l-7.457 6.804c-8.375 7.642-9.851 20.281-3.463 29.647l8.295 12.161c8.023 11.762 11.713 25.822 11.207 40.05-.645 18.143 5.958 36.555 20.04 50.52 5.896 5.847 12.662 10.376 19.902 13.601l26.613 3.048c-4.892-2.82-9.495-6.278-13.658-10.406z" fill="#cb6c35"/></g><path d="m203.929 348.56c-8.471-.372-17.129 1.862-24.7 6.966-7.698 5.191-13.061 12.538-15.854 20.693 8.538.502 17.301-1.677 24.94-6.828 7.733-5.214 13.076-12.637 15.781-20.86z" fill="#00e49d"/><path d="m179.612 355.829c7.46-5.03 15.991-7.231 24.338-6.865.534-1.565.983-3.158 1.323-4.774.847-4.027-1.805-7.96-5.856-8.685-9.985-1.786-20.646.154-29.72 6.273s-14.871 15.274-16.958 25.201c-.847 4.027 1.805 7.96 5.856 8.685 1.777.318 3.575.512 5.382.591 2.749-8.049 8.038-15.304 15.635-20.426z" fill="#00d391"/></g></svg>