<svg id="Layer_1" enable-background="new 0 0 512 512" height="512" viewBox="0 0 512 512" width="512" xmlns="http://www.w3.org/2000/svg"><g><circle cx="256" cy="256" fill="#e19974" r="256"/><circle cx="256" cy="256" fill="#dc8758" r="204.848"/><circle cx="192.129" cy="177.706" fill="#f3f0f3" r="127.742"/><path d="m192.129 49.964c-5.231 0-10.386.322-15.453.933 63.262 7.629 112.29 61.49 112.29 126.809s-49.028 119.18-112.29 126.809c5.066.611 10.222.933 15.453.933 70.55 0 127.742-57.192 127.742-127.742s-57.192-127.742-127.742-127.742z" fill="#e2dee2"/><circle cx="192.129" cy="177.706" fill="#ffd15b" r="57.69"/><path d="m192.129 120.016c-5.355 0-10.533.745-15.453 2.11 24.354 6.758 42.237 29.073 42.237 55.58s-17.883 48.822-42.237 55.58c4.92 1.365 10.098 2.11 15.453 2.11 31.861 0 57.69-25.829 57.69-57.69s-25.829-57.69-57.69-57.69z" fill="#ffc344"/><path d="m142.345 438.503c-7.99-4.363-10.93-14.376-6.568-22.366l12.465-22.829c4.363-7.99 14.376-10.93 22.366-6.568 7.99 4.363 10.93 14.376 6.568 22.366l-12.465 22.829c-4.363 7.99-14.377 10.93-22.366 6.568z" fill="#dbf1d0"/><path d="m171.408 416.18-25.998-14.195c-15.292-8.35-20.92-27.516-12.57-42.808l6.296-11.531c8.35-15.292 27.516-20.92 42.808-12.57l25.998 14.195c15.292 8.35 20.92 27.516 12.57 42.808l-6.296 11.531c-8.35 15.292-27.516 20.92-42.808 12.57z" fill="#97da7b"/><path d="m207.942 349.271-25.998-14.195c-.189-.103-.381-.194-.571-.294 14.866 8.509 20.261 27.383 12.014 42.486l-6.296 11.531c-8.247 15.103-27.041 20.77-42.236 12.864.186.106.367.219.556.322l25.998 14.195c15.292 8.35 34.458 2.722 42.808-12.57l6.296-11.531c8.349-15.292 2.721-34.458-12.571-42.808z" fill="#80d261"/><path d="m332.661 417.63c-7.771 4.741-17.914 2.285-22.656-5.486l-13.547-22.205c-4.741-7.771-2.285-17.914 5.486-22.656 7.771-4.741 17.914-2.285 22.656 5.486l13.547 22.205c4.742 7.772 2.285 17.915-5.486 22.656z" fill="#dbf1d0"/><path d="m327.846 381.301-25.286 15.427c-14.874 9.074-34.288 4.373-43.362-10.501l-6.842-11.215c-9.074-14.874-4.373-34.288 10.501-43.362l25.286-15.427c14.874-9.074 34.288-4.373 43.362 10.501l6.842 11.215c9.074 14.874 4.373 34.288-10.501 43.362z" fill="#97da7b"/><path d="m288.142 316.224-25.286 15.427c-.184.112-.359.233-.54.348 14.799-8.626 33.843-3.868 42.805 10.821l6.842 11.215c8.962 14.69 4.48 33.801-9.961 43.014.185-.108.373-.209.557-.321l25.286-15.427c14.874-9.074 19.575-28.488 10.5-43.362l-6.842-11.215c-9.073-14.874-28.487-19.575-43.361-10.5z" fill="#80d261"/><path d="m433.274 306.293c-4.698 7.797-14.828 10.309-22.625 5.611l-22.279-13.425c-7.797-4.698-10.309-14.828-5.611-22.625 4.698-7.797 14.828-10.309 22.625-5.611l22.279 13.425c7.798 4.698 10.31 14.827 5.611 22.625z" fill="#dbf1d0"/><path d="m412.207 276.307-15.288 25.371c-8.993 14.923-28.38 19.731-43.304 10.739l-11.253-6.781c-14.923-8.993-19.731-28.38-10.739-43.304l15.288-25.371c8.993-14.923 28.38-19.731 43.304-10.739l11.253 6.781c14.924 8.992 19.732 28.38 10.739 43.304z" fill="#97da7b"/><path d="m346.912 236.961-15.288 25.371c-.111.185-.211.373-.318.559 9.133-14.491 28.22-19.078 42.958-10.197l11.253 6.781c14.739 8.881 19.601 27.899 11.056 42.745.114-.182.234-.357.345-.542l15.288-25.371c8.993-14.923 4.185-34.311-10.739-43.304l-11.253-6.781c-14.921-8.993-34.309-4.185-43.302 10.739z" fill="#80d261"/><path d="m343.025 128.689c2.419-26.936 26.434-46.741 53.432-43.87 26.131 2.779 45.489 26.365 43.141 52.539-.014.155-.028.309-.044.463-.686 6.922 1.899 13.662 6.829 18.569 6.664 6.631 10.237 16.264 8.667 26.447-2.386 15.473-16.417 26.767-32.045 25.838-12.888-.767-23.341-9.327-27.219-20.726-1.282-3.768-4.772-6.28-8.737-6.63-.025-.002-.05-.004-.074-.007-26.668-2.395-46.345-25.955-43.95-52.623z" fill="#fff0ad"/><path d="m446.383 156.389c-4.93-4.906-7.515-11.647-6.829-18.569.015-.154.03-.308.044-.463 2.348-26.174-17.009-49.76-43.141-52.539-7.208-.767-14.198.097-20.627 2.268 20.727 7.012 34.89 27.671 32.862 50.271-.014.154-.028.309-.044.463-.686 6.922 1.899 13.662 6.829 18.569 6.664 6.631 10.237 16.264 8.667 26.447-1.44 9.338-7.125 17.148-14.839 21.675 4.037 2.371 8.679 3.865 13.7 4.163 15.628.93 29.659-10.365 32.045-25.838 1.57-10.183-2.004-19.816-8.667-26.447z" fill="#ffe177"/></g></svg>