<svg id="Layer_1" enable-background="new 0 0 512 512" height="512" viewBox="0 0 512 512" width="512" xmlns="http://www.w3.org/2000/svg"><g><path d="m501.24 256c0 116.318-79.242 214.128-186.687 242.392-20.41 5.369-40.204-.032-62.3-.032-138.413 0-236.884-103.946-236.884-242.36 0-93.308 35.622-174.706 111.259-217.849 36.564-20.855 78.886-32.771 123.992-32.771 138.413 0 250.62 112.206 250.62 250.62z" fill="#ff640a"/><path d="m437.836 422.592c11.243-12.625 21.227-26.393 29.758-41.109 3.875-6.684-1.073-15.017-8.793-14.717-5.719.222-10.355-4.497-10.132-10.216.207-5.313-.136-11.159.044-20.572 0-30.385-24.86-55.245-55.245-55.245h-.418c-12.454 0-18.562-14.911-9.909-23.868 9.152-9.474 14.442-21.547 14.442-36.927 0-27.966-18.885-51.514-44.598-58.603-7.798-2.15-14.046-7.885-17.058-15.392-6.319-15.747-15.672-30.56-28.067-43.539-1.409-1.476-3.4-2.251-5.433-2.073l-.104.009c-3.003.263-5.836-1.511-6.845-4.352-5.208-14.665-14.05-28.212-26.37-39.159-2.967-2.637-7.065-3.607-10.905-2.601l-.178.047c-4.432 1.161-9.171-.299-12.095-3.827-10.156-12.255-23.947-20.688-39.14-20.688-16.709 0-31.719 10.202-42.066 24.468-.768 1.059-2.144 1.475-3.359.991-4.624-1.845-8.56-2.981-10.491-3.494-.802-.213-1.656-.064-2.334.415-.071.05-.141.1-.212.15-2.607 1.85-5.802-1.4-3.893-3.965.126-.169.251-.337.377-.506 5.775-7.719-2.869-17.914-11.387-13.4-79.36 42.057-133.422 125.501-133.425 221.574-.004 138.454 112.068 250.574 250.522 250.627 25.252.01 49.631-3.717 72.615-10.657 26.16-7.899 22.635-46.018-4.535-48.938-.744-.08-1.488-.163-2.232-.25-20.523-2.391-17.623-33.103 2.997-31.781z" fill="#e04955"/><g><g><path d="m238.128 112.303c0 31.215-25.305 56.52-56.52 56.52s-56.52-25.305-56.52-56.52 25.305-66.806 56.52-66.806 56.52 35.591 56.52 66.806z" fill="#a0c83d"/><path d="m161.57 160.106c9.587-4.266 9.587-4.266 10.085-16.465s4.387-11.578 17.627-19.028c9.194-5.173 8.321-2.705 9.121-26.057.799-23.352 40.752-29.96 40.752-29.96 41.475 32.326 48.892 92.153 16.567 133.628-23.405 30.03-61.229 42.205-96.065 34.368 0 0-16.91-68.111 1.913-76.486z" fill="#94b938"/><path d="m196.269 163.217c-9.309-4.843-9.309-4.843-9.061-17.05s-3.672-11.824-16.432-20.069c-8.861-5.725-8.141-3.208-7.512-26.566.628-23.358-38.847-32.393-38.847-32.393-43.372 29.732-54.429 88.995-24.696 132.367 21.528 31.404 58.537 45.866 93.787 40.17 0 .001 21.038-66.951 2.761-76.459z" fill="#489160"/><path d="m153.246 232.965c14.468-4.401 14.468-4.401 17.343-21.759 2.875-17.359 8.327-15.781 28.584-24.088 14.066-5.768 12.38-2.393 17.664-35.649s63.595-35.623 63.595-35.623c53.585 53.585 53.585 140.463 0 194.048-38.798 38.798-95.051 49.505-143.483 32.119 0 0-12.108-100.409 16.297-109.048z" fill="#489160"/><path d="m205.076 232.965c-14.468-4.401-14.468-4.401-17.343-21.759-2.875-17.359-8.327-15.781-28.584-24.088-14.066-5.768-12.38-2.393-17.664-35.649s-63.595-35.623-63.595-35.623c-53.585 53.585-37.12 135.743 16.465 189.328 38.798 38.798 78.586 54.225 127.017 36.839.001 0 12.108-100.409-16.296-109.048z" fill="#a0c83d"/><path d="m146.211 300.014c-36.866-36.866-48.367-89.49-34.505-136.19 6.87-23.144-9.453-46.714-33.563-47.966-.167-.009-.253-.012-.253-.012-53.585 53.585-53.585 140.463 0 194.048 38.798 38.798 95.051 49.505 143.483 32.119 0 0 .152-1.266.382-3.513-27.654-4.36-54.234-17.176-75.544-38.486z" fill="#489160"/></g><g><path d="m311.603 174.881h-81.085c-4.222 0-8.343.432-12.323 1.251v52.934c0 28.896 22.961 52.561 51.843 53.439 22.113.671 44.057 1.594 49.898 3.032 4.63 1.14 8.092 4.201 10.134 8.072 24.546-7.819 42.328-30.795 42.328-57.932.002-33.577-27.218-60.796-60.795-60.796z" fill="#a55a3c"/><g fill="#783c28"><ellipse cx="253.441" cy="228.79" rx="9.789" ry="6.52"/><path d="m281.936 281.783c-8.469 0-16.532-1.733-23.856-4.863-7.294-3.117-8.528-12.673-2.769-18.127 1.505-1.426 2.431-3.166 2.431-5.227 0-5.607-7.893-10.152-17.63-10.152-1.305 0-2.576.082-3.799.238-6.518.829-12.519-3.678-13.871-10.108-.018-.087-.036-.174-.054-.261-1.113-5.409 1.332-10.987 6.156-13.675 1.238-.689 2.066-1.638 2.066-2.851 0-1.026-.574-1.849-1.466-2.486-4.388-3.139-6.229-8.804-4.402-13.88 2.285-6.347 5.594-12.204 9.73-17.371 2.625-3.279.246-8.139-3.954-8.139-33.577 0-60.797 27.22-60.797 60.797 0 33.577 27.22 60.797 60.797 60.797h81.085c6.942 0 13.61-1.166 19.822-3.312 6.211-2.145 4.592-11.379-1.979-11.379h-47.51z"/><ellipse cx="324.425" cy="209.655" rx="9.429" ry="5.511"/><ellipse cx="280.994" cy="189.751" rx="6.716" ry="4.084"/><ellipse cx="313.49" cy="253.566" rx="8.666" ry="6.557"/></g></g><g><path d="m184.793 251.137h-81.085c-3.181 0-6.304.247-9.353.717v64.565c0 23.828 18.76 43.41 42.564 44.492 17.807.809 35.631 1.222 53.304.268 6.194-.335 11.342 3.282 14.272 8.269 23.904-8.187 41.095-30.836 41.095-57.514 0-33.577-27.22-60.797-60.797-60.797z" fill="#a55a3c"/><g fill="#783c28"><ellipse cx="126.631" cy="305.046" rx="9.789" ry="6.52"/><path d="m155.126 358.04c-8.469 0-16.532-1.733-23.856-4.863-7.294-3.117-8.528-12.673-2.769-18.127 1.505-1.426 2.431-3.166 2.431-5.227 0-5.607-7.893-10.152-17.63-10.152-1.305 0-2.576.082-3.799.238-6.518.829-12.519-3.678-13.871-10.108-.018-.087-.036-.174-.054-.261-1.113-5.409 1.332-10.987 6.156-13.675 1.238-.689 2.066-1.638 2.066-2.851 0-1.026-.574-1.849-1.466-2.486-4.388-3.139-6.229-8.804-4.402-13.88 2.285-6.347 5.594-12.204 9.73-17.371 2.625-3.279.246-8.139-3.954-8.139-33.577 0-60.797 27.22-60.797 60.797 0 33.577 27.22 60.797 60.797 60.797h81.085c6.942 0 13.61-1.166 19.822-3.312 6.211-2.145 4.592-11.379-1.979-11.379h-47.51z"/><ellipse cx="197.615" cy="285.911" rx="9.429" ry="5.511"/><ellipse cx="154.184" cy="266.007" rx="6.716" ry="4.084"/><ellipse cx="186.68" cy="329.822" rx="8.666" ry="6.557"/></g></g><path d="m239.914 406.464h170.088c8.41-9.701 13.526-22.324 13.526-36.093v-18.654c0-30.385-24.86-55.245-55.245-55.245h-117.692c-3.699 0-7.315.375-10.815 1.077.083.649.139 1.301.139 1.957v106.958z" fill="#a55a3c"/><g fill="#783c28"><path d="m297.027 403.521c-13.272 0-25.487-4.745-35.037-12.622-7.191-5.931-5.714-17.201 2.68-21.252 3.768-1.818 6.391-4.448 6.391-7.892 0-5.992-8.307-10.042-17.749-10.822-6.554-.542-11.524-6.16-11.521-12.737.001-2.315-.001-5.127-.008-8.575 0-12.412 4.151-23.899 11.13-33.149h-2.321c-30.385 0-55.245 24.86-55.245 55.245v18.654c0 30.385 24.86 55.245 55.245 55.245h117.694c17.973 0 34.009-8.701 44.115-22.095z"/><path d="m271.061 323.265c4.963 0 8.986-2.619 8.986-5.849s-4.023-5.849-8.986-5.849-8.986 2.619-8.986 5.849c-.001 3.23 4.023 5.849 8.986 5.849z"/></g><path d="m394.655 407.388c11.615-8.764 19.159-22.67 19.159-38.255v-16.177c0-26.35-21.559-47.91-47.91-47.91h-31.086c-3.549 0-7.007.403-10.342 1.145v101.198h70.179z" fill="#fff5aa"/><path d="m404.513 392.377h-31.086c-26.35 0-47.91-21.559-47.91-47.91v-16.177c0-8.369 2.181-16.251 5.993-23.116-24.821 1.715-44.602 22.544-44.602 47.782v16.177c0 26.35 21.559 47.91 47.91 47.91h31.086c17.981 0 33.725-10.043 41.916-24.794-1.094.076-2.195.128-3.307.128z" fill="#ffe046"/><g><g><g><path d="m130.398 412.547v20.034c2.345.93 4.855 1.47 7.476 1.541 4.772.13 9.266-1.3 13.107-3.879 7.004-4.704 15.317-7.069 23.751-6.84l24.607.668.879-32.361h-48.984c-11.507.001-20.836 9.329-20.836 20.837z" fill="#fff"/></g><g><path d="m192.849 406.184c-8.434-.229-16.606-3.042-23.344-8.119-3.695-2.784-8.105-4.456-12.877-4.585-13.565-.368-24.901 11.849-25.32 27.289-.125 4.593.737 8.949 2.357 12.819-11.49-2.593-19.965-14.289-19.591-28.089.419-15.44 11.756-27.658 25.321-27.29 4.772.13 9.182 1.801 12.877 4.585 6.738 5.077 14.911 7.89 23.344 8.119l24.607.668-.402 14.792z" fill="#fff5aa"/></g><g><path d="m200.058 397.62 291.718 22.438-9.336 22.94-283.1-18.927z" fill="#a0c83d"/></g><g><path d="m512 401.099-311.806-8.469-.654 24.072 305.11 8.287z" fill="#94b938"/></g><g><path d="m496.349 380.066-296.127 11.516-.882 32.489 306.108-28.443z" fill="#a0c83d"/></g></g><g><path d="m72.808 377.93c-1.327 0-2.567.83-3.025 2.154-.58 1.671.306 3.495 1.976 4.074l39.217 13.59c1.873.649 3.132 2.417 3.132 4.4v7.436c0 2.186-1.553 4.102-3.69 4.555l-27.043 5.735c-1.729.367-2.835 2.067-2.467 3.796.366 1.73 2.068 2.832 3.797 2.468l27.042-5.735c5.079-1.077 8.765-5.627 8.765-10.819v-7.436c0-4.708-2.989-8.908-7.438-10.45l-39.217-13.59c-.348-.121-.701-.178-1.049-.178z" fill="#fff5aa"/></g><g><path d="m88.125 398.866c-1.581 0-2.957 1.172-3.17 2.783-.232 1.753 1.001 3.362 2.754 3.593l25.943 3.43c1.75.23 3.362-1.001 3.594-2.755.232-1.753-1.001-3.362-2.754-3.593l-25.943-3.43c-.143-.018-.284-.028-.424-.028z" fill="#fff5aa"/></g></g></g></g></svg>