<svg height="512pt" viewBox="-11 0 512 512" width="512pt" xmlns="http://www.w3.org/2000/svg"><path d="m468.703125 367.035156c13.679687-30.542968 21.296875-64.398437 21.296875-100.035156 0-135.308594-109.691406-245-245-245s-245 109.691406-245 245c0 35.636719 7.617188 69.492188 21.296875 100.035156zm0 0" fill="#474979"/><path d="m234.472656 11.652344v71.554687l58.007813-29.003906c5.582031-2.789063 5.582031-10.757813 0-13.550781zm0 0" fill="#fe505f"/><path d="m254.492188 54.207031v-13.554687c0-6.464844 3.304687-11.828125 8.066406-14.960938l-28.085938-14.039062v71.554687l28.085938-14.042969c-4.761719-3.132812-8.066406-8.492187-8.066406-14.957031zm0 0" fill="#de3648"/><path d="m459.847656 237.875c-54.074218-51.78125-134.972656-84.671875-225.375-84.671875s-171.296875 32.890625-225.375 84.671875c-19.085937 18.277344-5.800781 50.566406 20.621094 50.566406h409.507812c26.425782-.003906 39.707032-32.289062 20.621094-50.566406zm0 0" fill="#e08b51"/><path d="m196.988281 196.707031c12.082031-15.464843 25.160157-29.992187 39.109375-43.484375-.542968-.003906-1.082031-.019531-1.625-.019531-90.402344 0-171.296875 32.890625-225.375 84.671875-19.085937 18.277344-5.800781 50.5625 20.621094 50.5625h195.261719c-35.871094 0-53.902344-58.574219-27.992188-91.730469zm0 0" fill="#ce783e"/><path d="m76.324219 444.683594c43.929687 41.714844 103.3125 67.316406 168.675781 67.316406s124.746094-25.601562 168.675781-67.316406zm0 0" fill="#e08b51"/><path d="m227.929688 444.683594h-151.605469c39.542969 37.550781 91.609375 62.03125 149.28125 66.546875-33.726563-8.554688-32.105469-60.019531 2.324219-66.546875zm0 0" fill="#ce783e"/><path d="m436.148438 323.074219h-403.347657c-9.3125 0-17.738281 3.945312-23.710937 10.242187 12.089844 43.101563 35.671875 81.394532 67.234375 111.367188h337.351562c23.152344-21.988282 42.003907-48.453125 55.183594-78.003906v-10.894532c0-17.992187-14.71875-32.710937-32.710937-32.710937zm0 0" fill="#964e1d"/><path d="m219.203125 394.644531c9.375-7.035156 14.59375-18.320312 14.59375-30.039062v-41.53125h-200.996094c-9.3125 0-17.738281 3.945312-23.710937 10.242187 12.089844 43.101563 35.671875 81.394532 67.234375 111.367188h152.445312c-12.035156-3.277344-20.957031-14.324219-20.957031-27.359375 0-9.25 4.488281-17.496094 11.390625-22.679688zm0 0" fill="#874417"/><path d="m441.730469 288.4375c-12.824219 0-402.027344 0-414.511719 0-8.609375 0-15.585938 6.980469-15.585938 15.585938 0 8.609374 6.976563 15.585937 15.585938 15.585937h414.511719c8.609375 0 15.585937-6.976563 15.585937-15.585937 0-8.605469-6.976562-15.585938-15.585937-15.585938zm0 0" fill="#ffac00"/><path d="m201.632812 304.023438c0-8.605469 6.976563-15.582032 15.582032-15.582032-94.453125 0-184.109375 0-190 0-8.605469 0-15.582032 6.976563-15.582032 15.582032 0 8.609374 6.976563 15.585937 15.582032 15.585937h190c-8.605469 0-15.582032-6.976563-15.582032-15.585937zm0 0" fill="#ff8500"/><path d="m422.769531 319.609375h-377.949219c-7.386718 0-13.378906 5.988281-13.378906 13.378906v51.085938c0 12.191406 9.480469 22.578125 21.664063 23.011719 12.792969.453124 23.304687-9.78125 23.304687-22.472657v-10.574219c0-12.191406 9.480469-22.574218 21.664063-23.007812 12.789062-.457031 23.304687 9.777344 23.304687 22.46875v10.574219c0 12.195312 9.476563 22.578125 21.660156 23.011719 12.792969.453124 23.304688-9.78125 23.304688-22.472657v-10.574219c0-12.191406 9.480469-22.574218 21.664062-23.007812 12.792969-.457031 23.304688 9.777344 23.304688 22.46875v10.574219c0 12.195312 9.476562 22.578125 21.664062 23.011719 12.789063.453124 23.300782-9.78125 23.300782-22.472657v-10.574219c0-12.191406 9.480468-22.574218 21.664062-23.007812 12.792969-.457031 23.304688 9.777344 23.304688 22.46875v11.113281c0 12.691407 10.511718 22.925781 23.300781 22.472657 12.183594-.433594 21.664063-10.820313 21.664063-23.011719v-10.035157c0-12.191406 9.480468-22.574218 21.664062-23.007812 12.792969-.457031 23.304688 9.777344 23.304688 22.46875v11.113281c0 12.691407 10.511718 22.925781 23.300781 22.472657 12.183593-.433594 21.664062-10.820313 21.664062-23.011719v-51.085938c.003907-7.390625-5.988281-13.378906-13.375-13.378906zm0 0" fill="#ffcd38"/><path d="m44.820312 319.609375c-7.386718 0-13.378906 5.988281-13.378906 13.375v51.089844c0 12.191406 9.480469 22.574219 21.664063 23.007812 12.792969.457031 23.304687-9.777343 23.304687-22.46875v-10.578125c0-12.1875 9.480469-22.574218 21.664063-23.007812 12.789062-.453125 23.304687 9.78125 23.304687 22.46875v10.578125c0 12.191406 9.476563 22.574219 21.660156 23.007812 12.792969.457031 23.304688-9.777343 23.304688-22.46875v-10.578125c0-12.1875 9.480469-22.574218 21.664062-23.007812 6.148438-.214844 11.765626 2.039062 15.945313 5.84375-13.511719-29.699219 13.261719-37.261719 13.261719-37.261719zm0 0" fill="#ffac00"/><path d="m228.195312 170.160156c-4.351562 0-7.882812-3.527344-7.882812-7.882812v-154.394532c0-4.355468 3.527344-7.882812 7.882812-7.882812 4.351563 0 7.878907 3.527344 7.878907 7.882812v154.394532c0 4.355468-3.527344 7.882812-7.878907 7.882812zm0 0" fill="#e8f8fc"/><path d="m228.195312 111.660156c-4.351562 0-7.882812-3.527344-7.882812-7.882812v58.5c0 4.355468 3.527344 7.882812 7.882812 7.882812 4.351563 0 7.878907-3.527344 7.878907-7.882812v-58.5c0 4.355468-3.527344 7.882812-7.878907 7.882812zm0 0" fill="#cce6ed"/><path d="m455.945312 158.195312c-42.71875-42.722656-111.867187-42.726562-154.59375 0-42.71875 42.71875-42.726562 111.867188 0 154.59375 42.617188 42.617188 111.972657 42.625 154.59375 0 42.625-42.621093 42.625-111.972656 0-154.59375zm-35.203124 147.367188c-31.414063 18.875-72.832032 14.808594-99.898438-12.261719-27.25-27.25-31.132812-68.644531-12.273438-99.921875 1.621094-2.6875 5.34375-3.136718 7.5625-.914062l105.53125 105.53125c2.222657 2.222656 1.773438 5.945312-.921874 7.566406zm27.976562-27.976562c-1.617188 2.691406-5.34375 3.140624-7.566406.921874l-105.53125-105.535156c-2.21875-2.21875-1.773438-5.941406.914062-7.558594 31.257813-18.851562 72.65625-14.996093 99.921875 12.269532 27.054688 27.050781 31.128907 68.492187 12.261719 99.902344zm0 0" fill="#fe505f"/><path d="m406.195312 320.609375c0-3.53125 1.1875-6.773437 3.167969-9.386719-29.515625 11.9375-64.613281 5.984375-88.523437-17.921875-27.25-27.25-31.132813-68.648437-12.269532-99.925781 1.621094-2.6875 5.339844-3.132812 7.558594-.914062l47.601563 47.601562c-.453125-1.457031-.695313-3.003906-.695313-4.609375 0-8.601563 6.972656-15.574219 15.574219-15.574219 1.605469 0 3.152344.242188 4.609375.691406l-47.597656-47.597656c-2.21875-2.21875-1.773438-5.9375.914062-7.558594 3.085938-1.859374 6.273438-3.492187 9.535156-4.910156-7.847656-.804687-13.964843-7.433594-13.964843-15.492187 0-3.886719 1.433593-7.433594 3.789062-10.164063-12.546875 5.332032-24.304687 13.109375-34.539062 23.347656-42.722657 42.71875-42.726563 111.867188 0 154.59375 32.355469 32.355469 80.113281 40.144532 119.890625 23.371094-8.355469-.277344-15.050782-7.125-15.050782-15.550781zm0 0" fill="#de3648"/></svg>