<svg height="512pt" viewBox="0 0 512 512" width="512pt" xmlns="http://www.w3.org/2000/svg"><path d="m108.753906 465.425781h294.492188c65.777344-46.332031 108.753906-122.855469 108.753906-209.425781 0-141.386719-114.613281-256-256-256s-256 114.613281-256 256c0 86.570312 42.976562 163.09375 108.753906 209.425781zm0 0" fill="#2d8ae8"/><g fill="#6cafff"><path d="m451.527344 289.0625h19.855468c7.355469 0 13.320313 5.964844 13.320313 13.324219s-5.964844 13.324219-13.320313 13.324219h-19.855468c-7.355469 0-13.324219-5.964844-13.324219-13.324219s5.96875-13.324219 13.324219-13.324219zm0 0"/><path d="m54.398438 256.453125h53.308593c7.289063 0 13.320313-5.921875 13.320313-13.324219 0-7.355468-5.964844-13.320312-13.320313-13.320312h-80.417969c-7.351562 0-13.320312-5.960938-13.320312-13.324219 0-7.355469 5.964844-13.320313 13.320312-13.320313h10.160157c7.292969 0 13.324219-5.921874 13.324219-13.324218 0-7.355469-5.96875-13.320313-13.324219-13.320313h-24.851563c-8.164062 25.019531-12.597656 51.730469-12.597656 79.480469 0 18.4375 1.957031 36.417969 5.660156 53.753906h67.238282c7.335937 0 13.324218-5.960937 13.324218-13.335937 0-7.355469-5.964844-13.320313-13.320312-13.320313h-18.5c-7.421875 0-13.324219-6.023437-13.324219-13.324218 0-7.355469 5.964844-13.320313 13.320313-13.320313zm0 0"/><path d="m512 256c0-25.558594-3.761719-50.234375-10.734375-73.527344h-163.042969c-7.355468 0-13.320312 5.96875-13.320312 13.324219 0 7.402344 6.03125 13.320313 13.324218 13.320313h45.304688c7.355469 0 13.320312 5.96875 13.320312 13.324218 0 7.300782-5.902343 13.320313-13.320312 13.320313h-14.5c-7.355469 0-13.324219 5.96875-13.324219 13.324219 0 7.371093 5.988281 13.332031 13.324219 13.332031h142.882812c.050782-2.132813.085938-4.273438.085938-6.417969zm0 0"/></g><path d="m108.753906 465.425781c41.648438 29.335938 92.433594 46.574219 147.246094 46.574219s105.597656-17.238281 147.246094-46.574219zm0 0" fill="#00557f"/><path d="m256 337.378906v-22.75l-63.335938-107.21875-62.117187 107.21875v22.75zm0 0" fill="#ef9218"/><path d="m387.226562 294.210938h-74.078124c-4.773438 0-8.640626 4.015624-8.640626 8.96875v34h91.359376v-34c0-4.953126-3.871094-8.96875-8.640626-8.96875zm0 0" fill="#dc3647"/><path d="m358.828125 294.210938h-45.679687c-4.773438 0-8.640626 4.015624-8.640626 8.96875v34h45.679688v-34c0-4.953126 3.867188-8.96875 8.640625-8.96875zm0 0" fill="#bc0f31"/><path d="m452.003906 158.867188c-4.144531 2.308593-8.828125 3.621093-13.800781 3.621093-4.96875 0-9.652344-1.3125-13.796875-3.621093v182.6875h27.59375c.003906-71.605469.003906-141.347657.003906-182.6875zm0 0" fill="#c46450"/><path d="m87.800781 158.871094c-4.375 2.441406-9.367187 3.761718-14.652343 3.601562-4.667969-.136718-9.050782-1.457031-12.941407-3.683594v182.765626h27.59375c0-71.601563 0-141.339844 0-182.683594zm0 0" fill="#c46450"/><path d="m438.203125 162.488281c-4.96875 0-9.652344-1.3125-13.796875-3.625v61.378907c0-7.617188 6.179688-13.796876 13.796875-13.796876 7.621094 0 13.800781 6.179688 13.800781 13.796876 0-23.851563 0-44.882813 0-61.378907-4.144531 2.3125-8.828125 3.625-13.800781 3.625zm0 0" fill="#a34c3e"/><path d="m73.148438 162.472656c-4.667969-.136718-9.050782-1.457031-12.941407-3.683594v61.457032c0-7.621094 6.175781-13.796875 13.796875-13.796875 7.617188 0 13.796875 6.175781 13.796875 13.796875 0-23.851563 0-44.878906 0-61.375-4.375 2.441406-9.363281 3.761718-14.652343 3.601562zm0 0" fill="#a34c3e"/><path d="m468.554688 359.863281h-424.902344v39.164063c24.332031 36.050781 57.605468 65.566406 96.632812 85.378906h231.429688c39.140625-19.871094 72.492187-49.5 96.839844-85.695312zm0 0" fill="#7fa017"/><path d="m165.265625 359.863281h-121.613281v39.164063c24.332031 36.050781 57.605468 65.566406 96.632812 85.378906h24.980469zm0 0" fill="#6d8e10"/><path d="m366.753906 446.992188c-20.136718-2.558594-41.203125 3.875-56.667968 19.34375-5.425782 5.425781-9.714844 11.550781-12.921876 18.070312h73.074219c3.40625-9.917969 4.46875-20.460938 3.15625-30.769531-.4375-3.457031-3.183593-6.203125-6.640625-6.644531zm0 0" fill="#c1d12a"/><path d="m388.207031 425.691406c.242188 3.480469 3.015625 6.25 6.492188 6.496094 24.660156 1.730469 45.140625-18.707031 43.40625-43.40625-.246094-3.476562-3.015625-6.25-6.496094-6.496094-24.65625-1.730468-45.140625 18.707032-43.402344 43.40625zm0 0" fill="#f6c952"/><path d="m326.019531 416.636719c.179688 2.542969 2.203125 4.566406 4.746094 4.746093 18.023437 1.265626 32.992187-13.671874 31.722656-31.722656-.179687-2.542968-2.203125-4.566406-4.746093-4.746094-18.023438-1.265624-32.992188 13.671876-31.722657 31.722657zm0 0" fill="#ffe881"/><path d="m328.085938 481.835938c12.707031-12.707032 29.191406-19.308594 45.839843-19.839844-.011719-2.792969-.175781-5.585938-.527343-8.359375-.441407-3.457031-3.1875-6.203125-6.644532-6.644531-20.136718-2.558594-41.203125 3.875-56.667968 19.34375-5.425782 5.425781-9.714844 11.550781-12.921876 18.070312h28.496094c.785156-.871094 1.585938-1.730469 2.425782-2.570312zm0 0" fill="#9fbc22"/><path d="m438.183594 392.925781c.042968-1.378906.015625-2.765625-.078125-4.144531-.246094-3.476562-3.015625-6.25-6.496094-6.496094-24.660156-1.730468-45.140625 18.707032-43.40625 43.40625.246094 3.476563 3.019531 6.25 6.496094 6.496094 2.390625.167969 4.792969.113281 7.179687-.140625.628906-20.296875 16.113282-36.984375 36.304688-39.121094zm0 0" fill="#edaa24"/><path d="m362.546875 392.621094c.027344-.984375.007813-1.972656-.058594-2.960938-.179687-2.542968-2.207031-4.566406-4.75-4.746094-18.019531-1.265624-32.988281 13.671876-31.71875 31.722657.175781 2.542969 2.203125 4.566406 4.746094 4.746093 2.0625.144532 4.140625.074219 6.195313-.207031.421874-14.578125 11.3125-26.578125 25.585937-28.554687zm0 0" fill="#f6c952"/><path d="m347.15625 27.59375v113.242188c0 16.761718 13.585938 30.347656 30.347656 30.347656 16.761719 0 30.351563-13.585938 30.351563-30.347656v-113.242188zm0 0" fill="#dc3647"/><path d="m286.453125 27.59375v113.242188c0 16.761718 13.589844 30.347656 30.351563 30.347656 16.761718 0 30.347656-13.585938 30.347656-30.347656v-113.242188zm0 0" fill="#edaa24"/><path d="m225.753906 27.59375v113.242188c0 16.761718 13.589844 30.347656 30.351563 30.347656s30.347656-13.585938 30.347656-30.347656v-113.242188zm0 0" fill="#dc3647"/><path d="m165.054688 27.59375v113.242188c0 16.761718 13.585937 30.347656 30.347656 30.347656 16.761718 0 30.351562-13.585938 30.351562-30.347656v-113.242188zm0 0" fill="#edaa24"/><path d="m104.355469 27.59375v113.242188c0 16.761718 13.585937 30.347656 30.347656 30.347656s30.351563-13.585938 30.351563-30.347656v-113.242188zm0 0" fill="#dc3647"/><path d="m440.921875 27.59375h-33.066406v112.609375c0 16.539063 12.964843 30.515625 29.496093 30.972656 17.152344.46875 31.203126-13.292969 31.203126-30.339843v-85.609376c0-15.261718-12.371094-27.632812-27.632813-27.632812zm0 0" fill="#edaa24"/><path d="m43.652344 55.015625v85.1875c0 16.539063 12.964844 30.515625 29.496094 30.972656 17.152343.46875 31.203124-13.292969 31.203124-30.339843v-113.242188h-33.273437c-15.148437 0-27.425781 12.277344-27.425781 27.421875zm0 0" fill="#edaa24"/><path d="m377.503906 88.292969c-16.761718 0-30.347656 13.589843-30.347656 30.351562v22.191407c0 16.761718 13.585938 30.347656 30.347656 30.347656 16.761719 0 30.351563-13.585938 30.351563-30.347656v-22.191407c0-16.761719-13.589844-30.351562-30.351563-30.351562zm0 0" fill="#bc0f31"/><path d="m438.203125 88.292969c-16.761719 0-30.347656 13.589843-30.347656 30.351562v22.191407c0 16.761718 13.585937 30.347656 30.347656 30.347656 16.765625 0 30.351563-13.585938 30.351563-30.347656v-22.191407c0-16.761719-13.585938-30.351562-30.351563-30.351562zm0 0" fill="#ef9218"/><path d="m316.804688 88.292969c-16.761719 0-30.351563 13.589843-30.351563 30.351562v22.191407c0 16.761718 13.589844 30.347656 30.351563 30.347656 16.761718 0 30.351562-13.585938 30.351562-30.347656v-22.191407c0-16.761719-13.589844-30.351562-30.351562-30.351562zm0 0" fill="#ef9218"/><path d="m256.105469 88.292969c-16.761719 0-30.351563 13.589843-30.351563 30.351562v22.191407c0 16.761718 13.589844 30.347656 30.351563 30.347656s30.347656-13.585938 30.347656-30.347656v-22.191407c0-16.761719-13.585937-30.351562-30.347656-30.351562zm0 0" fill="#bc0f31"/><path d="m195.402344 88.292969c-16.761719 0-30.347656 13.589843-30.347656 30.351562v22.191407c0 16.761718 13.585937 30.347656 30.347656 30.347656 16.761718 0 30.351562-13.585938 30.351562-30.347656v-22.191407c0-16.761719-13.589844-30.351562-30.351562-30.351562zm0 0" fill="#ef9218"/><path d="m134.703125 88.292969c-16.761719 0-30.347656 13.589843-30.347656 30.351562v22.191407c0 16.761718 13.585937 30.347656 30.347656 30.347656s30.351563-13.585938 30.351563-30.347656v-22.191407c0-16.761719-13.589844-30.351562-30.351563-30.351562zm0 0" fill="#bc0f31"/><path d="m73.148438 88.304688c-16.53125.453124-29.496094 14.433593-29.496094 30.96875v20.929687c0 16.539063 12.964844 30.515625 29.496094 30.972656 17.152343.46875 31.203124-13.292969 31.203124-30.339843v-22.191407c.003907-17.046875-14.050781-30.808593-31.203124-30.339843zm0 0" fill="#ef9218"/><path d="m440.921875 27.59375h-369.84375c-7.621094 0-13.796875-6.179688-13.796875-13.796875 0-7.621094 6.175781-13.796875 13.796875-13.796875h369.84375c7.621094 0 13.796875 6.175781 13.796875 13.796875 0 7.617187-6.175781 13.796875-13.796875 13.796875zm0 0" fill="#e8eeef"/><path d="m151.46875 13.796875c0-7.621094 6.175781-13.796875 13.796875-13.796875h-94.1875c-7.621094 0-13.796875 6.175781-13.796875 13.796875s6.175781 13.796875 13.792969 13.796875h94.1875c-7.617188 0-13.792969-6.179688-13.792969-13.796875zm0 0" fill="#c8cdce"/><path d="m471.273438 335.335938c-21.382813 0-409.234376 0-430.546876 0-7.621093 0-13.796874 6.175781-13.796874 13.796874 0 7.621094 6.175781 13.796876 13.796874 13.796876h430.546876c7.621093 0 13.796874-6.175782 13.796874-13.796876 0-7.621093-6.175781-13.796874-13.796874-13.796874zm0 0" fill="#e8eeef"/><path d="m151.46875 349.132812c0-7.621093 6.175781-13.796874 13.792969-13.796874-65.304688 0-117.121094 0-124.535157 0-7.621093 0-13.796874 6.175781-13.796874 13.796874 0 7.617188 6.175781 13.796876 13.796874 13.796876h124.535157c-7.617188 0-13.792969-6.179688-13.792969-13.796876zm0 0" fill="#c8cdce"/><path d="m231.296875 232.777344c-5.71875-9.902344-18.382813-13.296875-28.285156-7.578125-9.902344 5.714843-13.296875 18.378906-7.578125 28.28125 5.71875 9.902343 18.378906 13.296875 28.285156 7.578125 9.902344-5.71875 13.292969-18.378906 7.578125-28.28125zm0 0" fill="#f6c952"/><path d="m213.371094 243.136719c-3.832032-6.632813-3.554688-14.496094.007812-20.691407-3.523437-.003906-7.09375.871094-10.363281 2.757813-9.902344 5.71875-13.292969 18.382813-7.578125 28.285156 5.71875 9.902344 18.382812 13.296875 28.285156 7.578125 3.269532-1.886718 5.8125-4.542968 7.566406-7.59375-7.144531-.011718-14.089843-3.703125-17.917968-10.335937zm0 0" fill="#edaa24"/><path d="m252.003906 268.480469c-5.71875-9.902344-18.382812-13.296875-28.285156-7.578125s-13.292969 18.378906-7.578125 28.285156c5.71875 9.902344 18.382813 13.292969 28.285156 7.574219 9.902344-5.714844 13.292969-18.378907 7.578125-28.28125zm0 0" fill="#f6c952"/><path d="m234.078125 278.839844c-3.832031-6.632813-3.554687-14.496094.007813-20.6875-3.519532-.007813-7.089844.867187-10.359376 2.757812-9.90625 5.71875-13.296874 18.378906-7.582031 28.28125 5.71875 9.90625 18.382813 13.296875 28.285157 7.582032 3.269531-1.890626 5.8125-4.542969 7.570312-7.597657-7.144531-.011719-14.09375-3.703125-17.921875-10.335937zm0 0" fill="#edaa24"/><path d="m272.710938 304.269531c-5.71875-9.902343-18.378907-13.296875-28.28125-7.578125-9.902344 5.71875-13.296876 18.378906-7.578126 28.28125 5.714844 9.90625 18.378907 13.296875 28.28125 7.578125 9.902344-5.714843 13.296876-18.378906 7.578126-28.28125zm0 0" fill="#f6c952"/><path d="m254.785156 314.628906c-3.828125-6.632812-3.550781-14.496094.011719-20.6875-3.523437-.003906-7.09375.871094-10.363281 2.757813-9.902344 5.71875-13.296875 18.378906-7.578125 28.285156 5.71875 9.902344 18.378906 13.292969 28.285156 7.578125 3.269531-1.886719 5.8125-4.542969 7.566406-7.59375-7.144531-.011719-14.089843-3.707031-17.921875-10.339844zm0 0" fill="#edaa24"/><path d="m210.585938 197.050781c-5.71875-9.902343-18.378907-13.296875-28.28125-7.578125-9.902344 5.71875-13.296876 18.382813-7.578126 28.285156 5.714844 9.902344 18.378907 13.292969 28.28125 7.578126 9.902344-5.71875 13.296876-18.382813 7.578126-28.285157zm0 0" fill="#f6c952"/><path d="m192.660156 207.410156c-3.828125-6.632812-3.554687-14.496094.011719-20.691406-3.523437-.003906-7.09375.871094-10.363281 2.757812-9.902344 5.71875-13.296875 18.382813-7.578125 28.285157 5.714843 9.902343 18.378906 13.296875 28.28125 7.578125 3.269531-1.886719 5.8125-4.539063 7.570312-7.59375-7.144531-.011719-14.09375-3.703125-17.921875-10.335938zm0 0" fill="#edaa24"/><path d="m189.878906 232.777344c-5.71875-9.902344-18.382812-13.296875-28.285156-7.578125-9.902344 5.714843-13.292969 18.378906-7.578125 28.28125 5.71875 9.902343 18.382813 13.296875 28.285156 7.578125 9.902344-5.71875 13.296875-18.378906 7.578125-28.28125zm0 0" fill="#f6c952"/><path d="m171.953125 243.136719c-3.832031-6.632813-3.554687-14.496094.007813-20.691407-3.523438-.003906-7.09375.871094-10.363282 2.757813-9.902344 5.71875-13.292968 18.382813-7.578125 28.285156 5.71875 9.902344 18.382813 13.296875 28.285157 7.578125 3.269531-1.886718 5.8125-4.542968 7.566406-7.59375-7.140625-.011718-14.089844-3.703125-17.917969-10.335937zm0 0" fill="#edaa24"/><path d="m210.585938 268.480469c-5.714844-9.902344-18.378907-13.296875-28.28125-7.578125-9.902344 5.71875-13.296876 18.378906-7.578126 28.28125 5.714844 9.90625 18.378907 13.296875 28.28125 7.578125 9.902344-5.714844 13.296876-18.378907 7.578126-28.28125zm0 0" fill="#f6c952"/><path d="m192.660156 278.839844c-3.828125-6.632813-3.554687-14.496094.011719-20.6875-3.523437-.007813-7.09375.867187-10.363281 2.757812-9.902344 5.71875-13.296875 18.378906-7.578125 28.28125 5.714843 9.90625 18.378906 13.296875 28.28125 7.582032 3.269531-1.890626 5.8125-4.542969 7.570312-7.597657-7.144531-.011719-14.089843-3.703125-17.921875-10.335937zm0 0" fill="#edaa24"/><path d="m231.296875 304.269531c-5.71875-9.902343-18.382813-13.296875-28.285156-7.578125-9.902344 5.71875-13.296875 18.378906-7.578125 28.28125s18.382812 13.296875 28.285156 7.578125c9.902344-5.714843 13.292969-18.378906 7.578125-28.28125zm0 0" fill="#f6c952"/><path d="m213.371094 314.628906c-3.832032-6.632812-3.554688-14.496094.007812-20.6875-3.523437-.003906-7.09375.871094-10.363281 2.757813-9.902344 5.71875-13.292969 18.378906-7.578125 28.285156 5.71875 9.902344 18.382812 13.292969 28.285156 7.578125 3.269532-1.886719 5.8125-4.542969 7.566406-7.59375-7.144531-.011719-14.089843-3.707031-17.917968-10.339844zm0 0" fill="#edaa24"/><path d="m169.183594 268.480469c-5.71875-9.902344-18.378906-13.296875-28.28125-7.578125-9.90625 5.71875-13.296875 18.378906-7.578125 28.28125 5.714843 9.90625 18.378906 13.296875 28.28125 7.578125 9.902343-5.714844 13.296875-18.378907 7.578125-28.28125zm0 0" fill="#f6c952"/><path d="m151.257812 278.839844c-3.832031-6.632813-3.554687-14.496094.007813-20.6875-3.523437-.007813-7.089844.867187-10.363281 2.757812-9.902344 5.71875-13.292969 18.378906-7.578125 28.28125 5.71875 9.90625 18.382812 13.296875 28.285156 7.582032 3.269531-1.890626 5.8125-4.542969 7.570313-7.597657-7.144532-.011719-14.09375-3.703125-17.921876-10.335937zm0 0" fill="#edaa24"/><path d="m189.890625 304.269531c-5.714844-9.902343-18.378906-13.296875-28.28125-7.578125s-13.296875 18.378906-7.578125 28.28125c5.71875 9.90625 18.378906 13.296875 28.28125 7.578125 9.90625-5.714843 13.296875-18.378906 7.578125-28.28125zm0 0" fill="#f6c952"/><path d="m171.964844 314.628906c-3.828125-6.632812-3.554688-14.496094.011718-20.6875-3.523437-.003906-7.09375.871094-10.363281 2.757813-9.902343 5.71875-13.296875 18.378906-7.578125 28.285156 5.71875 9.902344 18.378906 13.292969 28.28125 7.578125 3.273438-1.886719 5.816406-4.542969 7.570313-7.59375-7.144531-.011719-14.089844-3.707031-17.921875-10.339844zm0 0" fill="#edaa24"/><path d="m148.476562 304.269531c-5.71875-9.902343-18.382812-13.296875-28.285156-7.578125s-13.292968 18.378906-7.578125 28.28125c5.71875 9.90625 18.382813 13.296875 28.285157 7.578125 9.902343-5.714843 13.292968-18.378906 7.578124-28.28125zm0 0" fill="#f6c952"/><path d="m130.546875 314.628906c-3.828125-6.632812-3.554687-14.496094.011719-20.6875-3.523438-.003906-7.09375.871094-10.363282 2.757813-9.902343 5.71875-13.296874 18.378906-7.578124 28.285156 5.71875 9.902344 18.378906 13.292969 28.28125 7.578125 3.273437-1.886719 5.816406-4.542969 7.570312-7.59375-7.144531-.011719-14.089844-3.707031-17.921875-10.339844zm0 0" fill="#edaa24"/></svg>