<?xml version="1.0" encoding="iso-8859-1"?>
<!-- Generator: Adobe Illustrator 19.0.0, SVG Export Plug-In . SVG Version: 6.00 Build 0)  -->
<svg version="1.1" id="Capa_1" xmlns="http://www.w3.org/2000/svg" xmlns:xlink="http://www.w3.org/1999/xlink" x="0px" y="0px"
	 viewBox="0 0 512 512" style="enable-background:new 0 0 512 512;" xml:space="preserve">
<circle style="fill:#C95757;" cx="256" cy="256" r="256"/>
<path style="fill:#A53D3D;" d="M437.019,74.981c-23.852-23.852-51.245-41.999-80.481-54.47
	c39.799,93.306,21.652,205.435-54.47,281.557s-188.252,94.269-281.557,54.47c12.471,29.237,30.618,56.629,54.47,80.481
	c99.974,99.974,262.065,99.974,362.039,0S536.994,174.955,437.019,74.981z"/>
<circle style="fill:#FFE4CC;" cx="256" cy="256" r="247.15"/>
<path style="fill:#FFD8C7;" d="M430.759,81.235c-20.798-20.798-44.385-37.103-69.553-48.938
	c33.5,90.824,13.8,196.828-59.143,269.771s-178.947,92.643-269.771,59.143c11.835,25.168,28.14,48.755,48.939,69.553
	c96.52,96.52,253.009,96.52,349.529,0S527.279,177.755,430.759,81.235z"/>
<circle style="fill:#FFF0E3;" cx="256" cy="256" r="187.32"/>
<path style="fill:#FFE8DE;" d="M388.453,123.547c-3.739-3.739-7.602-7.275-11.566-10.632c2.163,68.2-22.768,137.096-74.825,189.153
	c-52.055,52.055-120.946,76.986-189.143,74.825c3.355,3.962,6.89,7.823,10.627,11.56c73.152,73.152,191.755,73.152,264.906,0
	S461.605,196.699,388.453,123.547z"/>
<circle style="fill:#FF5331;" cx="153.69" cy="247.15" r="113.19"/>
<path style="fill:#E5281A;" d="M138.935,273.634c-7.026-6.255-11.621-16.572-11.621-28.25s4.594-21.995,11.621-28.25v-55.002
	c-39.267,7.387-68.982,41.839-68.982,83.252c0,41.412,29.715,75.864,68.982,83.252V273.634z"/>
<path style="fill:#FFFFFF;stroke:#000000;stroke-width:15;stroke-linecap:round;stroke-linejoin:round;stroke-miterlimit:10;" d="
	M167.115,161.562v53.034c8.872,5.716,14.952,17.352,14.952,30.788c0,13.436-6.08,25.072-14.952,30.788v53.034
	c40.908-6.012,72.313-41.244,72.313-83.822C239.428,202.807,208.023,167.574,167.115,161.562z"/>
<circle style="fill:#E3B361;" cx="101.9" cy="243.77" r="8.245"/>
<circle cx="191.68" cy="199.43" r="8.245"/>
<circle cx="208.17" cy="227.28" r="8.245"/>
<circle cx="208.17" cy="260.26" r="8.245"/>
<circle cx="191.68" cy="286.64" r="8.245"/>
<circle style="fill:#E3B361;" cx="112.69" cy="284.77" r="8.245"/>
<path style="fill:#EF4B30;" d="M266.732,246.849c0-39.213-19.943-73.766-50.236-94.079L66.957,319.752
	c20.764,24.634,51.842,40.29,86.582,40.29C216.054,360.042,266.732,309.364,266.732,246.849z"/>
<path style="fill:#D31E1A;" d="M138.935,328.636v-55.002c-5.618-5.001-9.673-12.602-11.076-21.415l-40.241,44.935
	C100.06,313.238,118.159,324.727,138.935,328.636z"/>
<path style="fill:#EF4B30;" d="M153.692,133.959c-13.335,0-26.127,2.313-38.008,6.547c-4.286,11.944-6.627,24.815-6.627,38.234
	c0,62.515,50.678,113.193,113.193,113.193c13.335,0,26.127-2.313,38.008-6.547c4.286-11.944,6.627-24.815,6.627-38.234
	C266.884,184.637,216.206,133.959,153.692,133.959z"/>
<path style="fill:#D31E1A;" d="M127.563,240.774c1.033-9.756,5.287-18.222,11.372-23.639v-55.002
	c-10.786,2.029-20.843,6.111-29.77,11.807c-0.067,1.593-0.108,3.192-0.108,4.801C109.057,201.646,115.867,222.957,127.563,240.774z"
	/>
<circle style="fill:#E3B361;" cx="112.69" cy="206.12" r="8.245"/>
<circle style="fill:#FF5331;" cx="239.43" cy="161.56" r="113.19"/>
<g>
	<path style="fill:#E5281A;" d="M224.672,188.044c-7.026-6.255-11.621-16.572-11.621-28.25s4.594-21.995,11.621-28.25V76.543
		c-39.267,7.387-68.982,41.839-68.982,83.252c0,41.412,29.715,75.864,68.982,83.252V188.044z"/>
	<path style="fill:#E5281A;" d="M252.851,75.973v53.034c8.872,5.716,14.952,17.352,14.952,30.788
		c0,13.436-6.079,25.072-14.952,30.788v53.034c40.908-6.012,72.313-41.244,72.313-83.822S293.759,81.985,252.851,75.973z"/>
</g>
<g>
	<circle style="fill:#E3B361;" cx="198.43" cy="120.53" r="8.245"/>
	<circle style="fill:#E3B361;" cx="187.63" cy="158.18" r="8.245"/>
</g>
<path style="fill:#F7C96F;" d="M413.742,393.695L413.742,393.695c-75.656,84.481-205.472,91.635-289.953,15.979L78.907,369.48
	c-6.875-6.157-7.457-16.721-1.3-23.595L329.286,64.849c6.157-6.875,16.721-7.457,23.595-1.3l44.882,40.194
	C482.244,179.398,489.398,309.214,413.742,393.695z"/>
<path style="fill:#EF4B30;" d="M296.564,63.835l-147.989,165.25c20.632,27.715,53.645,45.669,90.852,45.669
	c62.514,0,113.193-50.678,113.193-113.193C352.621,119.89,330.097,83.483,296.564,63.835z"/>
<path style="fill:#D31E1A;" d="M325.164,159.795c0-33.125-19.013-61.797-46.716-75.73l-25.597,28.583v16.359
	c8.872,5.716,14.952,17.352,14.952,30.788c0,13.436-6.08,25.072-14.952,30.788v53.034
	C293.759,237.604,325.164,202.372,325.164,159.795z"/>
<circle style="fill:#E3B361;" cx="277.41" cy="113.84" r="8.245"/>
<path style="fill:#D31E1A;" d="M169.339,205.901c12.379,19.036,32.194,32.792,55.333,37.145v-55.002
	c-7.026-6.255-11.62-16.572-11.62-28.25c0-0.95,0.041-1.887,0.101-2.817L169.339,205.901z"/>
<path style="fill:#EFBB60;" d="M381.555,361.722l-4.937,5.512c-74.293,82.958-201.77,89.983-284.728,15.691l0,0
	c-6.061-5.427-6.574-14.74-1.146-20.801L345.064,78.14c5.427-6.061,14.74-6.574,20.801-1.146l0,0
	C448.823,151.286,455.848,278.764,381.555,361.722z"/>
<path style="fill:#FEDE7A;" d="M366.79,346.957l-4.937,5.512c-74.293,82.958-201.77,89.983-284.728,15.691l0,0
	c-6.061-5.428-6.574-14.74-1.146-20.801l254.32-283.984c5.428-6.061,14.74-6.574,20.801-1.146l0,0
	C434.058,136.521,441.083,263.999,366.79,346.957z"/>
<g>
	<path style="fill:#F8ACCC;" d="M333.772,216.955h-17.983c-2.218,0-4.017-1.798-4.017-4.016v-17.983
		c0-2.218,1.798-4.016,4.017-4.016h17.983c2.218,0,4.017,1.798,4.017,4.016v17.983C337.788,215.157,335.99,216.955,333.772,216.955z
		"/>
	<path style="fill:#F8ACCC;" d="M239.615,266.14l-8.992-15.574c-1.109-1.921-0.451-4.378,1.47-5.487l15.574-8.992
		c1.921-1.109,4.378-0.451,5.487,1.47l8.992,15.574c1.109,1.921,0.451,4.378-1.47,5.487l-15.574,8.992
		C243.181,268.72,240.724,268.061,239.615,266.14z"/>
	<path style="fill:#F8ACCC;" d="M289.02,431.71l1.369-17.931c0.169-2.212,2.099-3.868,4.311-3.699l17.931,1.369
		c2.212,0.169,3.868,2.099,3.699,4.311l-1.369,17.931c-0.169,2.212-2.099,3.868-4.311,3.699l-17.931-1.369
		C290.507,435.852,288.851,433.922,289.02,431.71z"/>
</g>
<path style="fill:#EFA8C9;" d="M315.827,413.491c-0.635-1.132-1.805-1.936-3.196-2.042L294.7,410.08
	c-2.212-0.169-4.142,1.487-4.31,3.699l-0.799,10.455C298.534,421.292,307.302,417.705,315.827,413.491z"/>
<path style="fill:#F8ACCC;" d="M377.509,350.525l1.369-17.931c0.169-2.212,2.099-3.868,4.311-3.699l17.931,1.369
	c2.212,0.169,3.868,2.099,3.699,4.311l-1.369,17.931c-0.169,2.212-2.099,3.868-4.311,3.699l-17.931-1.369
	C378.997,354.667,377.34,352.737,377.509,350.525z"/>
<path style="fill:#EFA8C9;" d="M403.854,331.646c-0.669-0.775-1.632-1.297-2.733-1.381l-17.931-1.369
	c-2.212-0.169-4.142,1.487-4.311,3.699l-1.369,17.931c-0.169,2.212,1.487,4.142,3.699,4.311l5.858,0.447
	C393.302,347.713,398.897,339.812,403.854,331.646z"/>
<path style="fill:#F8ACCC;" d="M414.699,259.824l1.369-17.931c0.169-2.212,2.099-3.868,4.311-3.699l17.931,1.369
	c2.212,0.169,3.868,2.099,3.699,4.311l-1.369,17.931c-0.169,2.212-2.099,3.868-4.311,3.699l-17.931-1.369
	C416.186,263.966,414.53,262.036,414.699,259.824z"/>
<path style="fill:#EFA8C9;" d="M420.379,238.194c-2.212-0.169-4.142,1.487-4.311,3.699l-1.369,17.931
	c-0.169,2.212,1.487,4.142,3.699,4.311l11.041,0.843c1.623-8.557,2.683-17.192,3.19-25.848L420.379,238.194z"/>
<g>
	<path style="fill:#F8ACCC;" d="M253.229,354.081l1.369-17.931c0.169-2.212,2.099-3.868,4.311-3.699l17.931,1.369
		c2.212,0.169,3.868,2.099,3.699,4.311l-1.369,17.931c-0.169,2.212-2.099,3.868-4.311,3.699l-17.931-1.369
		C254.717,358.223,253.06,356.293,253.229,354.081z"/>
	<path style="fill:#F8ACCC;" d="M322.585,273.192l13.899-11.411c1.714-1.408,4.245-1.159,5.653,0.556l11.411,13.899
		c1.408,1.714,1.159,4.245-0.556,5.653L339.093,293.3c-1.714,1.408-4.245,1.159-5.653-0.556l-11.411-13.899
		C320.621,277.131,320.87,274.6,322.585,273.192z"/>
</g>
<g>
	<circle style="fill:#965225;" cx="195.4" cy="309.49" r="7.805"/>
	<circle style="fill:#965225;" cx="285.22" cy="293.02" r="7.805"/>
	<circle style="fill:#965225;" cx="329.98" cy="420.94" r="7.805"/>
	<circle style="fill:#965225;" cx="362.9" cy="408.98" r="7.805"/>
	<circle style="fill:#965225;" cx="393.22" cy="382.37" r="7.805"/>
	<circle style="fill:#965225;" cx="242.05" cy="436.55" r="7.805"/>
	<circle style="fill:#965225;" cx="362.9" cy="382.37" r="7.805"/>
	<circle style="fill:#965225;" cx="425.7" cy="286.64" r="7.805"/>
	<circle style="fill:#965225;" cx="441.31" cy="211.23" r="7.805"/>
	<circle style="fill:#965225;" cx="425.7" cy="325.1" r="7.805"/>
	<circle style="fill:#965225;" cx="375.76" cy="235.08" r="7.805"/>
	<circle style="fill:#965225;" cx="272.41" cy="206.12" r="7.805"/>
	<circle style="fill:#965225;" cx="324.78" cy="162.13" r="7.805"/>
</g>
<path style="fill:#49BC6E;" d="M270.492,189.688c-2.511-6.316-7.221-11.1-12.9-13.829c3.596-6.562,4.347-14.618,1.367-22.115
	l-5.462-13.741c-0.349-0.878-1.344-1.307-2.222-0.958l-17.089,6.792c-7.472,2.97-12.802,9.017-15.118,16.106
	c-5.196-1.375-10.861-1.16-16.239,0.978l-17.089,6.792c-0.878,0.349-1.307,1.344-0.958,2.222l5.462,13.741
	c5.305,13.347,20.425,19.866,33.772,14.561l0.998-0.397c5.949,12.01,20.216,17.64,32.891,12.602l18.679-7.424L270.492,189.688z"/>
<path style="fill:#3DA55D;" d="M240.438,170.862l-24.921,0.877c-10.267,0.361-19.472,4.633-26.244,11.329
	c-0.036-0.04-0.074-0.078-0.111-0.118l1.084,2.727c5.305,13.347,20.425,19.866,33.772,14.561l0.998-0.397
	c3.175,6.409,8.719,10.999,15.126,13.123c1.018-3.73,1.508-7.672,1.364-11.74L240.438,170.862z"/>
<path style="fill:#49BC6E;" d="M206.837,187.325c-10.267,0.361-19.472,4.633-26.243,11.329
	c-7.512-8.455-18.596-13.621-30.783-13.193l-22.337,0.786c-1.427,0.05-2.544,1.248-2.493,2.675l0.978,27.778
	c0.427,12.146,6.324,22.808,15.237,29.709c-4.6,6.696-7.174,14.869-6.867,23.612l0.978,27.778c0.05,1.427,1.248,2.543,2.675,2.493
	l22.337-0.786c21.696-0.764,38.664-18.97,37.901-40.666l-0.057-1.622c20.12-2.36,35.39-19.805,34.664-40.408l-1.069-30.362
	L206.837,187.325z"/>
<g>
</g>
<g>
</g>
<g>
</g>
<g>
</g>
<g>
</g>
<g>
</g>
<g>
</g>
<g>
</g>
<g>
</g>
<g>
</g>
<g>
</g>
<g>
</g>
<g>
</g>
<g>
</g>
<g>
</g>
</svg>
