<svg id="Capa_1" enable-background="new 0 0 512 512" height="512" viewBox="0 0 512 512" width="512" xmlns="http://www.w3.org/2000/svg"><g><g><g><g><circle cx="256" cy="256" fill="#ffb54c" r="256"/></g></g></g><path d="m507.812 302.305-106.757-106.757-24.572 24.572-115.605-115.605-67.241 214.833-49.543 49.543 25.923 25.923-6.588 21.05 96.091 96.091c123.998-1.672 226.703-91.488 248.292-209.65z" fill="#ff9e00"/><g><g><path d="m206.239 180.943c-9.429-9.429-23.352-11.614-34.872-6.571-1.095-1.523-2.321-2.981-3.69-4.351-13.665-13.665-35.82-13.665-49.484 0-13.665 13.665-13.665 35.82 0 49.484 1.37 1.37 2.828 2.595 4.351 3.691-5.043 11.521-2.859 25.443 6.571 34.872 9.429 9.429 23.352 11.614 34.872 6.571 1.095 1.523 2.321 2.981 3.69 4.351 13.665 13.665 35.819 13.665 49.484 0s13.665-35.819 0-49.484c-1.37-1.37-2.828-2.595-4.351-3.69 5.042-11.521 2.858-25.443-6.571-34.873z" fill="#91bd00"/><path d="m217.16 219.506c-1.37-1.37-2.828-2.595-4.351-3.69 5.043-11.521 2.859-25.443-6.571-34.872-9.429-9.429-23.352-11.614-34.872-6.571-1.095-1.523-2.321-2.981-3.69-4.351-13.665-13.665-35.82-13.665-49.484 0l98.968 98.968c13.665-13.664 13.665-35.819 0-49.484z" fill="#688b13"/></g><g><path d="m290.535 164.111c0-13.335-8.3-24.724-20.012-29.305.303-1.851.467-3.749.467-5.686 0-19.325-15.666-34.991-34.991-34.991s-34.991 15.666-34.991 34.991c0 1.937.164 3.835.467 5.686-11.712 4.58-20.012 15.97-20.012 29.305s8.3 24.724 20.012 29.305c-.303 1.851-.467 3.749-.467 5.686 0 19.325 15.666 34.991 34.991 34.991s34.991-15.666 34.991-34.991c0-1.937-.164-3.835-.467-5.686 11.712-4.581 20.012-15.97 20.012-29.305z" fill="#91bd00"/><path d="m270.989 199.101c0-1.937-.164-3.835-.467-5.686 11.712-4.581 20.012-15.97 20.012-29.305s-8.3-24.724-20.012-29.305c.303-1.851.467-3.749.467-5.686 0-19.325-15.666-34.991-34.991-34.991v139.962c19.326.002 34.991-15.664 34.991-34.989z" fill="#688b13"/></g><g><g><path d="m382.745 210.615-92.078-92.078c-25.426 25.426-25.426 66.651 0 92.078 25.427 25.427 66.651 25.427 92.078 0z" fill="#f7f9fa"/><path d="m290.667 210.615c25.427 25.427 66.651 25.427 92.078 0l-46.039-46.039z" fill="#e5eaee"/></g><g><path d="m365.985 193.855-58.558-58.558c-16.17 16.17-16.17 42.388 0 58.558 16.17 16.171 42.388 16.171 58.558 0z" fill="#fff26c"/><path d="m307.427 193.855c16.17 16.17 42.388 16.17 58.558 0l-29.279-29.279z" fill="#ffe906"/></g></g><g><path d="m255.292 145.127-112.567 112.567c31.084 31.084 81.483 31.084 112.567 0 31.084-31.085 31.084-81.483 0-112.567z" fill="#e40058"/><path d="m255.292 257.694c31.085-31.085 31.085-81.483 0-112.567l-56.284 56.284z" fill="#c40048"/></g><g><path d="m391.564 272.059c8.194-8.194 10.092-20.292 5.71-30.303 1.323-.952 2.591-2.017 3.781-3.207 11.874-11.874 11.874-31.127 0-43.001s-31.127-11.874-43.001 0c-1.19 1.19-2.255 2.457-3.207 3.781-10.011-4.382-22.109-2.484-30.303 5.71s-10.092 20.292-5.71 30.303c-1.323.952-2.59 2.017-3.781 3.207-11.874 11.874-11.874 31.126 0 43.001 11.874 11.874 31.126 11.874 43.001 0 1.19-1.19 2.255-2.457 3.207-3.781 10.011 4.382 22.109 2.484 30.303-5.71z" fill="#91bd00"/><path d="m358.054 281.549c1.19-1.19 2.255-2.457 3.207-3.781 10.011 4.382 22.11 2.484 30.304-5.71s10.092-20.292 5.71-30.303c1.323-.952 2.591-2.017 3.781-3.207 11.874-11.874 11.874-31.127 0-43.001l-86.002 86.002c11.873 11.875 31.126 11.875 43 0z" fill="#688b13"/></g><g><path d="m330.341 226.178c0 21.835-39.536 128.066-39.536 128.066s-39.536-106.231-39.536-128.066 17.701-39.536 39.536-39.536 39.536 17.701 39.536 39.536z" fill="#ff712f"/><path d="m330.341 226.178c0-21.835-17.701-39.536-39.536-39.536v167.602s39.536-106.23 39.536-128.066z" fill="#ff4b00"/></g><path d="m417.713 252.157c0 89.312-72.402 161.713-161.713 161.713s-161.713-72.401-161.713-161.713z" fill="#e5f2fa"/><path d="m417.713 252.157c0 89.312-72.402 161.713-161.713 161.713v-161.713z" fill="#cee9f8"/><g><path d="m163.418 384.676h185.164v31.194h-185.164z" fill="#cee9f8"/><path d="m163.418 384.676h92.582v31.194h-92.582z" fill="#e5f2fa"/></g></g></g></svg>