<svg viewBox="0 0 512 512" xmlns="http://www.w3.org/2000/svg"><path d="m512 256c0 141.386719-114.613281 256-256 256s-256-114.613281-256-256 114.613281-256 256-256 256 114.613281 256 256zm0 0" fill="#f18bc3"/><path d="m458.316406 277.84375c0 123.796875-100.359375 224.15625-224.160156 224.15625-123.796875 0-224.15625-100.359375-224.15625-224.15625 0-123.800781 100.359375-224.160156 224.15625-224.160156s224.160156 100.359375 224.160156 224.160156zm0 0" fill="#9bb9c3"/><path d="m234.15625 43.683594c-125.722656 0-228.289062 99.085937-233.902344 223.425781 5.660156 132.542969 112.09375 238.976563 244.636719 244.636719 124.335937-5.613282 223.421875-108.179688 223.421875-233.902344.003906-129.324219-104.832031-234.160156-234.15625-234.160156zm0 434.953125c-110.894531 0-200.792969-89.898438-200.792969-200.792969s89.898438-200.792969 200.792969-200.792969 200.792969 89.898438 200.792969 200.792969-89.898438 200.792969-200.792969 200.792969zm0 0" fill="#b4d2d7"/><path d="m254.523438 511.097656c-3.195313.273438-6.402344.503906-9.632813.648438-132.542969-5.660156-238.976563-112.09375-244.636719-244.636719 5.613282-124.339844 108.179688-223.425781 233.902344-223.425781 3.300781 0 6.578125.085937 9.847656.222656-1.265625.054688-2.523437.113281-3.78125.1875-194.101562 11.183594-284.253906 245.011719-151.3125 386.882812 42.175782 45.011719 100.4375 74.769532 165.613282 80.121094zm0 0" fill="#9bb9c3"/><path d="m371.027344 260.675781c-1.246094.441407-2.5.839844-3.753906 1.21875.574218 1.589844 1.035156 3.203125 1.351562 4.835938 4.332031 22.46875-18.140625 40.191406-50.707031 40.695312-26.890625 22.726563-62.816407 30.8125-84.144531 18.6875-22.617188 12.855469-61.648438 2.996094-88.914063-22.949219-28.234375-26.871093-33.148437-60.816406-10.976563-75.820312 1.550782-1.046875 3.203126-1.964844 4.929688-2.777344-.699219-1.300781-1.378906-2.617187-2.023438-3.960937-16.152343-33.800781-7.660156-67.191407 18.96875-74.570313 8.5-2.355468 17.816407-1.769531 27.09375 1.207032 3.066407-32.246094 24.6875-57.242188 50.921876-57.242188 14.03125 0 26.742187 7.15625 36 18.746094 11.785156-9.332032 25.84375-11.679688 38.242187-4.664063 6.808594 3.855469 12.289063 10.070313 16.238281 17.757813 22.160156-18.308594 51.410156-20.425782 67.871094-3.964844s14.34375 45.710938-3.964844 67.871094c7.6875 3.949218 13.902344 9.429687 17.757813 16.238281 12.074219 21.339844-3.546875 47.621094-34.890625 58.691406zm0 0" fill="#509c49"/><path d="m322.683594 303.164062c-14.3125 13.621094-31.867188 22.800782-48.589844 26.597657 7.425781-4.261719 14.570312-9.503907 21.046875-15.667969 28.234375-26.871094 33.148437-60.816406 10.976563-75.820312-1.550782-1.046876-3.203126-1.964844-4.929688-2.777344.699219-1.300782 1.378906-2.617188 2.023438-3.960938 16.152343-33.800781 7.660156-67.1875-18.96875-74.570312-5.574219-1.546875-11.503907-1.824219-17.539063-.992188-5.121094.707032-9.980469-2.589844-11.101563-7.636718-6.082031-27.355469-25.878906-47.40625-49.375-47.40625-.3125 0-.617187.019531-.929687.027343 8.148437-6.917969 17.9375-10.957031 28.476563-10.957031 24.726562 0 45.355468 22.207031 50.210937 51.765625.460937 2.789063 3.171875 4.671875 5.929687 4.058594 7.523438-1.671875 14.96875-1.703125 21.871094.210937 26.628906 7.382813 35.121094 40.769532 18.96875 74.570313-.640625 1.34375-1.324218 2.660156-2.019531 3.960937 1.722656.8125 3.375 1.730469 4.929687 2.78125 22.171876 15 17.253907 48.945313-10.980468 75.816406zm0 0" fill="#46853e"/><path d="m283.742188 234.226562c-.273438 11.15625-2.292969 22.035157-5.636719 32.011719 3.347656 15.007813 2.339843 29.324219-3.722657 39.988281 12.855469 22.617188 2.996094 61.648438-22.949218 88.914063-26.871094 28.234375-60.820313 33.148437-75.820313 10.976563-1.050781-1.550782-1.964843-3.203126-2.777343-4.929688-1.300782.699219-2.617188 1.378906-3.960938 2.023438-33.804688 16.152343-67.191406 7.660156-74.570312-18.96875-2.359376-8.5-1.769532-17.816407 1.207031-27.09375-32.246094-3.066407-57.242188-24.6875-57.242188-50.921876 0-12.464843 5.648438-23.878906 15.03125-32.765624-4.621093-10.597657-4.554687-21.964844 1.300781-32.308594 4.339844-7.675782 11.347657-13.847656 20.011719-18.300782-20.632812-24.972656-23.019531-57.9375-4.472656-76.484374 18.550781-18.550782 51.511719-16.164063 76.488281 4.46875 4.453125-8.664063 10.625-15.667969 18.300782-20.011719 24.046874-13.609375 53.660156 3.992187 66.140624 39.316406.496094 1.40625.945313 2.816406 1.371094 4.230469 1.792969-.644532 3.613282-1.164063 5.453125-1.519532 26.285157-5.070312 46.8125 22.410157 45.847657 61.375zm0 0" fill="#b8eb6a"/><path d="m283.742188 234.226562c-.078126 3.171876-.308594 6.320313-.65625 9.429688-3.730469-31.117188-22.269532-51.449219-45.191407-47.027344-.460937.089844-.917969.1875-1.375.296875-2.308593.546875-4.632812-.695312-5.421875-2.933593-.007812-.023438-.015625-.046876-.027344-.070313-12.476562-35.324219-42.089843-52.929687-66.140624-39.320313-7.675782 4.34375-13.847657 11.347657-18.300782 20.011719-24.972656-20.632812-57.9375-23.019531-76.484375-4.46875-5.738281 5.734375-9.464843 12.851563-11.277343 20.683594-3.484376-16.789063.070312-33.253906 11.277343-44.460937 18.546875-18.550782 51.511719-16.164063 76.484375 4.472656 4.453125-8.664063 10.625-15.671875 18.300782-20.015625 24.050781-13.609375 53.664062 3.996093 66.140624 39.320312.496094 1.402344.945313 2.816407 1.375 4.230469 1.792969-.648438 3.609376-1.167969 5.449219-1.523438 26.285157-5.070312 46.8125 22.410157 45.847657 61.375zm-108.128907-27.886718c-1.050781 1.550781-1.964843 3.203125-2.777343 4.929687-1.300782-.699219-2.617188-1.378906-3.960938-2.023437-33.800781-16.152344-67.1875-7.660156-74.570312 18.96875-2.355469 8.5-1.769532 17.816406 1.210937 27.089844-32.25 3.070312-57.246094 24.691406-57.246094 50.925781 0 16.515625 9.914063 31.199219 25.300781 40.578125-3.636718-6.394532-5.664062-13.480469-5.664062-20.941406 0-26.234376 24.996094-47.855469 57.246094-50.921876-2.976563-9.277343-3.566406-18.59375-1.210938-27.09375 7.382813-26.628906 40.769532-35.121093 74.570313-18.964843 1.34375.640625 2.660156 1.320312 3.960937 2.019531.8125-1.726562 1.730469-3.378906 2.78125-4.929688 12.8125-18.9375 39.445313-18.097656 63.6875.140626-2.328125-3.039063-4.828125-5.984376-7.507812-8.800782-26.871094-28.234375-60.816406-33.152344-75.820313-10.976562zm0 0" fill="#a1e52e"/><path d="m120 270c0 5.523438-4.476562 10-10 10s-10-4.476562-10-10 4.476562-10 10-10 10 4.476562 10 10zm30-110c-5.523438 0-10 4.476562-10 10s4.476562 10 10 10 10-4.476562 10-10-4.476562-10-10-10zm110 50c-5.523438 0-10 4.476562-10 10s4.476562 10 10 10 10-4.476562 10-10-4.476562-10-10-10zm-60 10c-5.523438 0-10 4.476562-10 10s4.476562 10 10 10 10-4.476562 10-10-4.476562-10-10-10zm170-20c-5.523438 0-10 4.476562-10 10s4.476562 10 10 10 10-4.476562 10-10-4.476562-10-10-10zm0 0" fill="#31662b"/><path d="m284.277344 426.859375c-5.484375 2.496094-8.722656 7.363281-8.722656 12.496094v15.644531c0 8.523438-8.691407 15.390625-19.21875 14.984375-9.863282-.382813-17.449219-7.332031-17.449219-15.410156v-.09375c0-8.136719-8.183594-14.535157-18.125-14.480469-.070313 0-.136719 0-.207031 0-18.015626 0-32.390626-12.757812-30.363282-27.835938 1.527344-11.34375 67.992188-33.25 82.492188-32.027343 14.136718 1.191406 25.578125 10.476562 27.125 22.035156 1.417968 10.570313-5.222656 19.996094-15.53125 24.6875zm0 0" fill="#fdbf43"/><path d="m275.554688 453.984375v1.015625c0 8.523438-8.691407 15.390625-19.21875 14.984375-9.859376-.382813-17.445313-7.332031-17.445313-15.410156v-.09375c0-8.136719-8.183594-14.535157-18.128906-14.480469-.070313 0-.136719 0-.207031 0-18.015626 0-32.390626-12.761719-30.363282-27.835938.488282-3.621093 7.589844-8.316406 17.503906-12.992187.113282 13.730469 13.742188 24.832031 30.550782 24.832031h.207031c9.945313-.054687 18.125 6.347656 18.125 14.484375v.09375c0 8.078125 7.585937 15.027344 17.449219 15.40625.511718.019531 1.023437.007813 1.527344-.003906zm0 0" fill="#fcb30b"/><path d="m407.84375 384.519531c-6.503906 11.15625-15.691406 20.574219-27.074219 26.667969-19.105469 10.230469-41.636719 16.140625-65.769531 16.140625-3.648438 0-7.261719-.136719-10.828125-.402344-17.457031-1.296875-33.566406-9.472656-45.566406-22.214843-8.800781-9.34375-19.371094-17.390626-31.277344-23.757813-22.59375-12.089844-37.171875-35.386719-37.328125-61.007813 0-.191406 0-.382812 0-.574218 0-45.804688 33.03125-84.945313 79.648438-100.625 20.789062-6.992188 43.5-5.332032 63.246093 4.21875 13.726563 6.640625 30.710938 12.015625 44.871094 15.851562 35.496094 9.613282 61.160156 41.125 62.195313 77.882813.023437.890625.039062 1.78125.039062 2.671875 0 .125 0 .25-.003906.375-.066406 16.957031-6.511719 33.375-18.046875 45.808594-5.425781 5.851562-10.164063 12.207031-14.105469 18.964843zm0 0" fill="#8f4a4b"/><path d="m439.964844 316.699219c.023437.890625.035156 1.78125.035156 2.671875v.375c-.066406 16.957031-6.515625 33.375-18.046875 45.808594-5.429687 5.851562-10.167969 12.207031-14.109375 18.964843-6.503906 11.15625-15.691406 20.574219-27.074219 26.667969-14.355469 7.6875-30.648437 12.933594-48.097656 15.066406-15.289063-2.457031-29.269531-10.171875-39.976563-21.542968-8.800781-9.34375-19.371093-17.390626-31.273437-23.757813-22.59375-12.089844-37.175781-35.386719-37.328125-61.007813 0-.191406-.003906-.382812-.003906-.574218 0-45.804688 33.035156-84.945313 79.652344-100.625 3.070312-1.035156 6.1875-1.855469 9.328124-2.511719 6.808594 1.414063 13.46875 3.65625 19.824219 6.730469 13.726563 6.640625 30.714844 12.015625 44.871094 15.851562 35.496094 9.613282 61.164063 41.125 62.199219 77.882813zm0 0" fill="#b7696a"/><path d="m412.441406 337.152344-4.671875-3.570313 8.519531-8.515625c3.902344-3.90625 3.902344-10.238281 0-14.144531l-1.929687-1.925781c-3.90625-3.90625-10.238281-3.90625-14.140625 0l-10.664062 10.664062-26.867188-20.539062 19.105469-19.105469c3.90625-3.90625 3.90625-10.238281 0-14.144531l-1.925781-1.925782c-3.90625-3.90625-10.238282-3.90625-14.144532 0l-21.25 21.25-26.867187-20.535156 7.777343-7.777344c3.902344-3.902343 3.902344-10.234374 0-14.140624l-1.929687-1.929688c-3.90625-3.90625-10.238281-3.90625-14.144531 0l-9.917969 9.921875-11.503906-8.792969c-4.386719-3.351562-10.664063-2.515625-14.015625 1.871094l-1.65625 2.167969c-3.355469 4.386719-2.515625 10.664062 1.871094 14.019531l9.089843 6.949219-20.984375 20.980469-8.398437-6.417969c-4.386719-3.355469-10.664063-2.515625-14.015625 1.871093l-1.65625 2.167969c-3.355469 4.386719-2.515625 10.664063 1.871094 14.019531l5.984374 4.574219-8.15625 8.15625c-3.90625 3.90625-3.90625 10.238281 0 14.144531l1.925782 1.925782c3.90625 3.90625 10.238281 3.90625 14.144531 0l10.300781-10.304688 26.867188 20.539063-19.148438 19.152343c-3.90625 3.902344-3.90625 10.234376 0 14.140626l1.929688 1.925781c3.902344 3.90625 10.234375 3.90625 14.140625 0l21.296875-21.296875 26.867187 20.539062-13.097656 13.097656c-3.90625 3.90625-3.90625 10.238282 0 14.140626l1.929687 1.929687c3.902344 3.90625 10.234376 3.90625 14.140626 0l15.242187-15.242187 11.488281 8.777343c4.386719 3.355469 10.664063 2.515625 14.015625-1.871093l1.65625-2.167969c3.355469-4.386719 2.515625-10.664063-1.871093-14.015625l-9.074219-6.9375 20.984375-20.984375 7.078125 5.414062c4.390625 3.351563 10.664062 2.515625 14.019531-1.871093l1.65625-2.167969c3.351562-4.386719 2.515625-10.660157-1.871094-14.015625zm-132.035156-35.296875 20.984375-20.984375 26.867187 20.539062-20.984374 20.980469zm71.949219 55-26.867188-20.539063 20.984375-20.980468 26.867188 20.535156zm0 0" fill="#783d3e"/><path d="m250 375c0 46.945312-38.054688 85-85 85s-85-38.054688-85-85 38.054688-85 85-85 85 38.054688 85 85zm0 0" fill="#e84444"/><path d="m165 290c5.121094 0 10.128906.480469 15 1.347656-22.15625 3.945313-41.335938 16.476563-53.992188 34.023438 6.722657.949218 12.320313 5.886718 13.976563 12.632812l3.890625 15.871094-15.871094-3.890625c-4.902344-1.203125-8.847656-4.496094-11.003906-8.78125-3.125 7.203125-5.28125 14.917969-6.304688 22.988281 3.550782-.367187 7.226563.378906 10.453126 2.335938l13.980468 8.472656-13.980468 8.472656c-3.226563 1.953125-6.902344 2.703125-10.453126 2.332032 1.023438 8.074218 3.179688 15.789062 6.304688 22.988281 2.160156-4.285157 6.101562-7.574219 11.003906-8.777344l15.871094-3.894531-3.890625 15.875c-1.65625 6.746094-7.253906 11.683594-13.976563 12.632812 12.652344 17.546875 31.835938 30.078125 53.992188 34.023438-4.871094.871094-9.878906 1.347656-15 1.347656-46.945312 0-85-38.054688-85-85s38.054688-85 85-85zm0 70c-8.285156 0-15 6.714844-15 15s6.714844 15 15 15 15-6.714844 15-15-6.714844-15-15-15zm0-14.871094 8.472656-13.980468c4.011719-6.621094 2.984375-15.125-2.492187-20.601563-.015625-.019531-.035157-.035156-.050781-.054687-3.25-3.214844-8.613282-3.214844-11.859376 0-.019531.019531-.035156.035156-.054687.054687-5.472656 5.472656-6.5 13.980469-2.488281 20.601563zm0 59.742188-8.472656 13.980468c-4.011719 6.621094-2.984375 15.125 2.492187 20.601563.015625.019531.035157.035156.050781.054687 3.25 3.214844 8.613282 3.214844 11.859376 0 .019531-.019531.035156-.035156.054687-.054687 5.472656-5.472656 6.5-13.980469 2.488281-20.601563zm64.503906-35.800782c-.015625-.015624-.035156-.035156-.050781-.050781-5.476563-5.476562-13.980469-6.503906-20.601563-2.492187l-13.980468 8.472656 13.980468 8.472656c6.621094 4.011719 15.125 2.984375 20.601563-2.492187.019531-.015625.035156-.035157.054687-.050781 3.214844-3.246094 3.214844-8.613282-.003906-11.859376zm-27.507812 30.945313-15.875-3.894531 3.894531 15.875c1.84375 7.519531 8.585937 12.808594 16.328125 12.808594h.078125c4.570313-.019532 8.363281-3.8125 8.382813-8.382813 0-.027344 0-.050781 0-.074219 0-7.746094-5.289063-14.488281-12.808594-16.332031zm12.808594-66.359375c0-.027344 0-.050781 0-.078125-.019532-4.570313-3.816407-8.363281-8.386719-8.382813-.023438 0-.046875 0-.074219 0-7.742188 0-14.484375 5.289063-16.328125 12.808594l-3.894531 15.875 15.875-3.894531c7.519531-1.84375 12.808594-8.585937 12.808594-16.328125zm0 0" fill="#c92c2c"/><path d="m440 55c0 8.285156-6.714844 15-15 15h-115c-5.523438 0-10 4.476562-10 10s4.476562 10 10 10h55c8.285156 0 15 6.714844 15 15s-6.714844 15-15 15h-15c-5.523438 0-10 4.476562-10 10s4.476562 10 10 10h5c8.285156 0 15 6.714844 15 15s-6.714844 15-15 15h-40c-8.285156 0-15-6.714844-15-15s6.714844-15 15-15h5c5.523438 0 10-4.476562 10-10s-4.476562-10-10-10h-75c-8.285156 0-15-6.714844-15-15s6.714844-15 15-15h35c5.523438 0 10-4.476562 10-10s-4.476562-10-10-10h-5c-8.285156 0-15-6.714844-15-15s6.714844-15 15-15h150c8.285156 0 15 6.714844 15 15zm0 0" fill="#fff5f5"/></svg>