<svg id="Capa_1" enable-background="new 0 0 512 512" height="512" viewBox="0 0 512 512" width="512" xmlns="http://www.w3.org/2000/svg"><g><path d="m472.599 512h-248.66c-18.662 0-33.791-15.129-33.791-33.791v-444.418c0-18.662 15.129-33.791 33.791-33.791h248.66c18.662 0 33.791 15.129 33.791 33.791v444.418c0 18.662-15.129 33.791-33.791 33.791z" fill="#ffd2e7"/><path d="m506.392 33.786v444.428c0 18.656-15.128 33.784-33.794 33.784h-20.569c18.666 0 33.794-15.128 33.794-33.784v-444.428c0-18.656-15.128-33.784-33.794-33.784h20.569c18.666 0 33.794 15.128 33.794 33.784z" fill="#fec0dd"/><path d="m474.209 50.334v411.333c0 8.269-6.695 14.964-14.953 14.964h-221.968c-8.258 0-14.953-6.695-14.953-14.964v-411.333c0-8.269 6.695-14.964 14.953-14.964h221.967c8.258 0 14.954 6.695 14.954 14.964z" fill="#9c9c9c"/><path d="m474.212 50.334v411.333c0 8.269-6.695 14.964-14.953 14.964h-20.569c8.258 0 14.953-6.695 14.953-14.964v-411.333c0-8.269-6.695-14.964-14.953-14.964h20.569c8.258 0 14.953 6.695 14.953 14.964z" fill="#838383"/><path d="m474.209 274.329v187.338c0 8.269-6.695 14.964-14.953 14.964h-221.968c-8.258 0-14.953-6.695-14.953-14.964v-187.338z" fill="#f5f8f9"/><path d="m474.212 274.327v187.34c0 8.269-6.695 14.964-14.953 14.964h-20.497c8.258 0 14.953-6.695 14.953-14.964v-187.34z" fill="#e8edf2"/><g><g><path d="m248.792 226.491v-72.782c0-10.167 8.242-18.408 18.408-18.408h36.272c10.167 0 18.408 8.242 18.408 18.408v72.782c0 10.167-8.242 18.408-18.408 18.408h-36.272c-10.166 0-18.408-8.241-18.408-18.408z" fill="#e19974"/><path d="m321.876 153.708v72.78c0 10.174-8.241 18.415-18.405 18.415h-19.807c10.164 0 18.405-8.241 18.405-18.415v-72.78c0-10.164-8.241-18.405-18.405-18.405h19.807c10.164 0 18.405 8.241 18.405 18.405z" fill="#dc8758"/><g><g><path d="m280.161 216.654c-2.299 0-4.574-1.022-6.094-2.978-2.615-3.363-2.009-8.209 1.353-10.824l10.362-8.059c3.363-2.616 8.208-2.011 10.824 1.353 2.615 3.363 2.009 8.209-1.353 10.824l-10.362 8.059c-1.408 1.095-3.076 1.625-4.73 1.625z" fill="#dc8758"/></g></g></g><g><path d="m311.728 226.491v-72.782c0-10.167 8.242-18.408 18.408-18.408h36.272c10.167 0 18.408 8.242 18.408 18.408v72.782c0 10.167-8.242 18.408-18.408 18.408h-36.272c-10.167 0-18.408-8.241-18.408-18.408z" fill="#e19974"/><path d="m384.812 153.708v72.78c0 10.174-8.241 18.415-18.405 18.415h-19.807c10.164 0 18.405-8.241 18.405-18.415v-72.78c0-10.164-8.241-18.405-18.405-18.405h19.807c10.164 0 18.405 8.241 18.405 18.405z" fill="#dc8758"/><g><g><path d="m343.096 216.654c-2.299 0-4.574-1.022-6.094-2.978-2.615-3.363-2.009-8.208 1.353-10.824l10.362-8.059c3.363-2.616 8.209-2.011 10.824 1.353 2.615 3.363 2.009 8.208-1.353 10.824l-10.362 8.059c-1.408 1.095-3.075 1.625-4.73 1.625z" fill="#dc8758"/></g></g></g><g><path d="m374.663 226.491v-72.782c0-10.167 8.242-18.408 18.408-18.408h36.272c10.167 0 18.408 8.242 18.408 18.408v72.782c0 10.167-8.242 18.408-18.408 18.408h-36.272c-10.166 0-18.408-8.241-18.408-18.408z" fill="#e19974"/><path d="m447.747 153.708v72.78c0 10.174-8.241 18.415-18.405 18.415h-19.807c10.164 0 18.405-8.241 18.405-18.415v-72.78c0-10.164-8.241-18.405-18.405-18.405h19.807c10.164 0 18.405 8.241 18.405 18.405z" fill="#dc8758"/><g><g><path d="m406.031 216.654c-2.299 0-4.574-1.022-6.094-2.978-2.615-3.363-2.009-8.208 1.353-10.824l10.362-8.059c3.363-2.616 8.209-2.011 10.824 1.353 2.615 3.363 2.009 8.208-1.353 10.824l-10.362 8.059c-1.407 1.095-3.075 1.625-4.73 1.625z" fill="#dc8758"/></g></g></g></g><g><g><path d="m248.114 106.637c-4.367 7.601-4.367 16.88 0 24.482 17.687 30.788 54.635 41.709 84.005 36.2 2.911-.546 5.806-1.384 8.646-2.489 41.398-16.117 41.398-75.787 0-91.904-2.839-1.105-5.734-1.943-8.646-2.489-29.37-5.51-66.319 5.412-84.005 36.2z" fill="#f5f8f9"/><path d="m340.767 164.829c-2.838 1.111-5.739 1.944-8.649 2.489-14.892 2.797-31.727 1.368-47.02-4.741 9.019 1.193 18.039.967 26.451-.607 2.91-.545 5.811-1.388 8.649-2.489 39.975-15.56 41.343-71.743 4.114-90.091 2.643.216 5.255.576 7.806 1.049 2.91.545 5.811 1.378 8.649 2.489 41.395 16.116 41.395 75.786 0 91.901z" fill="#e8edf2"/><circle cx="317.668" cy="118.878" fill="#fee97d" r="22.31"/><path d="m339.975 118.879c0 12.321-9.986 22.307-22.307 22.307-7.035 0-13.318-3.26-17.401-8.351.185.01.381.01.566.01 12.321 0 22.307-9.986 22.307-22.317 0-5.276-1.831-10.12-4.895-13.935 12.053.288 21.73 10.16 21.73 22.286z" fill="#fedf30"/></g><g><path d="m328.005 106.637c-4.367 7.601-4.367 16.88 0 24.482 17.687 30.788 54.635 41.709 84.005 36.2 2.911-.546 5.806-1.384 8.646-2.489 41.398-16.117 41.398-75.787 0-91.904-2.839-1.105-5.734-1.943-8.646-2.489-29.37-5.51-66.318 5.412-84.005 36.2z" fill="#f5f8f9"/><path d="m420.659 164.829c-2.838 1.111-5.739 1.944-8.649 2.489-14.892 2.797-31.727 1.368-47.02-4.741 9.019 1.193 18.039.967 26.451-.607 2.91-.545 5.811-1.388 8.649-2.489 39.975-15.56 41.343-71.743 4.114-90.091 2.643.216 5.255.576 7.806 1.049 2.91.545 5.811 1.378 8.649 2.489 41.394 16.116 41.394 75.786 0 91.901z" fill="#e8edf2"/><circle cx="397.559" cy="118.878" fill="#fee97d" r="22.31"/><path d="m419.867 118.879c0 12.321-9.986 22.307-22.307 22.307-7.035 0-13.318-3.26-17.401-8.351.185.01.381.01.566.01 12.321 0 22.307-9.986 22.307-22.317 0-5.276-1.831-10.12-4.895-13.935 12.052.288 21.73 10.16 21.73 22.286z" fill="#fedf30"/></g></g><g><g><path d="m400.949 364.681c-1.34-.409-3.451-1.053-4.929-1.504-.84-.256-1.188-1.253-.406-2.391l2.634-3.833c.414-.603.249-1.428-.366-1.825-.733-.473-1.569-1.014-1.651-1.069-8.182-5.549-19.096-6.57-28.283-3.131 1.17-10.576-3.429-21.788-12.019-28.216-.079-.059-.863-.673-1.55-1.211-.576-.451-1.41-.339-1.845.25l-2.764 3.741c-.82 1.11-1.876 1.106-2.392.396-.909-1.25-2.207-3.036-3.03-4.169-.43-.592-1.264-.711-1.843-.264-.691.533-1.479 1.141-1.559 1.199-8.64 6.362-13.325 17.538-12.236 28.123-9.16-3.509-20.082-2.572-28.306 2.913-.082.055-.922.589-1.659 1.057-.618.392-.79 1.216-.38 1.823l2.605 3.853c.773 1.144.417 2.138-.425 2.388-1.481.44-3.598 1.068-4.941 1.466-.702.208-1.092.954-.864 1.649.272.829.582 1.775.61 1.87 3.082 10.158 11.895 18.24 22.097 20.837-9.585 6.363-15.173 18.49-13.522 29.963.014.098.134 1.086.239 1.952.088.726.758 1.237 1.481 1.128l4.599-.691c1.365-.205 2.109.545 1.972 1.412-.241 1.526-.586 3.707-.805 5.09-.114.723.391 1.396 1.116 1.49.865.112 1.853.239 1.95.254 14.219 2.159 29.531-6.82 33.628-20.838 3.989 14.049 19.232 23.146 33.467 21.096.098-.014 1.086-.134 1.952-.239.726-.088 1.237-.758 1.128-1.481-.208-1.385-.536-3.568-.766-5.096-.13-.868.619-1.612 1.983-1.396l4.594.726c.723.114 1.396-.391 1.49-1.116.112-.865.239-1.853.254-1.95 1.74-11.46-3.755-23.629-13.291-30.066 10.221-2.519 19.097-10.533 22.257-20.667.029-.094.346-1.038.625-1.865.235-.695-.149-1.444-.849-1.658z" fill="#fea3ce"/></g><g><path d="m355.928 322.71c-.078-.059-.864-.672-1.548-1.213-.576-.451-1.414-.336-1.849.251l-2.758 3.746c-.822 1.103-1.878 1.099-2.398.391-.902-1.247-2.203-3.038-3.029-4.165-.426-.592-1.265-.718-1.844-.263-.136.107-2.166 1.717-2.198 1.689 6.635 5.935 10.411 14.896 10.302 23.761-.017 1.363 1.272 2.371 2.587 2.016 4.838-1.307 10.008-1.452 14.921-.427.28-9.827-4.254-19.853-12.186-25.786zm36.282 96.221c1.739-11.455-3.756-23.627-13.293-30.064 10.219-2.518 19.098-10.529 22.259-20.661.027-.102.351-1.047.627-1.88.229-.691-.151-1.429-.846-1.642-1.346-.413-3.454-1.053-4.936-1.508-.841-.259-1.185-1.254-.41-2.393l2.64-3.83c.411-.601.25-1.429-.371-1.826-.732-.47-1.566-1.012-1.645-1.071-6.946-4.706-15.843-6.15-23.99-4.385 2.278.813 4.451 1.909 6.461 3.268.088.052.923.594 1.653 1.073.612.395.783 1.217.371 1.826l-2.64 3.83c-.784 1.137-.431 2.134.41 2.393 1.474.445 3.586 1.094 4.925 1.497.707.217 1.086.97.855 1.656-.275.83-.597 1.775-.623 1.868-2.775 8.897-9.961 16.165-18.591 19.509-1.449.561-1.851 2.443-.687 3.472 7.671 6.782 11.86 17.551 10.311 27.752-.017.095-.143 1.085-.256 1.953-.094.725-.769 1.229-1.491 1.115l-4.593-.726c-1.364-.221-2.111.523-1.984 1.39.228 1.534.561 3.717.771 5.106.063.438-.093.854-.393 1.137 4.718 1.761 9.832 2.413 14.83 1.694.099-.009 1.09-.131 1.952-.232.727-.09 1.24-.761 1.13-1.483-.21-1.388-.534-3.57-.764-5.096-.136-.868.612-1.612 1.977-1.4l4.594.726c.725.115 1.395-.386 1.49-1.114.113-.868.238-1.85.257-1.954z" fill="#fe7ab6"/></g><path d="m359.55 377.054-3.597-2.867.024-6.353c.016-4.259-3.424-7.726-7.684-7.742-.01 0-.02 0-.03 0-4.246 0-7.696 3.434-7.713 7.684l-.024 6.351-3.619 2.839c-3.351 2.629-3.937 7.477-1.309 10.83 1.522 1.939 3.786 2.953 6.074 2.953 1.665 0 3.343-.536 4.755-1.644l1.758-1.379 1.748 1.393c1.421 1.132 3.117 1.681 4.803 1.681 2.267 0 4.514-.995 6.037-2.906 2.656-3.332 2.107-8.185-1.223-10.84z" fill="#fe7ab6"/></g><g><path d="m268.444 327.454c-1.655 0-3.322-.53-4.73-1.625-3.362-2.615-3.969-7.461-1.353-10.824l6.513-8.373c2.614-3.364 7.461-3.969 10.824-1.353 3.362 2.615 3.969 7.461 1.353 10.824l-6.513 8.373c-1.521 1.956-3.795 2.978-6.094 2.978z" fill="#e8edf2"/></g><g><path d="m421.495 442.262c-1.655 0-3.322-.53-4.73-1.625-3.362-2.615-3.969-7.461-1.353-10.824l6.513-8.373c2.615-3.365 7.461-3.969 10.824-1.353 3.362 2.615 3.969 7.461 1.353 10.824l-6.513 8.373c-1.521 1.956-3.795 2.978-6.094 2.978z" fill="#e8edf2"/></g><g><path d="m255.993 368.637c-1.655 0-3.322-.53-4.73-1.625-3.363-2.615-3.969-7.461-1.353-10.824l6.513-8.373c2.614-3.363 7.461-3.968 10.824-1.353 3.362 2.615 3.969 7.461 1.353 10.824l-6.513 8.373c-1.52 1.955-3.795 2.978-6.094 2.978z" fill="#e8edf2"/></g><g><path d="m421.495 335.123c-1.655 0-3.322-.53-4.73-1.625-3.362-2.615-3.969-7.461-1.353-10.824l6.513-8.373c2.615-3.363 7.461-3.968 10.824-1.353 3.362 2.615 3.969 7.461 1.353 10.824l-6.513 8.373c-1.521 1.956-3.795 2.978-6.094 2.978z" fill="#e8edf2"/></g><g><path d="m149.932 105.545h-137.482c-3.779 0-6.842-3.063-6.842-6.842v-46.746c0-3.779 3.063-6.842 6.842-6.842h137.482c3.779 0 6.842 3.063 6.842 6.842v46.746c.001 3.779-3.063 6.842-6.842 6.842z" fill="#e19974"/><path d="m156.776 51.958v46.743c0 3.785-3.065 6.849-6.839 6.849h-20.569c3.774 0 6.839-3.065 6.839-6.849v-46.743c0-3.785-3.065-6.839-6.839-6.839h20.569c3.774 0 6.839 3.055 6.839 6.839z" fill="#dc8758"/><g fill="#e19974"><path d="m64.848 504.017c-9.026 0-16.342-7.317-16.342-16.342v-463.35c0-9.026 7.317-16.342 16.342-16.342 9.026 0 16.342 7.317 16.342 16.342v463.35c0 9.025-7.316 16.342-16.342 16.342z"/><path d="m97.533 504.017c-9.026 0-16.342-7.317-16.342-16.342v-463.35c0-9.026 7.317-16.342 16.342-16.342 9.026 0 16.342 7.317 16.342 16.342v463.35c0 9.025-7.317 16.342-16.342 16.342z"/></g><path d="m81.193 24.326v463.348c0 9.022-7.322 16.343-16.343 16.343s-16.343-7.321-16.343-16.343v-463.348c0-9.022 7.322-16.343 16.343-16.343 4.516 0 8.597 1.828 11.551 4.792 2.964 2.954 4.792 7.045 4.792 11.551z" fill="#ecbba3"/><path d="m113.879 24.326v463.348c0 9.022-7.322 16.343-16.343 16.343-9.032 0-16.343-7.321-16.343-16.343v-463.348c0-9.022 7.311-16.343 16.343-16.343 4.516 0 8.597 1.828 11.551 4.792 2.965 2.954 4.792 7.045 4.792 11.551z" fill="#ecbba3"/><path d="m81.196 24.324v463.351c0 9.019-7.322 16.342-16.342 16.342-2.982 0-5.77-.802-8.176-2.19 4.885-2.828 8.176-8.104 8.176-14.151v-463.352c0-4.505-1.831-8.598-4.792-11.549-1.008-1.008-2.139-1.882-3.384-2.592 2.407-1.399 5.194-2.201 8.176-2.201 4.515 0 8.587 1.83 11.549 4.792 2.962 2.953 4.793 7.046 4.793 11.55z" fill="#e8ad8c"/><path d="m113.88 24.324v463.351c0 9.019-7.322 16.342-16.342 16.342-2.982 0-5.77-.802-8.176-2.19 4.885-2.828 8.176-8.104 8.176-14.151v-463.352c0-4.505-1.831-8.598-4.793-11.549-1.008-1.008-2.139-1.882-3.384-2.602 2.407-1.388 5.194-2.19 8.176-2.19 4.515 0 8.598 1.83 11.549 4.792 2.963 2.952 4.794 7.045 4.794 11.549z" fill="#e8ad8c"/><path d="m81.19 209.433h-32.684v-185.107c0-9.022 7.322-16.343 16.343-16.343 4.516 0 8.597 1.828 11.551 4.792 2.965 2.954 4.792 7.045 4.792 11.551z" fill="#fea3ce"/><path d="m113.933 209.433h-32.684v-185.107c0-9.022 7.322-16.343 16.343-16.343 4.516 0 8.597 1.828 11.551 4.792 2.965 2.954 4.792 7.045 4.792 11.551z" fill="#fea3ce"/><g fill="#fe7ab6"><path d="m113.931 24.324v185.108h-16.342v-185.108c0-4.505-1.82-8.598-4.793-11.549-.998-1.008-2.139-1.882-3.384-2.592 2.396-1.399 5.194-2.201 8.176-2.201 4.515 0 8.598 1.83 11.549 4.792 2.974 2.953 4.794 7.046 4.794 11.55z"/><path d="m81.193 24.324v185.108h-16.342v-185.108c0-4.505-1.82-8.598-4.793-11.549-.998-1.008-2.139-1.882-3.384-2.592 2.396-1.399 5.194-2.201 8.176-2.201 4.515 0 8.598 1.83 11.549 4.792 2.973 2.953 4.794 7.046 4.794 11.55z"/></g></g></g></svg>