<svg height="512pt" viewBox="0 -18 512 512" width="512pt" xmlns="http://www.w3.org/2000/svg"><path d="m450.003906 112.226562c-4.089844-.367187-7.964844.402344-11.351562 2.027344-5.328125 2.554688-11.664063 1.300782-16.011719-2.703125-4.761719-4.382812-11.207031-6.96875-18.257813-6.675781-12.847656.539062-23.4375 10.898438-24.238281 23.730469-.914062 14.75 10.773438 26.996093 25.324219 26.996093h42.535156c12.820313 0 23.050782-11.101562 21.59375-24.214843-1.121094-10.140625-9.4375-18.25-19.59375-19.160157zm0 0" fill="#ff9c43"/><path d="m120.375 55.945312c-4.265625 0-7.726562-3.460937-7.726562-7.726562v-12.589844c0-4.269531 3.460937-7.726562 7.726562-7.726562 4.269531 0 7.726562 3.457031 7.726562 7.726562v12.589844c0 4.265625-3.457031 7.726562-7.726562 7.726562zm0 0" fill="#d6d6d6"/><path d="m338.632812 27.210938c-3.109374 0-6.039062-1.886719-7.21875-4.960938l-4.503906-11.757812c-1.527344-3.984376.464844-8.453126 4.449219-9.976563 3.984375-1.527344 8.453125.464844 9.980469 4.445313l4.503906 11.757812c1.527344 3.984375-.464844 8.453125-4.449219 9.980469-.910156.347656-1.84375.511719-2.761719.511719zm0 0" fill="#d6d6d6"/><path d="m75.792969 476.746094h-6.378907c-7.125 0-12.898437-5.773438-12.898437-12.894532v-137.011718h32.171875v137.011718c0 7.121094-5.773438 12.894532-12.894531 12.894532zm0 0" fill="#cc966a"/><path d="m443.113281 476.890625h-6.378906c-7.121094 0-12.894531-5.773437-12.894531-12.894531v-137.011719h32.167968v137.011719c0 7.121094-5.773437 12.894531-12.894531 12.894531zm0 0" fill="#cc966a"/><path d="m474.761719 413.914062h-437.496094c-11.429687 0-20.699219-9.265624-20.699219-20.695312v-150.367188c0-11.429687 9.269532-20.695312 20.699219-20.695312h437.496094c11.429687 0 20.695312 9.265625 20.695312 20.695312v150.367188c.003907 11.429688-9.265625 20.695312-20.695312 20.695312zm0 0" fill="#345863"/><path d="m474.761719 222.152344h-32.515625v171.066406c0 11.429688-9.265625 20.695312-20.695313 20.695312h53.210938c11.429687 0 20.695312-9.265624 20.695312-20.695312v-150.367188c.003907-11.429687-9.265625-20.699218-20.695312-20.699218zm0 0" fill="#1e4751"/><g fill="#d6d6d6"><path d="m45.5 233.457031c-2.007812 0-4.007812-.777343-5.523438-2.320312-2.984374-3.050781-2.929687-7.945313.117188-10.929688 6.703125-6.558593 10.871094-16.84375 10.871094-26.84375v-14.980469c0-4.265624 3.457031-7.726562 7.722656-7.726562 4.269531 0 7.726562 3.460938 7.726562 7.726562v14.980469c0 14.21875-5.796874 28.382813-15.511718 37.886719-1.503906 1.472656-3.453125 2.207031-5.402344 2.207031zm0 0"/><path d="m192.125 233.457031c-1.949219 0-3.898438-.734375-5.402344-2.203125-9.714844-9.507812-15.511718-23.671875-15.511718-37.886718v-14.980469c0-4.269531 3.457031-7.726563 7.722656-7.726563 4.269531 0 7.726562 3.457032 7.726562 7.726563v14.980469c0 9.996093 4.164063 20.28125 10.867188 26.839843 3.050781 2.988281 3.105468 7.878907.117187 10.929688-1.511719 1.546875-3.515625 2.320312-5.519531 2.320312zm0 0"/><path d="m304 233.457031c-2.007812 0-4.007812-.777343-5.523438-2.320312-2.984374-3.050781-2.929687-7.945313.117188-10.929688 6.703125-6.558593 10.871094-16.84375 10.871094-26.84375v-14.980469c0-4.265624 3.457031-7.726562 7.722656-7.726562 4.269531 0 7.726562 3.460938 7.726562 7.726562v14.980469c0 14.21875-5.796874 28.382813-15.511718 37.886719-1.503906 1.472656-3.453125 2.207031-5.402344 2.207031zm0 0"/><path d="m450.625 233.457031c-1.949219 0-3.902344-.734375-5.40625-2.203125-9.710938-9.507812-15.511719-23.671875-15.511719-37.886718v-14.980469c0-4.269531 3.460938-7.726563 7.726563-7.726563s7.726562 3.457032 7.726562 7.726563v14.980469c0 9.996093 4.164063 20.28125 10.867188 26.839843 3.050781 2.988281 3.101562 7.878907.117187 10.929688-1.511719 1.546875-3.515625 2.320312-5.519531 2.320312zm0 0"/></g><path d="m43.171875 311.488281c-14.695313 0-26.605469-11.910156-26.605469-26.605469v-36.269531h53.210938v36.269531c0 14.695313-11.910156 26.605469-26.605469 26.605469zm0 0" fill="#e02b3d"/><path d="m96.382812 311.488281c-14.695312 0-26.605468-11.910156-26.605468-26.605469v-36.269531h53.210937v36.269531c0 14.695313-11.914062 26.605469-26.605469 26.605469zm0 0" fill="#f43b45"/><path d="m149.59375 311.488281c-14.695312 0-26.605469-11.910156-26.605469-26.605469v-36.269531h53.207031v36.269531c.003907 14.695313-11.910156 26.605469-26.601562 26.605469zm0 0" fill="#e02b3d"/><path d="m202.804688 311.488281c-14.695313 0-26.605469-11.910156-26.605469-26.605469v-36.269531h53.207031v36.269531c0 14.695313-11.910156 26.605469-26.601562 26.605469zm0 0" fill="#f43b45"/><path d="m256.011719 311.488281c-14.691407 0-26.605469-11.910156-26.605469-26.605469v-36.269531h53.210938v36.269531c0 14.695313-11.910157 26.605469-26.605469 26.605469zm0 0" fill="#e02b3d"/><path d="m309.222656 311.488281c-14.695312 0-26.605468-11.910156-26.605468-26.605469v-36.269531h53.210937v36.269531c0 14.695313-11.910156 26.605469-26.605469 26.605469zm0 0" fill="#f43b45"/><path d="m362.433594 311.488281c-14.695313 0-26.605469-11.910156-26.605469-26.605469v-36.269531h53.210937v36.269531c0 14.695313-11.910156 26.605469-26.605468 26.605469zm0 0" fill="#e02b3d"/><path d="m415.644531 311.488281c-14.695312 0-26.605469-11.910156-26.605469-26.605469v-36.269531h53.210938v36.269531c0 14.695313-11.914062 26.605469-26.605469 26.605469zm0 0" fill="#f43b45"/><path d="m468.855469 311.488281c-14.695313 0-26.605469-11.910156-26.605469-26.605469v-36.269531h53.210938v36.269531c0 14.695313-11.914063 26.605469-26.605469 26.605469zm0 0" fill="#e02b3d"/><path d="m120.375 48.214844c-53.90625 0-97.609375 45.59375-97.609375 101.832031h195.21875c0-56.238281-43.703125-101.832031-97.609375-101.832031zm0 0" fill="#ededed"/><path d="m120.375 48.214844c-9.195312 0-18.089844 1.332031-26.527344 3.808594 41.015625 12.058593 71.082032 51.378906 71.082032 98.023437h53.054687c0-56.238281-43.703125-101.832031-97.609375-101.832031zm0 0" fill="#d6d6d6"/><path d="m195.640625 189.414062h-150.53125c-5.535156 0-10.371094-3.742187-11.757813-9.101562l-5.402343-20.859375h184.851562l-5.398437 20.859375c-1.390625 5.359375-6.222656 9.101562-11.761719 9.101562zm0 0" fill="#ededed"/><path d="m218.476562 161.738281h-196.203124c-6.457032 0-11.6875-5.234375-11.6875-11.691406s5.230468-11.6875 11.6875-11.6875h196.203124c6.457032 0 11.691407 5.230469 11.691407 11.6875s-5.234375 11.691406-11.691407 11.691406zm0 0" fill="#d6d6d6"/><path d="m452.578125 189.414062h-150.53125c-5.535156 0-10.371094-3.742187-11.761719-9.101562l-5.398437-20.859375h184.851562l-5.402343 20.859375c-1.386719 5.359375-6.222657 9.101562-11.757813 9.101562zm0 0" fill="#ededed"/><path d="m475.414062 161.738281h-196.203124c-6.457032 0-11.691407-5.234375-11.691407-11.691406s5.234375-11.6875 11.691407-11.6875h196.203124c6.457032 0 11.691407 5.230469 11.691407 11.6875s-5.234375 11.691406-11.691407 11.691406zm0 0" fill="#d6d6d6"/><path d="m457.75 70.363281c1.972656-.757812 2.820312-3.097656 1.78125-4.9375-24.210938-42.984375-75.332031-63.40625-120.902344-45.941406-46.796875 17.9375-71.246094 69.511719-58.28125 118.871094zm0 0" fill="#ededed"/><path d="m459.53125 65.425781c-24.210938-42.984375-75.332031-63.40625-120.902344-45.941406-9.875 3.785156-18.746094 9.085937-26.488281 15.53125 39.546875-4.757813 79.304687 16.074219 99.328125 53.085937l46.28125-17.738281c1.972656-.757812 2.820312-3.097656 1.78125-4.9375zm0 0" fill="#d6d6d6"/><path d="m498.769531 248.613281h-485.539062c-7.308594 0-13.230469-5.921875-13.230469-13.226562 0-7.308594 5.921875-13.230469 13.230469-13.230469h485.539062c7.308594 0 13.230469 5.921875 13.230469 13.230469 0 7.304687-5.921875 13.226562-13.230469 13.226562zm0 0" fill="#f43b45"/></svg>