<svg id="Capa_1" enable-background="new 0 0 512 512" height="512" viewBox="0 0 512 512" width="512" xmlns="http://www.w3.org/2000/svg"><g><path d="m77.662 251.864c-4.142 0-7.5-3.357-7.5-7.5v-33.26c0-4.143 3.358-7.5 7.5-7.5s7.5 3.357 7.5 7.5v33.26c0 4.142-3.358 7.5-7.5 7.5z" fill="#62a4fb"/><path d="m0 295.062v187.788c0 2.455 1.99 4.445 4.445 4.445h146.434c2.455 0 4.445-1.99 4.445-4.445v-187.788c0-2.455-1.99-4.445-4.445-4.445h-146.434c-2.455 0-4.445 1.99-4.445 4.445z" fill="#bed9fd"/><path d="m150.879 290.617h-28.383c2.455 0 4.445 1.99 4.445 4.445v187.788c0 2.455-1.99 4.445-4.445 4.445h28.383c2.455 0 4.445-1.99 4.445-4.445v-187.788c0-2.455-1.99-4.445-4.445-4.445z" fill="#9ec8fc"/><g fill="#62a4fb"><path d="m107.098 449.739h-58.872c-4.142 0-7.5-3.357-7.5-7.5s3.358-7.5 7.5-7.5h58.872c4.142 0 7.5 3.357 7.5 7.5s-3.358 7.5-7.5 7.5z"/><path d="m107.098 396.456h-58.872c-4.142 0-7.5-3.357-7.5-7.5s3.358-7.5 7.5-7.5h58.872c4.142 0 7.5 3.357 7.5 7.5s-3.358 7.5-7.5 7.5z"/><path d="m107.098 343.172h-58.872c-4.142 0-7.5-3.357-7.5-7.5s3.358-7.5 7.5-7.5h58.872c4.142 0 7.5 3.357 7.5 7.5s-3.358 7.5-7.5 7.5z"/></g><path d="m37.339 290.617v-42.757c0-3.069 2.488-5.556 5.556-5.556h69.532c3.069 0 5.556 2.488 5.556 5.556v42.757z" fill="#9ec8fc"/><path d="m112.428 242.303h-28.383c3.069 0 5.556 2.488 5.556 5.556v42.757h28.383v-42.756c0-3.069-2.487-5.557-5.556-5.557z" fill="#80b6fc"/><path d="m508.623 315.174h-216.801c-1.865 0-3.377-1.512-3.377-3.377v-168.304c0-1.865 1.512-3.377 3.377-3.377h216.801c1.865 0 3.377 1.512 3.377 3.377v168.305c0 1.864-1.512 3.376-3.377 3.376z" fill="#ddebfd"/><path d="m508.623 294.513h-216.801c-1.865 0-3.377-1.512-3.377-3.377v20.662c0 1.865 1.512 3.377 3.377 3.377h216.801c1.865 0 3.377-1.512 3.377-3.377v-20.662c0 1.864-1.512 3.377-3.377 3.377z" fill="#bed9fd"/><path d="m369.099 278.074c-4.142 0-7.5-3.357-7.5-7.5v-11.561c0-4.143 3.358-7.5 7.5-7.5s7.5 3.357 7.5 7.5v11.561c0 4.142-3.358 7.5-7.5 7.5z" fill="#62a4fb"/><path d="m403.6 278.074c-4.142 0-7.5-3.357-7.5-7.5v-29.572c0-4.143 3.358-7.5 7.5-7.5s7.5 3.357 7.5 7.5v29.572c0 4.142-3.358 7.5-7.5 7.5z" fill="#62a4fb"/><path d="m438.1 278.074c-4.142 0-7.5-3.357-7.5-7.5v-48.709c0-4.143 3.358-7.5 7.5-7.5s7.5 3.357 7.5 7.5v48.709c0 4.142-3.358 7.5-7.5 7.5z" fill="#62a4fb"/><path d="m369.105 229.366c-2.67 0-5.255-1.43-6.61-3.945-1.963-3.647-.599-8.196 3.049-10.159l69.001-37.148c3.646-1.967 8.195-.599 10.159 3.048 1.963 3.647.599 8.196-3.049 10.159l-69.001 37.148c-1.131.609-2.349.897-3.549.897z" fill="#e27c48"/><path d="m381.618 316.85-21.533 73.972-52.63-48.594c-2.559-2.362-5.912-3.76-9.395-3.764h-127.056c-15.471 0-28.012 12.458-28.012 27.929v115.49c0 2.989 2.423 5.412 5.412 5.412h149.66c2.989 0 5.412-2.423 5.412-5.412v-92.446l47.62 43.967c12.871 11.884 33.748 6.084 38.646-10.736l27.767-95.368c2.886-9.911-2.81-20.285-12.722-23.17-9.91-2.885-20.285 2.81-23.169 12.72z" fill="#e27c48"/><path d="m281.54 126.441h-34.344c-4.671 0-9.213-1.538-12.923-4.377l-24.943-19.087c-5.46-4.178-13.342-.285-13.342 6.59v8.803c0 1.007-1.154 1.577-1.954.965l-21.378-16.359c-5.46-4.178-13.342-.285-13.342 6.59v71.588c0 26.346 21.357 47.703 47.703 47.703h83.112c19.251 0 34.857-15.606 34.857-34.857v-24.114c0-23.993-19.451-43.445-43.446-43.445z" fill="#785252"/><path d="m232.927 350.263-13.185 70.837c-.269 1.445.179 2.931 1.201 3.987l17.956 18.547c1.783 1.842 4.737 1.842 6.521 0l17.956-18.547c1.022-1.056 1.47-2.542 1.201-3.987l-13.185-70.837z" fill="#4980ac"/><path d="m217.244 277.491v61.877c0 2.744 1.269 5.334 3.438 7.016l16.037 12.435c3.202 2.483 7.678 2.483 10.88 0l16.037-12.435c2.169-1.682 3.438-4.272 3.438-7.016v-61.877c0-10.669-8.649-19.319-19.318-19.319h-11.193c-10.67 0-19.319 8.65-19.319 19.319z" fill="#ffcdbe"/><path d="m247.755 258.172h-11.193c-10.669 0-19.318 8.649-19.318 19.319v45.058c6.651 3.146 14.083 4.913 21.929 4.913h5.972c7.846 0 15.278-1.767 21.929-4.913v-45.058c0-10.67-8.649-19.319-19.319-19.319z" fill="#ebae9d"/><path d="m150.58 228.858c0 10.943 9.595 19.814 21.432 19.814h140.294c11.836 0 21.432-8.871 21.432-19.814s-9.595-19.814-21.432-19.814h-140.294c-11.836 0-21.432 8.871-21.432 19.814z" fill="#ffcdbe"/><path d="m187.822 173.868v81.784c0 28.361 22.991 51.351 51.351 51.351h5.972c28.361 0 51.351-22.991 51.351-51.351v-50.233c0-19.418-15.741-35.159-35.159-35.159h-69.907c-1.993 0-3.608 1.615-3.608 3.608z" fill="#ffcdbe"/><path d="m243.22 280.351h-2.122c-6.644 0-12.957-2.568-17.775-7.233-2.976-2.881-3.054-7.629-.173-10.604 2.88-2.978 7.628-3.055 10.605-.173 2.006 1.941 4.614 3.011 7.343 3.011h2.122c2.729 0 5.337-1.069 7.342-3.011 2.977-2.882 7.725-2.804 10.605.172 2.881 2.977 2.804 7.725-.172 10.605-4.818 4.664-11.131 7.233-17.775 7.233z" fill="#e09380"/><path d="m188.201 487.294v-83.939c0-4.143-3.358-7.5-7.5-7.5s-7.5 3.357-7.5 7.5v83.939z" fill="#dd552d"/><path d="m381.618 316.85-6.701 23.018 35.893 10.449 6.699-23.018c2.885-9.911-2.811-20.284-12.722-23.17-9.91-2.885-20.284 2.81-23.169 12.721z" fill="#ffcdbe"/><circle cx="400.222" cy="92.268" fill="#f8e883" r="67.563"/><path d="m435.183 34.445c8.357 11.244 13.304 25.172 13.304 40.258 0 37.314-30.249 67.563-67.563 67.563-12.797 0-24.761-3.559-34.961-9.739 12.313 16.568 32.03 27.305 54.259 27.305 37.314 0 67.563-30.249 67.563-67.563 0-24.518-13.06-45.984-32.602-57.824z" fill="#f3d332"/><path d="m380.924 66.526v51.485c0 3.382 3.709 5.453 6.589 3.679l41.778-25.742c2.739-1.688 2.739-5.671 0-7.358l-41.778-25.742c-2.879-1.775-6.589.296-6.589 3.678z" fill="#df646e"/></g></svg>