<svg id="Capa_1" enable-background="new 0 0 512 512" height="512" viewBox="0 0 512 512" width="512" xmlns="http://www.w3.org/2000/svg"><g><g><path d="m82.5 0h30v45h-30z" fill="#4e6ba6"/><path d="m241 0h30v45h-30z" fill="#4e6ba6"/><path d="m256 0h15v45h-15z" fill="#28487a"/><path d="m399.5 0h30v45h-30z" fill="#28487a"/><path d="m180 512h-30c0-29.01 0-58.021 0-87.031 0-4.99 10-9.979 10-14.969h10c0 4.543 10 9.088 10 13.631-.001 29.457 0 58.912 0 88.369z" fill="#4e6ba6"/><path d="m0 150h30v230h-30z" fill="#4e6ba6"/><path d="m512 512h-30c0-29.01 0-58.021 0-87.031 0-4.99 10-9.979 10-14.969h10c0 4.543 10 9.088 10 13.631-.001 29.457 0 58.912 0 88.369z" fill="#28487a"/><path d="m362 512h-30c0-29.01 0-58.021 0-87.031 0-4.99 10-9.979 10-14.969h10c0 4.543 10 9.088 10 13.631-.001 29.457 0 58.912 0 88.369z" fill="#28487a"/><path d="m241 260h30v252h-30z" fill="#4e6ba6"/><path d="m256 260h15v252h-15z" fill="#28487a"/><path d="m361 230c-12.875 0-240.98 0-250 0v60h250l20-30z" fill="#f6e486"/><path d="m256 230h145v60h-145z" fill="#f0ce46"/><path d="m482 150h30v230h-30z" fill="#28487a"/><path d="m30 512h-30c0-29.01 0-58.021 0-87.031 0-4.99 10-9.979 10-14.969h10c0 4.543 10 9.088 10 13.631-.001 29.457 0 58.912 0 88.369z" fill="#4e6ba6"/><path d="m0 335h180v90h-180z" fill="#8dc5e8"/><path d="m332 335h180v90h-180z" fill="#5e9ff6"/><path d="m414.5 120c-22.25 0-45.25 0-67.5 0 0-7.5 0-15 0-22.5 0-37.22 30.28-67.5 67.5-67.5l67.5 67.5z" fill="#ade993"/><path d="m482 97.5c0-37.22-30.28-67.5-67.5-67.5v90h67.5z" fill="#76d081"/><path d="m323.5 101.041-67.5 18.959c-22.25 0-45.25 0-67.5 0 0-7.5 0-15 0-22.5 0-37.22 30.28-67.5 67.5-67.5z" fill="#f6e486"/><path d="m323.5 97.5c0-37.22-30.28-67.5-67.5-67.5v90h67.5z" fill="#f0ce46"/></g><path d="m97.5 120c-22.25 0-45.25 0-67.5 0 0-7.5 0-15 0-22.5 0-37.22 30.28-67.5 67.5-67.5l67.5 71.939z" fill="#e17d46"/><path d="m165 97.5c0-37.22-30.28-67.5-67.5-67.5v90h67.5z" fill="#db4d6c"/></g></svg>