<svg fill="#ffffff" enable-background="new 0 0 512 512" viewBox="0 0 512 512" xmlns="http://www.w3.org/2000/svg"><g><path d="m93.933 146.23h10.531c5.654 0 10.254 4.6 10.254 10.253v7c0 4.143 3.358 7.5 7.5 7.5s7.5-3.357 7.5-7.5v-7c0-13.925-11.329-25.253-25.254-25.253h-10.531c-5.688 0-10.315-4.628-10.315-10.315v-12.733c0-5.688 4.627-10.315 10.315-10.315h29.648c13.925 0 25.254-11.329 25.254-25.254v-14.955c0-4.143-3.358-7.5-7.5-7.5s-7.5 3.357-7.5 7.5v14.953c0 5.654-4.6 10.254-10.254 10.254h-29.648c-13.958 0-25.315 11.356-25.315 25.315v12.733c0 13.96 11.357 25.317 25.315 25.317z"/><path d="m141.692 128.974v7.946c0 10.265 8.352 18.616 18.617 18.616h3.452c1.973 0 3.578 1.605 3.578 3.578v4.368c0 4.143 3.358 7.5 7.5 7.5s7.5-3.357 7.5-7.5v-4.368c0-10.244-8.334-18.578-18.578-18.578h-3.452c-1.994 0-3.617-1.622-3.617-3.616v-7.946c0-1.994 1.623-3.616 3.617-3.616h7.269c10.244 0 18.579-8.334 18.579-18.578v-9.331c0-4.143-3.358-7.5-7.5-7.5s-7.5 3.357-7.5 7.5v9.331c0 1.973-1.605 3.578-3.579 3.578h-7.269c-10.266 0-18.617 8.351-18.617 18.616z"/><path d="m493.118 409.709h-21.327c3.366-5.164 5.331-11.32 5.331-17.931v-1.994h1.806c4.143 0 7.5-3.357 7.5-7.5s-3.357-7.5-7.5-7.5h-7.137c3.366-5.164 5.331-11.32 5.331-17.931v-1.994h1.806c4.143 0 7.5-3.357 7.5-7.5s-3.357-7.5-7.5-7.5h-7.137c3.366-5.164 5.331-11.32 5.331-17.931v-1.994h1.806c4.143 0 7.5-3.357 7.5-7.5s-3.357-7.5-7.5-7.5h-7.137c3.366-5.164 5.331-11.32 5.331-17.931v-1.994h1.806c4.143 0 7.5-3.357 7.5-7.5s-3.357-7.5-7.5-7.5h-127.694c-4.143 0-7.5 3.357-7.5 7.5s3.357 7.5 7.5 7.5h1.805v1.994c0 6.61 1.965 12.767 5.331 17.931h-7.136c-4.143 0-7.5 3.357-7.5 7.5s3.357 7.5 7.5 7.5h1.805v1.994c0 6.61 1.965 12.767 5.331 17.931h-7.136c-4.143 0-7.5 3.357-7.5 7.5s3.357 7.5 7.5 7.5h1.805v1.994c0 6.61 1.965 12.767 5.331 17.931h-7.136c-4.143 0-7.5 3.357-7.5 7.5s3.357 7.5 7.5 7.5h1.805v1.994c0 6.61 1.965 12.767 5.331 17.931h-120.271v-12.436h6.307c27.839 0 50.488-22.649 50.488-50.488v-40.776h7.681c8.164 0 14.806-6.642 14.806-14.806v-17.358c0-8.164-6.642-14.807-14.806-14.807h-27.707c-.141-1.505-.26-3.048-.377-4.64-.609-8.314-1.3-17.739-6.772-25.26-8.733-11.999-25.456-13.884-34.258-20.287-8.71-6.34-15.641-21.713-29.884-26.338-8.698-2.823-17.402-.685-25.819 1.383-12.824 3.151-14.825 3.156-27.667 0-22.165-5.444-30.449-3.721-46.413 15.332l-.196.234c-2.66 3.175-2.243 7.905.933 10.565 3.174 2.659 7.905 2.242 10.565-.933l.196-.234c11.785-14.068 14.188-14.612 31.335-10.397 15.192 3.732 19.576 3.746 34.826 0 6.672-1.64 12.974-3.186 17.607-1.683 8.835 2.868 15.298 16.635 25.69 24.198 10.459 7.61 25.573 9.59 30.956 16.985 2.954 4.06 3.433 10.603 3.941 17.529.086 1.171.177 2.355.277 3.544h-191.769c.1-1.189.191-2.373.277-3.543 1.296-17.676 2.631-19.906 19.251-26.652 3.838-1.558 5.687-5.933 4.128-9.771-1.558-3.838-5.933-5.685-9.77-4.128-22.185 9.006-26.861 16.135-28.569 39.455-.117 1.591-.234 3.135-.375 4.639h-27.708c-8.164 0-14.806 6.643-14.806 14.807v17.358c0 8.164 6.642 14.806 14.806 14.806h7.68v40.776c0 6.98 1.408 13.754 4.186 20.134 1.653 3.797 6.068 5.533 9.871 3.883 3.797-1.654 5.536-6.073 3.882-9.871-1.95-4.479-2.939-9.238-2.939-14.146v-40.776h231.941v40.776c0 19.568-15.92 35.488-35.488 35.488h-160.965c-5.39 0-10.563-1.176-15.375-3.493-3.732-1.799-8.214-.229-10.012 3.502-1.798 3.732-.229 8.215 3.502 10.012 6.86 3.305 14.223 4.979 21.885 4.979h6.307v12.436h-70.866c-10.411.002-18.882 8.473-18.882 18.885v14.367c0 10.411 8.471 18.882 18.882 18.882h403.69c4.143 0 7.5-3.357 7.5-7.5s-3.357-7.5-7.5-7.5h-403.69c-2.141 0-3.882-1.741-3.882-3.882v-14.367c0-2.141 1.742-3.883 3.882-3.883h474.235c2.141 0 3.882 1.742 3.882 3.883v14.367c0 2.141-1.741 3.882-3.882 3.882h-40.557c-4.143 0-7.5 3.357-7.5 7.5s3.357 7.5 7.5 7.5h40.558c10.411 0 18.882-8.471 18.882-18.882v-14.367c0-10.412-8.471-18.883-18.882-18.883zm-467.651-118.7v-16.971h276.913v16.971zm436.655-5.999v1.994c0 9.887-8.044 17.931-17.931 17.931h-58.222c-9.887 0-17.931-8.044-17.931-17.931v-1.994zm0 34.925v1.994c0 9.887-8.044 17.931-17.931 17.931h-58.222c-9.887 0-17.931-8.044-17.931-17.931v-1.994zm0 34.925v1.994c0 9.887-8.044 17.931-17.931 17.931h-58.222c-9.887 0-17.931-8.044-17.931-17.931v-1.994zm-277.112 42.414v12.436h-42.172v-12.436zm-80.261 12.435v-12.436h23.089v12.436zm95.261 0v-12.436h23.089v12.436zm185.959 0c-9.887 0-17.931-8.044-17.931-17.931v-1.994h94.083v1.994c0 9.887-8.044 17.931-17.931 17.931z"/></g></svg>