<svg id="Layer_1" data-name="Layer 1" xmlns="http://www.w3.org/2000/svg" viewBox="0 0 535 511"><defs><style>.cls-1{opacity:0.6;}.cls-2{fill:#ffffff;}</style></defs><title>01</title><g class="cls-1"><path class="cls-2" d="M509.22,3c-1.45,3.3-3.73,6.11-5.52,9.56C502,9.11,499.47,6.48,498.36,3Z"/><path class="cls-2" d="M473.58,308.47,486.87,286l13.25,22.47Z"/><path class="cls-2" d="M470,306.37l-12.92-21.89c1.54-.45,17.65-.62,25.94-.26Z"/><path class="cls-2" d="M499.63,312.82l-12.76,21.63-12.8-21.63Z"/><path class="cls-2" d="M440.42,308.1l12.74-21.7c4.36,7.36,8.54,14.44,12.74,21.54C464.46,308.41,443.46,308.55,440.42,308.1Z"/><path class="cls-2" d="M503.7,306l-12.62-21.3c1.59-.42,21.78-.56,25.34-.19C512.2,291.67,508,298.7,503.7,306Z"/><path class="cls-2" d="M533,308.07H508.26a51.92,51.92,0,0,1,3.88-7c1.43-2.34,2.8-4.71,4.19-7.07s2.75-4.54,4.24-7Z"/><path class="cls-2" d="M482.3,279.51H457.62c4.11-7,8.14-13.85,12.22-20.81a2,2,0,0,1,1.05,1.09c1.28,2.27,2.55,4.55,3.87,6.8,1.82,3.11,3.71,6.19,5.55,9.29C481,277,481.53,278.1,482.3,279.51Z"/><path class="cls-2" d="M441.15,313h24.07c.35.68-.07,1.19-.4,1.63a57.67,57.67,0,0,0-3.61,6c-2.47,4.28-5.18,8.41-7.5,12.77a2.25,2.25,0,0,1-.4.42C451.81,332.24,441.62,314.83,441.15,313Z"/><path class="cls-2" d="M470,315.47l12.21,20.88H457.76Z"/><path class="cls-2" d="M491.46,279.32c4.14-7,8.16-13.76,12.24-20.66l12.23,20.66Z"/><path class="cls-2" d="M474.87,256.28H498.8c-4,6.84-7.82,13.46-12,20.23Z"/><path class="cls-2" d="M436.35,305.13l-12-20.26h23.94Z"/><path class="cls-2" d="M469.8,190.54c-3.56-6.69-7.84-12.89-11.33-19.69H481.3C481,172.44,471.45,188.89,469.8,190.54Z"/><path class="cls-2" d="M464.89,193.54H441.47l11.7-19.89Z"/><path class="cls-2" d="M508.75,313.42H532.3l-11.76,19.85C516.63,326.69,512.79,320.21,508.75,313.42Z"/><path class="cls-2" d="M503.7,316.22c4,6.69,7.78,13.13,11.74,19.8H492Z"/><path class="cls-2" d="M453.22,276.22,441.64,256.5h22.91C461.17,263.11,457,269.21,453.22,276.22Z"/><path class="cls-2" d="M475.35,193.43c3.86-6.53,7.61-12.87,11.51-19.45l11.54,19.45Z"/><path class="cls-2" d="M509.05,256.51H532c-3.74,6.52-7.49,12.78-11.36,19.36C516.55,269.49,513,263.07,509.05,256.51Z"/><path class="cls-2" d="M408,307.34c3.85-6.5,7.6-12.83,11.5-19.39,3.88,6.54,7.63,12.86,11.49,19.39Z"/><path class="cls-2" d="M436.35,316.47c3.91,6.63,7.63,12.92,11.46,19.4H424.87Z"/><path class="cls-2" d="M419.59,332.92l-11.45-19.27h22.5c-.61,2.43-2.52,4.15-3.59,6.32s-2.35,4.2-3.55,6.29S420.65,330.27,419.59,332.92Z"/><path class="cls-2" d="M458.78,221.75c3.43-6.73,7.59-12.69,11-19.15C471,203.71,480,219,481.19,221.75Z"/><path class="cls-2" d="M436.35,190.33,425,171.15h22.66C443.93,177.49,440.23,183.75,436.35,190.33Z"/><path class="cls-2" d="M436.36,260.1c1.31,1.54,10.51,17,11.1,18.73H425.3C425.87,277.16,434.9,261.92,436.36,260.1Z"/><path class="cls-2" d="M442.16,199.69h22.19c-3.43,6.49-7.42,12.53-10.94,18.88C452.11,217.34,442.93,201.91,442.16,199.69Z"/><path class="cls-2" d="M475.56,199.69h22.61l-11.3,19.07Z"/><path class="cls-2" d="M459.05,342.29H480.8c-.67,1.8-9.86,17.47-11,18.65C466.41,354.7,462.49,348.81,459.05,342.29Z"/><path class="cls-2" d="M498.1,250.24H475.65l11.21-19Z"/><path class="cls-2" d="M469.79,146c1.31,1.29,9.6,15.21,11.08,18.49-1.46.38-19.44.47-21.8.08C462.37,158.16,466.37,152.27,469.79,146Z"/><path class="cls-2" d="M436.34,145.74l11.18,18.9H425.17Z"/><path class="cls-2" d="M459.31,228.18h21.46c-.55,1.86-9.36,17-10.76,18.46C468.5,245,459.88,230.13,459.31,228.18Z"/><path class="cls-2" d="M464,250.16H442.26c3.55-6.33,7.24-12.29,10.95-18.78C456.72,238,460.7,243.68,464,250.16Z"/><path class="cls-2" d="M503.7,203l10.92,18.47H492.77Z"/><path class="cls-2" d="M492.87,171.41h21.64c-3.61,6.11-7.12,12.07-10.8,18.31Z"/><path class="cls-2" d="M514.6,228.34c-3.7,6.11-7,12.19-10.75,18-.68-.11-.78-.72-1-1.14-2.47-4-4.94-8.09-7.21-12.26-.82-1.5-2.17-2.72-2.58-4.6Z"/><path class="cls-2" d="M436.45,203.34l10.66,18.06H425.93C426.22,220.05,434.14,206.41,436.45,203.34Z"/><path class="cls-2" d="M520.56,231.8c3.51,6.29,7.24,12,10.51,18.14H509.85Z"/><path class="cls-2" d="M453.28,160.56c-1.14-1.15-9.3-14.85-10.37-17.39,1.47-.38,17.1-.52,20.49-.18C462.84,144.81,455,158.46,453.28,160.56Z"/><path class="cls-2" d="M436.42,360.35c-3.82-5.91-7-11.82-10.65-17.74h21C443.5,348.6,439.88,354.28,436.42,360.35Z"/><path class="cls-2" d="M419.44,175.16c1.2,1.61,9.65,15.66,10.54,17.53H409C412.49,186.86,415.73,180.94,419.44,175.16Z"/><path class="cls-2" d="M493.19,342.67h20.94l-10.36,17.52C500,354.54,497,348.6,493.19,342.67Z"/><path class="cls-2" d="M402.61,317.56l10.54,17.79H392.48C395.37,329.25,399.32,323.83,402.61,317.56Z"/><path class="cls-2" d="M392.38,285.69h20.81c-3.52,5.94-6.95,11.75-10.56,17.83C399.28,297.36,395.46,291.85,392.38,285.69Z"/><path class="cls-2" d="M520.63,217.66C516.8,212,513.85,206,510,200.15h20.83C527.66,206.14,524,211.76,520.63,217.66Z"/><path class="cls-2" d="M510,192.67c3.84-5.79,6.74-11.73,10.59-17.38,3.43,5.88,6.92,11.45,10.16,17.38Z"/><path class="cls-2" d="M429.94,143.11c-3.68,5.78-6.68,11.64-10.49,17.43l-10.3-17.43Z"/><path class="cls-2" d="M426.22,228.6h20.22c-.51,1.61-7.83,14.25-9.94,17.2C435.28,244.66,426.7,230.33,426.22,228.6Z"/><path class="cls-2" d="M419.5,274.75,409.17,257.2h20.7Z"/><path class="cls-2" d="M419.49,217.34c-3.66-5.57-6.69-11.29-10.05-16.81,1.28-.47,17.05-.61,20.3-.14C426.18,205.94,423.27,211.76,419.49,217.34Z"/><path class="cls-2" d="M412.64,164.19H392.56a77.18,77.18,0,0,1,4.88-8.66c1.73-2.77,3.2-5.7,5-8.42C403.72,148.3,412.08,162.29,412.64,164.19Z"/><path class="cls-2" d="M375.84,314.33h20.28L386,331.5C384.88,330.41,376.56,316.35,375.84,314.33Z"/><path class="cls-2" d="M402.5,188.82c-3.12-5.87-6.86-11.16-9.83-17.12h19.77C412.26,173,405,185.51,402.5,188.82Z"/><path class="cls-2" d="M497,143.25l-10.14,17.19c-3.19-5.92-6.84-11.25-9.89-17.19Z"/><path class="cls-2" d="M493.51,164.13c3.43-5.8,6.74-11.4,10.19-17.22l10.17,17.22Z"/><path class="cls-2" d="M453.25,346.29c3.21,6.26,7,11.51,10,17.48H443Z"/><path class="cls-2" d="M487,346.65l10.09,17.06H477.12C477.74,361.77,484.94,349.25,487,346.65Z"/><path class="cls-2" d="M385.84,289.3,396,306.61H375.67Z"/><path class="cls-2" d="M402.62,261.62c1.38,1.65,9.4,15.13,9.77,16.51H393.15C393.37,276.66,400.7,263.9,402.62,261.62Z"/><path class="cls-2" d="M369.15,318.39c3,5.72,6.63,10.81,9.53,16.61H359.55C359.84,333.34,365.14,324.12,369.15,318.39Z"/><path class="cls-2" d="M419.5,232.68c3.38,5.72,6.59,11.15,9.92,16.8H409.61C412.88,243.92,416.11,238.45,419.5,232.68Z"/><path class="cls-2" d="M385.68,159.63c-2.92-5.45-6.23-10.57-9.39-16.11H395C394.76,144.49,387,158.1,385.68,159.63Z"/><path class="cls-2" d="M402.55,204.76c3.5,5.14,6.17,10.45,9.31,15.49.05.08,0,.24-.06.47H393.42C396,215.19,399.62,210.29,402.55,204.76Z"/><path class="cls-2" d="M412.29,343.2l-9.64,16.26-9.57-16.26Z"/><path class="cls-2" d="M443.73,135.15,453.22,119c3,5.62,6.44,10.57,9.31,16.12Z"/><path class="cls-2" d="M342.57,314.72h18.88c-2.79,5.5-6.09,10.53-9.2,15.88C348.65,325.51,346.1,320,342.57,314.72Z"/><path class="cls-2" d="M359.39,286.22h18.9c-2.82,5.57-6.26,10.54-9.19,15.9C365.56,297,363,291.51,359.39,286.22Z"/><path class="cls-2" d="M429,363.37H410.24c2.8-5.5,6.12-10.48,9.19-15.92C422.89,352.62,425.64,358,429,363.37Z"/><path class="cls-2" d="M402.5,244.65l-8.95-15.15c1.58-.48,14.48-.62,18.1-.26C411.38,230.44,404,242.88,402.5,244.65Z"/><path class="cls-2" d="M419.45,119.42c3.27,5.3,6.28,10.37,9.23,15.66H410.53C413,129.58,416.56,124.83,419.45,119.42Z"/><path class="cls-2" d="M395,257.86c-2.92,5.34-6.2,10.2-8.85,15.34a.8.8,0,0,1-.77-.43c-1.4-2.51-2.79-5-4.22-7.52-1.26-2.2-2.87-4.19-3.92-6.52a1,1,0,0,1-.16-.87Z"/><path class="cls-2" d="M520.72,347.74c2.72,5.35,6.19,10,8.84,15.44H511.65C511.91,362.11,519.06,349.86,520.72,347.74Z"/><path class="cls-2" d="M462.37,371.86l-9.13,15.48c-3.36-5-5.89-10.26-9.05-15,.1-.27.12-.34.15-.4a.27.27,0,0,1,.15-.09Z"/><path class="cls-2" d="M359.62,343.31h18.1c-.26,1.43-6.7,12.75-8.73,15.33C365.66,353.78,363.21,348.45,359.62,343.31Z"/><path class="cls-2" d="M343,306.11c3.13-5.19,5.8-10.4,9.21-15.39,3,5.15,6.24,10,8.94,15.39Z"/><path class="cls-2" d="M385.81,176.24c3.12,5.52,6.07,10.56,9.26,15.74H376.7C379.63,186.71,382.87,181.86,385.81,176.24Z"/><path class="cls-2" d="M486.74,387.17C484,382,480.59,377.33,478,372h17.58C495.29,373.29,490.37,381.79,486.74,387.17Z"/><path class="cls-2" d="M511.26,143.75h18.16c-2.53,5.37-6,10-8.71,15.31C517.16,154.21,514.86,148.83,511.26,143.75Z"/><path class="cls-2" d="M378,163.46H360.23c.28-1.06,6.93-12.44,8.91-15.19C371.88,153.44,375.15,158.17,378,163.46Z"/><path class="cls-2" d="M335.25,319.6c3.21,4.81,5.92,9.81,8.9,14.92H326.63C329.18,329.25,332.47,324.58,335.25,319.6Z"/><path class="cls-2" d="M377,200.92h17.4C394.11,202.3,388,213,386,215.78,384.92,214.81,378.48,204.09,377,200.92Z"/><path class="cls-2" d="M486.76,119.84c3.37,4.85,5.81,10,8.94,14.75-1.44.45-14.26.59-17.56.19C480.68,129.58,484,125,486.76,119.84Z"/><path class="cls-2" d="M377,248.93c3-5.1,5.85-9.94,8.81-15l8.79,15Z"/><path class="cls-2" d="M377.44,172.52c-.81,2.18-6.17,11.44-8.4,14.52-3.37-4.51-5.58-9.67-8.88-14.52Z"/><path class="cls-2" d="M469.93,376.42c3.19,5.09,5.72,10.06,9,14.92H461.3C464.06,386.4,467.18,381.78,469.93,376.42Z"/><path class="cls-2" d="M377.15,134.77,385.84,120c2.82,4.82,5.55,9.46,8.27,14.12a.51.51,0,0,1-.06.66Z"/><path class="cls-2" d="M386,348.21c2.72,4.91,5.55,9.71,8.66,14.7H377.48C377.69,361.93,385,349.34,386,348.21Z"/><path class="cls-2" d="M377.77,277.31H360.15c3.25-4.82,5.6-9.88,8.91-14.71Z"/><path class="cls-2" d="M436.46,130.14c-3.31-4.73-5.67-9.66-8.59-14.26,1.37-.4,14.21-.5,16.92-.12C442.28,120.64,439.19,125.13,436.46,130.14Z"/><path class="cls-2" d="M444.76,391.34H427.9c2.84-4.8,5.34-9.61,8.53-14.35C439.1,381.87,442.14,386.31,444.76,391.34Z"/><path class="cls-2" d="M469.8,130c-2.55-4.83-5.48-9.36-8.3-14.24h16.71C478,116.67,471,128.75,469.8,130Z"/><path class="cls-2" d="M411.2,372.31h16.55c-2.41,4.89-5.32,9.33-8.24,14.15C416.63,381.73,413.74,377.25,411.2,372.31Z"/><path class="cls-2" d="M335.26,357.74c-2.55-4.67-5.51-8.94-7.93-13.54,1.37-.52,13.89-.6,16-.08C340.73,348.69,338.16,353.23,335.26,357.74Z"/><path class="cls-2" d="M528.37,372.55c-.7,2-5.55,10.4-7.81,13.48-3.11-4.23-5.33-8.95-8.07-13.36C513.89,372.25,526,372.17,528.37,372.55Z"/><path class="cls-2" d="M402.54,129.73c-2.51-4.92-5.51-9.14-8-13.9h16.38C408,120.36,405.75,125.07,402.54,129.73Z"/><path class="cls-2" d="M369.11,206.25c2.77,4.69,5.39,9.15,8.13,13.81H360.71C363.72,215.55,365.84,210.73,369.11,206.25Z"/><path class="cls-2" d="M352.22,158.1c-2.81-4.64-5.53-9-8.15-13.8h16.1C357.9,149.12,354.75,153.33,352.22,158.1Z"/><path class="cls-2" d="M335.27,300.77c-2.61-4.75-5.58-8.94-8-13.89,5.4,0,10.56,0,16,0C341,291.72,338.15,296,335.27,300.77Z"/><path class="cls-2" d="M318.34,329.33c-2.47-4.87-5.39-9.09-8-13.79h16.31C323.7,320,321.55,324.76,318.34,329.33Z"/><path class="cls-2" d="M360.83,230H377c-2.5,4.69-5.47,8.88-7.86,13.58C366,239.27,364,234.5,360.83,230Z"/><path class="cls-2" d="M503.68,377.22c2.73,4.75,5.59,9,8,13.81H495.74C498.07,386.25,501.05,382,503.68,377.22Z"/><path class="cls-2" d="M512.56,134.42c2.68-4.55,5-9.07,8.09-13.48,2.51,4.63,5.49,8.75,7.82,13.48Z"/><path class="cls-2" d="M469.82,414.42,462,401.18h15.71C477.45,402.35,470.88,413.45,469.82,414.42Z"/><path class="cls-2" d="M360,258.44c-2.28,4.77-5.3,8.92-7.77,13.43-2.77-4.39-5.42-8.75-7.94-13.43Z"/><path class="cls-2" d="M352.22,349c2.5,4.66,5.49,8.82,7.89,13.6H344.18C346.77,357.87,349.42,353.51,352.22,349Z"/><path class="cls-2" d="M428.65,401.22H444c-2.13,4.6-5.22,8.54-7.53,13.25C433.53,410,431.14,405.73,428.65,401.22Z"/><path class="cls-2" d="M503.72,129.37c-2.62-4.56-5.4-8.7-7.74-13.3h15.39C509.16,120.63,506.28,124.69,503.72,129.37Z"/><path class="cls-2" d="M352.22,178c2.45,4.62,5.39,8.64,7.61,13.27h-15.3C346.81,186.63,349.53,182.47,352.22,178Z"/><path class="cls-2" d="M318.44,292.35c3,4.15,5,8.7,7.84,12.94H311.11C311.19,303.7,315.83,297.12,318.44,292.35Z"/><path class="cls-2" d="M369.15,129c-3-4.14-5-8.58-7.72-12.82h15.11C374.26,120.56,371.39,124.51,369.15,129Z"/><path class="cls-2" d="M385.85,385.63c-2.71-4.23-4.71-8.58-7.73-12.75h15.31C390.64,377.07,388.52,381.34,385.85,385.63Z"/><path class="cls-2" d="M359.68,248.25h-15c2.3-4.46,4.88-8.54,7.54-12.8C354.66,239.79,357.45,243.76,359.68,248.25Z"/><path class="cls-2" d="M344.72,201.69h14.87c-2,4.54-5.08,8.35-7.33,12.93C349.6,210.27,347,206.23,344.72,201.69Z"/><path class="cls-2" d="M344.74,134.12c2.24-4.41,4.84-8.42,7.48-12.75,2.4,4.39,5.19,8.28,7.39,12.75Z"/><path class="cls-2" d="M453.25,406.53l7.37,12.5c-1.58.44-12.69.52-14.95.11C448.36,415.11,450.31,410.72,453.25,406.53Z"/><path class="cls-2" d="M410.07,390.71H395.22c2.26-4.4,5.07-8.25,7.31-12.71C405.38,382.14,407.56,386.32,410.07,390.71Z"/><path class="cls-2" d="M335.24,150c2.68,4.06,5,8.15,7.43,12.43H328.05C330.14,158.11,333,154.31,335.24,150Z"/><path class="cls-2" d="M342.44,173.32c-2.12,4.32-4.64,8.14-7.16,12.31-2.31-4.23-5-7.95-7.11-12.31Z"/><path class="cls-2" d="M496.4,401.45h14.5c-1.94,4.47-4.84,8.2-7.16,12.6C501.28,409.8,498.61,405.92,496.4,401.45Z"/><path class="cls-2" d="M477.38,105.45H462.7c2.42-4.13,4.77-8.13,7.26-12.39C472.75,97.1,474.69,101.37,477.38,105.45Z"/><path class="cls-2" d="M486.64,406.91a74,74,0,0,1,7.18,12.25H479.63C481.74,414.87,484.56,411.17,486.64,406.91Z"/><path class="cls-2" d="M294.33,333.46c2.61-3.92,4.62-8.1,7.32-12.33,2.64,4.21,4.65,8.37,7.29,12.22C307.34,333.82,296.63,333.9,294.33,333.46Z"/><path class="cls-2" d="M328.14,276.4c2.07-4.22,4.89-7.94,7.07-12.28,2.66,4.05,5,8,7.2,12.1C341.05,276.72,330.87,276.85,328.14,276.4Z"/><path class="cls-2" d="M436.43,93.2c2.14,4.36,4.9,7.89,7,12.22-2.43,0-4.66,0-6.88,0s-4.54,0-7.1,0C431.34,101.15,433.93,97.46,436.43,93.2Z"/><path class="cls-2" d="M412.75,418.77c1.86-4,4.49-7.48,6.74-11.63,2.33,4.12,4.88,7.69,6.78,11.65C424.71,419.28,414.19,419.27,412.75,418.77Z"/><path class="cls-2" d="M520.7,407.16c2,4.32,4.72,7.71,6.68,11.8H513.82A107.41,107.41,0,0,1,520.7,407.16Z"/><path class="cls-2" d="M395.8,401.77h13.46a110.46,110.46,0,0,1-6.62,11.5Z"/><path class="cls-2" d="M335.17,207.38c2.47,4.19,5,7.79,6.9,11.93H328.58C330.26,215.13,333.33,211.87,335.17,207.38Z"/><path class="cls-2" d="M503.71,93.29c2.21,4.25,4.88,7.7,6.67,11.66-1.4.47-9.74.61-13.43.21C498.72,101,501.53,97.55,503.71,93.29Z"/><path class="cls-2" d="M493.51,88A128.37,128.37,0,0,1,487,99.27c-1-.91-5.35-8.15-6.67-11a1,1,0,0,1,.1-.18s.09-.12.13-.12Z"/><path class="cls-2" d="M453.22,99.52c-2.48-3.82-4.47-7.51-6.53-11.2,1.41-.45,9.8-.56,13.19-.18Z"/><path class="cls-2" d="M325.36,361.81h-13.6c.61-2.27,2.34-3.76,3.28-5.71s2.11-3.71,3.29-5.75C321.18,353.85,322.81,357.86,325.36,361.81Z"/><path class="cls-2" d="M328.5,230.7H342a127.6,127.6,0,0,1-6.68,11.3Z"/><path class="cls-2" d="M294.76,344.87h13.79c-2.65,3.63-4.32,7.56-6.87,11.27C299,352.58,297.48,348.55,294.76,344.87Z"/><path class="cls-2" d="M396,105.08c2.15-4,4.61-7.33,6.51-11.38a111,111,0,0,1,6.68,11.38Z"/><path class="cls-2" d="M358.91,373.28l-6.74,11.22c-2.18-3.76-4.53-7.16-6.56-11.2C350.06,373.27,354.22,373.29,358.91,373.28Z"/><path class="cls-2" d="M301.64,299l-6.41-11.19h12.86Z"/><path class="cls-2" d="M459.86,430.5c-2.46,3.66-4.32,7.32-6.58,11-2.61-3.42-4.28-7.24-6.63-11Z"/><path class="cls-2" d="M486.77,441.4l-6.45-10.83h13A96.48,96.48,0,0,1,486.77,441.4Z"/><path class="cls-2" d="M527.08,430.56l-6.44,10.8a94.67,94.67,0,0,1-6.53-10.8Z"/><path class="cls-2" d="M318.39,270.09c-2.24-3.61-3.93-7.24-6.52-10.72H324.8C322.69,263,320.94,266.62,318.39,270.09Z"/><path class="cls-2" d="M369.1,379.16c2.07,3.83,4.21,7.26,6.44,10.95H362.7A112.29,112.29,0,0,1,369.1,379.16Z"/><path class="cls-2" d="M527,88.27c-2,3.81-4.46,7-6.31,11.09a120.94,120.94,0,0,1-6.41-10.81C515.47,88,522.53,87.86,527,88.27Z"/><path class="cls-2" d="M503.7,436.4l6.5,10.88H497.35C499.2,443.43,501.63,440.14,503.7,436.4Z"/><path class="cls-2" d="M335.31,127.67c-2.16-3.62-4.24-7.09-6.54-10.93l6.41,0h6.42C339.91,120.67,337.44,124,335.31,127.67Z"/><path class="cls-2" d="M463.5,447.19c2.53-3.47,4.14-7.07,6.27-10.38,1.34,1.08,5.28,7.59,6.29,10.38Z"/><path class="cls-2" d="M311.73,145.37h12.78c-.36,1.58-3.79,7.56-6.1,10.62C316,152.69,314.58,148.88,311.73,145.37Z"/><path class="cls-2" d="M285,327.19a102.45,102.45,0,0,1-6.17-10.38c1.38-.47,10.06-.54,12.22-.07C289,320.19,286.83,323.43,285,327.19Z"/><path class="cls-2" d="M312.09,190.44c2.17-3.69,4.22-7.17,6.33-10.77a114.27,114.27,0,0,1,6.32,10.77Z"/><path class="cls-2" d="M413.4,88.37h12.1c-1.39,3.76-4.09,6.74-6,10.7C417.58,95.21,415.07,92.15,413.4,88.37Z"/><path class="cls-2" d="M419.48,441l-6-10c1.42-.48,8.3-.61,12.06-.24C423.86,434.32,421.56,437.46,419.48,441Z"/><path class="cls-2" d="M312.24,202.48H324.6A105.44,105.44,0,0,1,318.42,213Z"/><path class="cls-2" d="M503.75,469.56l-6.16-10.22h12.1C507.94,462.87,505.65,465.94,503.75,469.56Z"/><path class="cls-2" d="M318.38,237.19c2.53,3.17,4,6.67,6.18,10.08H312.29C314.67,244,316.21,240.55,318.38,237.19Z"/><path class="cls-2" d="M509.9,59.81l-6.06,10c-.19-.08-.28-.09-.31-.14-1.77-2.89-3.55-5.76-5.29-8.68-.56-.93-.41-1.2.61-1.2C502.37,59.79,505.89,59.81,509.9,59.81Z"/><path class="cls-2" d="M520.68,465.35l6,10.11H514.43C516.49,472,518.1,468.54,520.68,465.35Z"/><path class="cls-2" d="M492.86,76.24H480.67l6.11-10.32A77.23,77.23,0,0,1,492.86,76.24Z"/><path class="cls-2" d="M363.07,104.67a106.91,106.91,0,0,1,6-10.35c1.91,3.55,3.88,6.84,5.93,10.12C373.6,104.93,366.24,105.06,363.07,104.67Z"/><path class="cls-2" d="M318.44,123.08a111.43,111.43,0,0,1,6.1,10.21H312.37c.77-1.91,2.12-3.32,3-5A36.57,36.57,0,0,1,318.44,123.08Z"/><path class="cls-2" d="M520.64,66.07l6,10.06H514.57A81.16,81.16,0,0,1,520.64,66.07Z"/><path class="cls-2" d="M464,60h11.87C474,63.41,472.15,66.62,470,70,467.8,66.7,466.35,63.26,464,60Z"/><path class="cls-2" d="M514.71,487.75H526.5c-1.93,3.47-4.06,6.55-5.86,10.15A105.85,105.85,0,0,1,514.71,487.75Z"/><path class="cls-2" d="M430.24,447l6.08-10.19L442.47,447Z"/><path class="cls-2" d="M459.27,76.15h-12a91.2,91.2,0,0,1,5.91-9.93C455.44,69.32,456.9,72.83,459.27,76.15Z"/><path class="cls-2" d="M307.17,174.15a16.74,16.74,0,0,1-2,3.87c-.94,1.69-1.91,3.36-2.85,5-.39.68-.84.93-1.3.13-1.69-2.92-3.34-5.87-5.14-9Z"/><path class="cls-2" d="M307.38,161.62H295.91c2-3.29,3.52-6.56,5.73-9.74C303.87,155.06,305.39,158.34,307.38,161.62Z"/><path class="cls-2" d="M509.35,504H498.08c1.35-3.6,4-6.36,5.59-10.05C505.39,497.53,507.85,500.3,509.35,504Z"/><path class="cls-2" d="M391.48,418.34H380.21c1.62-3.48,3.73-6.58,5.65-10.16C387.71,411.79,389.84,414.83,391.48,418.34Z"/><path class="cls-2" d="M492.65,475.4H481l5.72-9.67C489.09,468.74,490.68,472,492.65,475.4Z"/><path class="cls-2" d="M290.68,304.27H279.13a85.33,85.33,0,0,1,5.72-9.91C286.83,297.73,288.7,300.89,290.68,304.27Z"/><path class="cls-2" d="M497.93,47.42l5.77-9.53c1.95,3.22,3.78,6.25,5.75,9.53Z"/><path class="cls-2" d="M514.84,31.61h11.1c-.17.94-3.68,7.13-5.37,9.44A83,83,0,0,1,514.84,31.61Z"/><path class="cls-2" d="M380.35,88.65H391.3c-1.44,3.46-3.69,6.36-5.4,10C384,95.1,381.92,92.12,380.35,88.65Z"/><path class="cls-2" d="M481.35,488h11.13c-1.57,3.45-3.71,6.34-5.47,9.45A70.3,70.3,0,0,1,481.35,488Z"/><path class="cls-2" d="M279.07,361.27c2-3.33,3.52-6.52,5.8-9.48,2.12,3,3.42,6.31,5.8,9.32a45.88,45.88,0,0,1-5.77.15C283.09,361.29,281.28,361.27,279.07,361.27Z"/><path class="cls-2" d="M318.34,383.35c-1.91-3.05-3.38-6.33-5.72-9.45h11.1C323.55,375.26,320.57,380.55,318.34,383.35Z"/><path class="cls-2" d="M307.3,275.61H296.06c.94-1.72,1.81-3.34,2.72-4.95.72-1.28,1.48-2.55,2.25-3.8.32-.53.74-.84,1.18-.08Z"/><path class="cls-2" d="M469.82,468.94l-5.43-9.44h10.9C475,461,471.26,467.48,469.82,468.94Z"/><path class="cls-2" d="M520.64,9.21c1.67,3.6,3.76,6.51,5.62,9.82H515C516.52,15.56,518.71,12.66,520.64,9.21Z"/><path class="cls-2" d="M369.08,411.92a77.05,77.05,0,0,1-5.54-9.46h11C372.72,405.66,370.93,408.74,369.08,411.92Z"/><path class="cls-2" d="M335.27,380.38c1.26,2,2.43,3.75,3.53,5.57.68,1.12,1.27,2.32,1.9,3.49-1.46.41-7.79.51-10.92.15Z"/><path class="cls-2" d="M301.64,208.83l5.53,9.74H296.12Z"/><path class="cls-2" d="M273.47,332.68H262.55c1.38-3.38,3.77-6,5.45-9.63C269.58,326.7,272,329.31,273.47,332.68Z"/><path class="cls-2" d="M481.25,31.86h11a94.48,94.48,0,0,1-5.39,9C484.8,38,483.53,34.8,481.25,31.86Z"/><path class="cls-2" d="M436.2,69.22c-1.68-3-3.64-5.74-5.27-8.95h10.61A68.33,68.33,0,0,1,436.2,69.22Z"/><path class="cls-2" d="M464.71,503.75c1.49-3.29,3.44-6.15,5.19-9.37a83,83,0,0,1,5.58,9.37Z"/><path class="cls-2" d="M306.77,117.46c-1.55,3.05-3.17,5.85-5,8.89a79.27,79.27,0,0,1-5.27-8.89Z"/><path class="cls-2" d="M419.48,66.8c1.86,3.09,3.73,5.81,5.36,9H414.11C415.89,72.77,417.59,69.94,419.48,66.8Z"/><path class="cls-2" d="M470,38.36c2.14,2.69,3.36,5.85,5.38,8.84H465.14C465.34,46,468.43,40.34,470,38.36Z"/><path class="cls-2" d="M306.85,231.56l-5.05,8.9c-2.28-2.78-3.49-5.92-5.42-8.9Z"/><path class="cls-2" d="M458.21,488.18c-1.39,3.13-3.38,5.7-4.85,8.95-2.1-3-3.63-5.89-5.38-8.95Z"/><path class="cls-2" d="M408,446.47H397.23c2.11-2.86,3.46-5.88,5.33-8.83C404.65,440.44,406.12,443.39,408,446.47Z"/><path class="cls-2" d="M340.52,104.37H330c1.45-3.21,3.75-5.77,5.16-9.3C337,98.44,339.23,101,340.52,104.37Z"/><path class="cls-2" d="M357.31,89c-1.43,3.13-3.63,5.6-5.05,9-1.63-3.29-3.87-5.74-5.15-9Z"/><path class="cls-2" d="M262.59,345.67h10.73c-1.8,3-3.49,5.82-5.33,8.88Z"/><path class="cls-2" d="M448.26,475a3.86,3.86,0,0,1,.86-1.87c1.33-2.16,2.22-4.58,4.16-6.64,1.92,2.65,3.23,5.6,5,8.51Z"/><path class="cls-2" d="M492.1,18.86c-3.39,0-6.46,0-9.53,0-.86,0-1-.48-.36-1.37a47.82,47.82,0,0,0,3.24-5.3A6.28,6.28,0,0,1,486.94,10C488.57,12.9,490.57,15.56,492.1,18.86Z"/><path class="cls-2" d="M380.7,431.21h10.19a91.14,91.14,0,0,1-5,8.83A98.5,98.5,0,0,1,380.7,431.21Z"/><path class="cls-2" d="M289.92,203l-5,8.64c-1.12-1.74-2.19-3.33-3.18-5-.65-1.07-1.19-2.21-2-3.67Z"/><path class="cls-2" d="M289.89,189.77h-9.95a43.44,43.44,0,0,1,4.91-8.38C286.76,184.05,288,186.88,289.89,189.77Z"/><path class="cls-2" d="M441.64,459.86c-2.06,2.74-3.38,5.64-5.19,8.56-2-2.78-3.53-5.6-5.29-8.56Z"/><path class="cls-2" d="M279.64,146.12H290c-2,2.75-3.26,5.7-5.1,8.48C282.83,152,281.53,149.11,279.64,146.12Z"/><path class="cls-2" d="M453.25,40.31c-2.13-2.48-3.18-5.4-5.08-8.23,1.85-.18,3.41-.08,5-.1s3.07,0,5,0C456.45,34.89,455.09,37.69,453.25,40.31Z"/><path class="cls-2" d="M436.36,38.79c1.89,2.78,3,5.64,5.12,8.23h-9.94A91.87,91.87,0,0,1,436.36,38.79Z"/><path class="cls-2" d="M289.62,374.43l-4.69,8.07a80.11,80.11,0,0,1-5-8.07Z"/><path class="cls-2" d="M263.2,288.79h9.54c-1.28,2.95-3.45,5.17-4.74,8C266.67,294,264.49,291.85,263.2,288.79Z"/><path class="cls-2" d="M470,11.75a78.64,78.64,0,0,1-4.64-8.2h9.38A45.94,45.94,0,0,1,470,11.75Z"/><path class="cls-2" d="M289.85,132.48h-10c1.61-2.84,3.14-5.46,5-8.15C286.67,127,287.82,129.83,289.85,132.48Z"/><path class="cls-2" d="M297.12,389.22a62.46,62.46,0,0,1,4.52-8,68.54,68.54,0,0,1,4.55,8Z"/><path class="cls-2" d="M352.06,409.54l4.95,8.28h-9.42C348.41,414.74,351,412.69,352.06,409.54Z"/><path class="cls-2" d="M398,60.76h9.31a69.61,69.61,0,0,1-4.71,8Z"/><path class="cls-2" d="M330.54,402.87h9.3c-.9,3-3.13,5.12-4.5,8C333.72,408.18,332.22,405.66,330.54,402.87Z"/><path class="cls-2" d="M448.48,18.44c1.6-2.75,3-5.24,4.52-7.75a36.36,36.36,0,0,1,4.55,7.75Z"/><path class="cls-2" d="M289.5,260.42l-4.56,8a77.52,77.52,0,0,1-4.9-8Z"/><path class="cls-2" d="M431.7,503.32c1.13-3,3.08-5.21,4.67-8.1,1.66,2.82,3.17,5.36,4.79,8.1Z"/><path class="cls-2" d="M280.18,246.49c1.47-2.71,2.92-5.14,4.7-7.8l4.52,7.8Z"/><path class="cls-2" d="M381.3,75.33a87.39,87.39,0,0,1,4.4-7.7,1.74,1.74,0,0,1,.92,1l3.77,6.6A32.41,32.41,0,0,1,381.3,75.33Z"/><path class="cls-2" d="M322.94,89.24A45.54,45.54,0,0,1,318.41,97a82.08,82.08,0,0,1-4.33-7.73Z"/><path class="cls-2" d="M263.23,161c1.66-2.74,3.14-5.16,4.77-7.84l4.65,7.84Z"/><path class="cls-2" d="M301.65,95.86c1.56,3,3.26,5.27,4.45,8.06h-8.91C298.39,101.1,300.09,98.76,301.65,95.86Z"/><path class="cls-2" d="M263.58,174.81h9.05c-1.43,2.74-3.29,5-4.45,7.71A47.19,47.19,0,0,1,263.58,174.81Z"/><path class="cls-2" d="M263.39,117.87h8.86c-.14,1.49-1.38,2.36-1.94,3.59a40.93,40.93,0,0,1-2.18,3.74c-1.16-1-1.58-2.32-2.33-3.45S264.32,119.38,263.39,117.87Z"/><path class="cls-2" d="M255.49,317.63c-1,2.69-2.85,4.8-4.28,7.45-1.92-2.29-2.83-5.05-4.56-7.28C247.9,317.29,253.12,317.19,255.49,317.63Z"/><path class="cls-2" d="M423.93,474.62h-9c1.51-2.55,2.91-4.94,4.38-7.45,1.2,1,1.67,2.43,2.4,3.65A16.89,16.89,0,0,1,423.93,474.62Z"/><path class="cls-2" d="M267.91,210.2c1.48,2.85,3,5.14,4.62,7.72h-8.91C264.66,215.18,266.79,213.18,267.91,210.2Z"/><path class="cls-2" d="M373.44,446.05h-8.95c1.43-2.62,2.87-5.05,4.59-7.61C370.56,441,371.94,443.44,373.44,446.05Z"/><path class="cls-2" d="M255.79,360.53h-9.36c1.92-2.44,2.92-5.16,4.71-7.67Z"/><path class="cls-2" d="M407.25,460.1c-1.56,2.75-2.91,5.1-4.62,7.61-1.69-2.37-2.7-4.95-4.53-7.55C401.28,460.05,404.08,460.12,407.25,460.1Z"/><path class="cls-2" d="M419.57,39.88c-1.78-2.5-2.75-5.06-4.83-7.54l4.72,0h4.32c-.23,1.54-1.33,2.47-2,3.62S420.42,38.36,419.57,39.88Z"/><path class="cls-2" d="M407,46.71h-8.52c1.4-2.49,2.68-4.78,4.08-7.26A49.92,49.92,0,0,1,407,46.71Z"/><path class="cls-2" d="M234.14,353.34l-4-7.16h8.42C237.07,348.59,236.1,351.08,234.14,353.34Z"/><path class="cls-2" d="M356.52,75.22h-8.3a.49.49,0,0,1,0-.64l3.9-6.46C353.85,70.36,354.81,72.88,356.52,75.22Z"/><path class="cls-2" d="M356.47,431.74c-1.46,2.47-2.82,4.79-4.28,7.28l-4.42-7.28Z"/><path class="cls-2" d="M255.27,374.79c-1,2.64-3,4.47-4,7.29L247,374.79Z"/><path class="cls-2" d="M268,267.63c1.64,2.39,2.68,4.84,4.46,7.18h-8.8Z"/><path class="cls-2" d="M263.71,388.88l4.27-7.1,4.23,7.1Z"/><path class="cls-2" d="M436.36,10.9A52.44,52.44,0,0,1,432.2,4h8.16A49.14,49.14,0,0,1,436.36,10.9Z"/><path class="cls-2" d="M247.06,303.28a78.69,78.69,0,0,1,4-7c1.44,2.47,3.16,4.42,4.1,6.85C254,303.61,249.61,303.71,247.06,303.28Z"/><path class="cls-2" d="M364.87,61.05h8.22c-1.37,2.41-2.64,4.67-4,7.06A67.49,67.49,0,0,1,364.87,61.05Z"/><path class="cls-2" d="M423.83,488.79c-1.32,2.6-3.1,4.59-4.24,7.35a70.81,70.81,0,0,0-4.62-7.35Z"/><path class="cls-2" d="M415.14,18.14a52.42,52.42,0,0,0,4.37-7.32c1.18,2.8,2.95,4.78,4.23,7.32Z"/><path class="cls-2" d="M230.14,331.84c1.42-2.45,2.7-4.66,4.09-7a65,65,0,0,1,4.18,7C235.57,332,233,331.92,230.14,331.84Z"/><path class="cls-2" d="M272.17,103.73h-8.29c1.1-2.52,2.78-4.46,4.08-7Z"/><path class="cls-2" d="M314.64,417.37a65.06,65.06,0,0,1,3.7-6.64,30.28,30.28,0,0,1,4.08,6.64Z"/><path class="cls-2" d="M255.36,146.65l-4.27,7-4-7Z"/><path class="cls-2" d="M381.75,32.59a75.93,75.93,0,0,1,8,0L386,39.4C384.18,37.36,383.43,34.94,381.75,32.59Z"/><path class="cls-2" d="M297.81,403.26h7.56c-.38,1.81-1.51,3.14-2.33,4.62-1.28,2.29-1.23,2.77-2.79,0A24.65,24.65,0,0,1,297.81,403.26Z"/><path class="cls-2" d="M365,460.41h8l-3.83,6.8A56.59,56.59,0,0,1,365,460.41Z"/><path class="cls-2" d="M263.76,232.19h8.35l-4.1,7C266.54,236.8,265.22,234.61,263.76,232.19Z"/><path class="cls-2" d="M284.88,96.32c-1.49-2.41-3.11-4.27-4-6.75h7.55a1.78,1.78,0,0,1-.39,1.38C287.07,92.66,286.05,94.35,284.88,96.32Z"/><path class="cls-2" d="M247.1,132l4-6.87,4.24,6.87Z"/><path class="cls-2" d="M402.61,10.67a51.88,51.88,0,0,1-3.68-6.56h7.49C405.57,6.61,404,8.47,402.61,10.67Z"/><path class="cls-2" d="M251.12,182.4c1.36,2.38,3,4.25,3.94,6.72h-7.7A43.25,43.25,0,0,1,251.12,182.4Z"/><path class="cls-2" d="M247.32,203.67H255c-.65,2.56-2.66,4.27-3.78,6.88A42.3,42.3,0,0,1,247.32,203.67Z"/><path class="cls-2" d="M389.79,474.32h-7.86c1.32-2.31,2.36-4.54,3.87-6.74C387.44,469.76,388.39,472.05,389.79,474.32Z"/><path class="cls-2" d="M230.73,118.32h7.21a27.24,27.24,0,0,1-3.69,6.12A32.89,32.89,0,0,1,230.73,118.32Z"/><path class="cls-2" d="M402.58,496.42a29,29,0,0,1,3.79,6.35h-7.29A40.2,40.2,0,0,1,402.58,496.42Z"/><path class="cls-2" d="M331.53,445.67l3.86-6.68c.95,2.55,2.71,4.31,3.81,6.68Z"/><path class="cls-2" d="M322.31,75h-7.46a47.59,47.59,0,0,1,3.5-6.34C320.08,70.46,321,72.66,322.31,75Z"/><path class="cls-2" d="M389.7,17.86H382l3.81-6.61C387.14,13.5,388.34,15.53,389.7,17.86Z"/><path class="cls-2" d="M365.11,46.48a67.57,67.57,0,0,1,4-6.51c1.2,2.12,2.34,4.12,3.6,6.33C370.17,46.63,367.79,46.36,365.11,46.48Z"/><path class="cls-2" d="M230.9,160.44a23.66,23.66,0,0,1,3.39-6c1.64,1.69,2.34,3.91,3.77,6Z"/><path class="cls-2" d="M247.41,260.89h7.41c-.83,2.35-2.68,4-3.62,6.56Z"/><path class="cls-2" d="M230.57,388.74a51.19,51.19,0,0,1,3.58-6.26c1.85,1.7,2.56,3.95,4,6.19C235.52,388.84,233.18,388.74,230.57,388.74Z"/><path class="cls-2" d="M237.89,217.51h-6.8a.69.69,0,0,1,0-.85l3-5.08A24.1,24.1,0,0,1,237.89,217.51Z"/><path class="cls-2" d="M221.15,360.1H213.7c1.36-2.13,2.16-4.33,3.9-6.28Z"/><path class="cls-2" d="M217.58,381.22a68.75,68.75,0,0,1-3.83-6.11H221C219.9,377.12,218.81,379,217.58,381.22Z"/><path class="cls-2" d="M214,318h6.87a31.17,31.17,0,0,1-3.29,6A22.62,22.62,0,0,1,214,318Z"/><path class="cls-2" d="M234.2,295.46a53.09,53.09,0,0,1-3.45-6h7.19A31.22,31.22,0,0,1,234.2,295.46Z"/><path class="cls-2" d="M339.06,61.36c-1,2.29-2.83,3.89-3.59,6.55l-3.79-6.57A72.58,72.58,0,0,1,339.06,61.36Z"/><path class="cls-2" d="M318.37,438.12c-1.37-1.89-2.23-3.91-3.48-6H322A22.4,22.4,0,0,1,318.37,438.12Z"/><path class="cls-2" d="M237.75,103.43H231c.71-2.24,2.12-3.91,3.19-6A22,22,0,0,1,237.75,103.43Z"/><path class="cls-2" d="M247.52,245.94l3.64-6.42c1,2.46,2.68,4.1,3.64,6.42Z"/><path class="cls-2" d="M352.15,468c1.42,2.05,2.31,4,3.49,6.09h-7.09Z"/><path class="cls-2" d="M369.12,10.26a23.2,23.2,0,0,1-3.57-6c2.3-.08,4.49,0,7,0-.63,1.18-1.13,2.17-1.67,3.13S369.78,9.16,369.12,10.26Z"/><path class="cls-2" d="M284.91,411.11l3.49,6h-7C282,414.88,283.62,413.28,284.91,411.11Z"/><path class="cls-2" d="M271.6,403.59c-1.23,2.08-2.33,4-3.59,6.07l-3.76-6.07Z"/><path class="cls-2" d="M385.85,495.43c-1.27-2.17-2.4-4.1-3.65-6.22h7.24Z"/><path class="cls-2" d="M331.8,460.66H339c-1.08,2.18-2.61,3.91-3.62,6.24Z"/><path class="cls-2" d="M237.79,175.57a35.34,35.34,0,0,1-3.58,5.92l-3.49-5.92Z"/><path class="cls-2" d="M247.57,89.83h7a8.59,8.59,0,0,1-1.64,3c-.62.85-1.13,1.79-1.87,3C249.85,93.86,248.77,92,247.57,89.83Z"/><path class="cls-2" d="M352.23,38.89c-1.39-1.94-2.13-4-3.62-5.72a18.44,18.44,0,0,1,6.92-.19Z"/><path class="cls-2" d="M237.7,403.6a20.58,20.58,0,0,1-3.53,5.68A38,38,0,0,1,231,403.6Z"/><path class="cls-2" d="M281.51,74.76a27.6,27.6,0,0,1,3.34-5.7,35.24,35.24,0,0,1,3.23,5.7Z"/><path class="cls-2" d="M335.28,40.32A56.43,56.43,0,0,0,339,46.21H332Z"/><path class="cls-2" d="M200.7,352.45,197.32,347a14.33,14.33,0,0,1,6.47-.1Z"/><path class="cls-2" d="M254.49,417h-6.6a38.9,38.9,0,0,1,3.26-5.71C252.11,413.41,253.72,414.82,254.49,417Z"/><path class="cls-2" d="M220.74,303H214.2a19.78,19.78,0,0,1,3.35-5.67A38.59,38.59,0,0,1,220.74,303Z"/><path class="cls-2" d="M352.2,12a58.49,58.49,0,0,1,3.15,5.56c-2.24.32-4.32.06-6.74.19Z"/><path class="cls-2" d="M298.39,61.51h6.48c-.81,2-2.08,3.65-3.2,5.83C300.49,65.27,299.33,63.57,298.39,61.51Z"/><path class="cls-2" d="M237.85,274.42H231a46.28,46.28,0,0,1,3.18-5.61C235.91,270.33,236.4,272.47,237.85,274.42Z"/><path class="cls-2" d="M234.23,238.06c-.29-.07-.42-.31-.54-.54l-2.75-4.93c2.28-.18,4.34-.09,6.43-.07A14.18,14.18,0,0,1,234.23,238.06Z"/><path class="cls-2" d="M298.47,460.89h6.21a51.54,51.54,0,0,1-2.55,4.82c-.33.7-.8.34-1-.09C300.23,464.14,299.42,462.62,298.47,460.89Z"/><path class="cls-2" d="M217.54,152.68a43.59,43.59,0,0,1-3.39-5.69H220c.57,0,.72.26.44.74C219.5,149.29,218.6,150.84,217.54,152.68Z"/><path class="cls-2" d="M217.54,126.07l3.23,5.54a54.41,54.41,0,0,1-6.64.1A39.89,39.89,0,0,1,217.54,126.07Z"/><path class="cls-2" d="M281.64,432.26h6.2a31.84,31.84,0,0,1-2.94,5.4A26.67,26.67,0,0,1,281.64,432.26Z"/><path class="cls-2" d="M203.73,388.37h-6.16c.58-2.07,2-3.52,3-5.37A32.56,32.56,0,0,1,203.73,388.37Z"/><path class="cls-2" d="M304.91,445.34a57.91,57.91,0,0,1-6.45.09c.7-1.92,1.91-3.37,2.71-5,.28-.57.72-.47,1,.1C303.06,442.06,303.94,443.61,304.91,445.34Z"/><path class="cls-2" d="M214.35,188.65a18.82,18.82,0,0,1,3.18-5.2,27.06,27.06,0,0,1,3,5.2Z"/><path class="cls-2" d="M214.28,204.13h6.21a27.36,27.36,0,0,1-2.89,5.32C216,207.92,215.28,206.08,214.28,204.13Z"/><path class="cls-2" d="M349.24,489.44h5.9a33.21,33.21,0,0,1-2.9,5.15c-1.31-1.56-1.95-3.39-3.28-4.78Z"/><path class="cls-2" d="M318.3,468.46c1.58,1.7,2.32,3.56,3.47,5.41a58.29,58.29,0,0,1-6.49.13C316.32,472.08,317.26,470.36,318.3,468.46Z"/><path class="cls-2" d="M369.08,497a31.68,31.68,0,0,1,3,5.42H366C366.45,500.37,367.88,498.9,369.08,497Z"/><path class="cls-2" d="M214.28,245.75a50.06,50.06,0,0,1,3.26-5.31c1,1.75,1.91,3.33,2.91,5.06C218.42,245.92,216.54,245.6,214.28,245.75Z"/><path class="cls-2" d="M214.31,90.14a32.14,32.14,0,0,1,6.13,0,49.22,49.22,0,0,1-2.83,5C216.14,93.7,215.46,92,214.31,90.14Z"/><path class="cls-2" d="M217.55,266.52a40.85,40.85,0,0,1-3.11-5.16h5.78c0,.14.07.29,0,.39C219.4,263.26,218.54,264.76,217.55,266.52Z"/><path class="cls-2" d="M200.61,325.73c1.14,1.95,2.1,3.58,3.18,5.41a47.72,47.72,0,0,1-6.31.19C198.08,329.18,199.72,327.88,200.61,325.73Z"/><path class="cls-2" d="M315.37,33.11h6.1a24.13,24.13,0,0,1-3,5.21C317.2,36.69,316.55,34.89,315.37,33.11Z"/><path class="cls-2" d="M214.43,416.79a21.84,21.84,0,0,1,3.07-4.91,39.65,39.65,0,0,1,3,4.9A33.6,33.6,0,0,1,214.43,416.79Z"/><path class="cls-2" d="M335.36,9.7a21.84,21.84,0,0,1-2.87-5.1,43.55,43.55,0,0,1,6-.07Z"/><path class="cls-2" d="M298.69,46c.89-1.63,1.62-3,2.41-4.39.26-.45.7-.7,1.06-.06.8,1.42,1.56,2.86,2.43,4.45Z"/><path class="cls-2" d="M284.89,468.71l2.76,5H282C282.63,472,283.83,470.62,284.89,468.71Z"/><path class="cls-2" d="M248.24,74.49a44.94,44.94,0,0,1,2.88-5c1.07,1.74,2,3.28,3.06,5Z"/><path class="cls-2" d="M197.54,160.17l3.06-5c1.25,1.42,1.72,3.17,2.9,4.75C201.51,160.36,199.77,160,197.54,160.17Z"/><path class="cls-2" d="M200.63,294.85c-.84-1.83-2.18-3-2.88-4.85a27.77,27.77,0,0,1,5.55-.06C202.72,291.79,201.61,293.13,200.63,294.85Z"/><path class="cls-2" d="M318.4,12.64a21.9,21.9,0,0,1,3,4.72h-5.61A22.5,22.5,0,0,1,318.4,12.64Z"/><path class="cls-2" d="M248.36,432.46h5.77l-2.95,5A22,22,0,0,1,248.36,432.46Z"/><path class="cls-2" d="M186.37,318.42c0,.71-.45,1.22-.73,1.79-.49,1-1.11,1.93-1.79,3.09a24.48,24.48,0,0,1-2.79-4.88Z"/><path class="cls-2" d="M299,502.2a14.18,14.18,0,0,1,2.73-4.58,25.4,25.4,0,0,1,2.53,4.58Z"/><path class="cls-2" d="M335.27,497.26c1.11,1.86,2,3.37,3,5.06h-5.6C333.11,500.49,334.32,499.15,335.27,497.26Z"/><path class="cls-2" d="M270.81,445.22h-5.7l2.87-5Z"/><path class="cls-2" d="M183.76,354.57l2.91,5.11h-5.41c-.06-.11-.19-.26-.16-.32C181.93,357.84,182.78,356.33,183.76,354.57Z"/><path class="cls-2" d="M318.39,494.43a34.08,34.08,0,0,1-2.68-4.8h5.64A20.35,20.35,0,0,1,318.39,494.43Z"/><path class="cls-2" d="M198.09,232.87h5.1a21.84,21.84,0,0,1-2.52,4.7c-1.13-1.45-1.69-3.09-2.86-4.33Z"/><path class="cls-2" d="M197.66,403.91h5.75a25.7,25.7,0,0,1-2.75,4.9A41.94,41.94,0,0,1,197.66,403.91Z"/><path class="cls-2" d="M265,61.75h5.84c-1,1.7-1.87,3.22-2.88,4.94Z"/><path class="cls-2" d="M186.56,375.54a36.8,36.8,0,0,1-2.84,4.71l-2.79-4.71Z"/><path class="cls-2" d="M203.31,103h-5.47c.52-1.88,2-3,2.72-4.8A20.2,20.2,0,0,1,203.31,103Z"/><path class="cls-2" d="M200.6,123.67l-2.93-4.86h5.58A18.1,18.1,0,0,1,200.6,123.67Z"/><path class="cls-2" d="M234.18,440.61A25,25,0,0,1,237,445a33.88,33.88,0,0,1-5.47.12C232.48,443.5,233.27,442.16,234.18,440.61Z"/><path class="cls-2" d="M299.14,4.71H304c.05.14.11.22.09.26A9.85,9.85,0,0,1,301.72,9C301.36,9.37,300.05,7.31,299.14,4.71Z"/><path class="cls-2" d="M265.29,461.11h5.36L268,465.85C267.05,464.19,266.21,462.73,265.29,461.11Z"/><path class="cls-2" d="M203.36,274h-5.55l2.73-4.52C201.9,270.73,202.27,272.44,203.36,274Z"/><path class="cls-2" d="M164.26,347h5.46l-2.84,4.72C166,350.09,165.21,348.69,164.26,347Z"/><path class="cls-2" d="M200.59,212.35a40.1,40.1,0,0,1,2.81,4.5h-5.48C198.47,215.15,199.8,214,200.59,212.35Z"/><path class="cls-2" d="M186.44,302.61h-5.1c.3-1.82,1.57-3,2.39-4.8A35.82,35.82,0,0,1,186.44,302.61Z"/><path class="cls-2" d="M287.45,33.32l-2.35,4.32a13.4,13.4,0,0,1-2.84-4.32Z"/><path class="cls-2" d="M197.7,176h5.53a24.44,24.44,0,0,1-2.56,4.53C199.66,179,198.76,177.59,197.7,176Z"/><path class="cls-2" d="M220.05,432.65a30.46,30.46,0,0,1-2.46,4.29c-1.46-1.08-1.77-2.78-2.81-4.29Z"/><path class="cls-2" d="M169.61,331h-5.25a31.25,31.25,0,0,1,2.52-4.38A32.64,32.64,0,0,1,169.61,331Z"/><path class="cls-2" d="M284.82,12.82a30.14,30.14,0,0,1,2.51,4.37h-5C282.7,15.5,284.06,14.54,284.82,12.82Z"/><path class="cls-2" d="M287.47,489.73l-2.57,4.46c-.89-1.65-2.16-2.74-2.75-4.46Z"/><path class="cls-2" d="M217.53,70.06A20.58,20.58,0,0,1,220,74.21c-1.68.4-3.23.1-5.07.22C215.69,72.73,216.24,71.23,217.53,70.06Z"/><path class="cls-2" d="M265.42,45.74c.91-1.57,1.69-2.91,2.58-4.46l2.5,4.46Z"/><path class="cls-2" d="M236.75,62a11.73,11.73,0,0,1-2.55,4,36,36,0,0,1-2.47-4Z"/><path class="cls-2" d="M169.19,388h-4.46a14.06,14.06,0,0,1,2-4.11c1.3,1.06,1.59,2.69,2.69,3.77Z"/><path class="cls-2" d="M236.72,461.13a19.51,19.51,0,0,1-2.5,4.26c-.77-1.31-1.49-2.53-2.28-3.89C233.52,460.86,235,461.35,236.72,461.13Z"/><path class="cls-2" d="M270.28,4.76A19.21,19.21,0,0,1,268.06,9,12.31,12.31,0,0,1,266,5.55c-.23-.46-.06-.77.48-.78C267.64,4.75,268.83,4.76,270.28,4.76Z"/><path class="cls-2" d="M186.19,188.36h-4.7c.41-1.62,1.41-2.79,2.17-4.25A14.52,14.52,0,0,1,186.19,188.36Z"/><path class="cls-2" d="M186.18,204.45a14.23,14.23,0,0,1-2.46,4.24,19.43,19.43,0,0,1-2.31-4.19A28.08,28.08,0,0,1,186.18,204.45Z"/><path class="cls-2" d="M186.28,147.48l-2.52,4.39-2.43-4.39Z"/><path class="cls-2" d="M181.46,90.44H186a17.07,17.07,0,0,1-2.26,4.12A25,25,0,0,1,181.46,90.44Z"/><path class="cls-2" d="M183.77,241.09l2.43,4.21h-4.8Z"/><path class="cls-2" d="M248.69,473.47l2.34-4.25c1.15,1.35,1.48,2.94,2.83,4.25Z"/><path class="cls-2" d="M268,497.75a19.06,19.06,0,0,1,2.34,4.32h-4.55C266,500.49,267.07,499.37,268,497.75Z"/><path class="cls-2" d="M181.26,131.25l2.51-4.26,2.54,4.25A44.71,44.71,0,0,1,181.26,131.25Z"/><path class="cls-2" d="M164.75,119.08h4.48a33,33,0,0,1-2.33,3.8A16.46,16.46,0,0,1,164.75,119.08Z"/><path class="cls-2" d="M186.12,261.65a26.44,26.44,0,0,1-2.38,4l-2.41-4A30.63,30.63,0,0,1,186.12,261.65Z"/><path class="cls-2" d="M147.84,318.68h4.4a7,7,0,0,1-2.29,3.87A19.23,19.23,0,0,1,147.84,318.68Z"/><path class="cls-2" d="M166.79,269.89c1.12,1.22,1.4,2.59,2.44,3.67-1.51.52-2.85.22-4.49.26Z"/><path class="cls-2" d="M164.53,290.24h4.91c-.89,1.36-1.66,2.54-2.57,4Z"/><path class="cls-2" d="M236.5,502h-4.29c.27-1.5,1.17-2.54,1.92-3.81A8.39,8.39,0,0,1,236.5,502Z"/><path class="cls-2" d="M183.69,412.38a25.07,25.07,0,0,1,2.39,3.89h-4.44C182,414.86,183,413.81,183.69,412.38Z"/><path class="cls-2" d="M164.91,233.11h4.32L167,237a5.1,5.1,0,0,1-1.19-1.89A5.28,5.28,0,0,1,164.91,233.11Z"/><path class="cls-2" d="M167,156l2.18,3.67H165c.11-1.46,1.34-2.39,1.64-3.74Z"/><path class="cls-2" d="M149.93,355.36a20.92,20.92,0,0,1,2.51,3.9H148C148.34,357.86,149.34,356.84,149.93,355.36Z"/><path class="cls-2" d="M152.15,188.16h-3.93c.18-1.37,1-2.3,1.67-3.42C151.13,185.52,151.59,186.72,152.15,188.16Z"/><path class="cls-2" d="M148.11,204.66H152a5.76,5.76,0,0,1-2.06,3.55A12.68,12.68,0,0,1,148.11,204.66Z"/><path class="cls-2" d="M200.57,441.23c1.05,1,1.45,2.29,2.35,3.57h-4.56Z"/><path class="cls-2" d="M147.75,375.81h4.5a9,9,0,0,1-2.29,3.71Z"/><path class="cls-2" d="M234.1,41.77a13.23,13.23,0,0,1,2.39,3.75H232.2C232.59,44.15,233.56,43.16,234.1,41.77Z"/><path class="cls-2" d="M217.63,469.71c.68,1.27,1.26,2.35,2,3.61h-4.27A11.87,11.87,0,0,1,217.63,469.71Z"/><path class="cls-2" d="M251.11,493.83A26.11,26.11,0,0,1,248.9,490a18.63,18.63,0,0,1,4.6,0Z"/><path class="cls-2" d="M251.11,13.26c.85,1.38,1.52,2.49,2.28,3.73H249A19.5,19.5,0,0,1,251.11,13.26Z"/><path class="cls-2" d="M169.27,102.66H165c.11-1.46,1.2-2.35,1.72-3.7A19.67,19.67,0,0,1,169.27,102.66Z"/><path class="cls-2" d="M253.6,33.58c-1.19,1.24-1.53,2.62-2.55,3.87l-2.16-3.87Z"/><path class="cls-2" d="M164.65,404.34a16,16,0,0,1,4.64,0l-2.43,3.79Z"/><path class="cls-2" d="M131.1,347.36h4.26l-1.92,3.6A20.66,20.66,0,0,1,131.1,347.36Z"/><path class="cls-2" d="M152.34,302.22a20.39,20.39,0,0,1-4.17.11c.06-1.5,1.14-2.39,1.67-3.65C151.15,299.49,151.59,300.78,152.34,302.22Z"/><path class="cls-2" d="M185.72,74.09h-3.81a13.06,13.06,0,0,1,1.79-3.63A11,11,0,0,1,185.72,74.09Z"/><path class="cls-2" d="M200.71,65.8l-2.31-3.6h4.19C202.27,63.52,201.37,64.46,200.71,65.8Z"/><path class="cls-2" d="M133.35,327.11c.74,1.25,1.35,2.26,2.08,3.5h-4.14C131.51,329.18,132.7,328.43,133.35,327.11Z"/><path class="cls-2" d="M169.22,176.31l-2.36,3.6a24.34,24.34,0,0,1-2-3.6Z"/><path class="cls-2" d="M234.19,8.55a11.05,11.05,0,0,1-1.81-3.44h3.81C236,6.52,235.12,7.43,234.19,8.55Z"/><path class="cls-2" d="M166.86,212.89l2.35,3.62a26.47,26.47,0,0,1-4.36.11A24.39,24.39,0,0,1,166.86,212.89Z"/><path class="cls-2" d="M215.38,490.1h4.19l-1.94,3.2A8.59,8.59,0,0,1,215.38,490.1Z"/><path class="cls-2" d="M219.43,33.73l-1.83,3.34a11.28,11.28,0,0,1-2.09-3.34Z"/><path class="cls-2" d="M183.79,436.72l-2-3.77a18,18,0,0,1,4,0Z"/><path class="cls-2" d="M131.45,387.71a7.48,7.48,0,0,1,1.9-3.24,8.81,8.81,0,0,1,1.72,3.24Z"/><path class="cls-2" d="M152.16,245h-3.87a11.07,11.07,0,0,1,1.63-3.07C151.06,242.72,151.44,243.85,152.16,245Z"/><path class="cls-2" d="M198.65,461.52h3.81a8.87,8.87,0,0,1-1.9,3.18Z"/><path class="cls-2" d="M149.9,150.92l-1.79-3.06h3.82A5.5,5.5,0,0,1,149.9,150.92Z"/><path class="cls-2" d="M198.7,45.42l1.86-3.11a9.66,9.66,0,0,1,1.9,3.06A18.76,18.76,0,0,1,198.7,45.42Z"/><path class="cls-2" d="M114.74,318.9h3.19c.15,1.27-.78,2-1.32,3.11A6.23,6.23,0,0,1,114.74,318.9Z"/><path class="cls-2" d="M152.19,262c-.78,1.25-1.16,2.39-2.3,3.1L148.06,262A16.79,16.79,0,0,1,152.19,262Z"/><path class="cls-2" d="M148.28,90.92a12.54,12.54,0,0,1,3.51,0,4.6,4.6,0,0,1-1.83,3A12.13,12.13,0,0,1,148.28,90.92Z"/><path class="cls-2" d="M149.89,127.85c1.17.75,1.5,1.86,2.26,3a17.48,17.48,0,0,1-3.71.13c-.22-.74.33-1.14.57-1.64S149.55,128.42,149.89,127.85Z"/><path class="cls-2" d="M131.33,290.53a17.15,17.15,0,0,1,3.92,0l-1.85,3.13A13.64,13.64,0,0,1,131.33,290.53Z"/><path class="cls-2" d="M133.57,270.56c.47.94,1,1.87,1.5,3h-3.4c-.06-1.32,1.24-1.91,1.45-3.06Z"/><path class="cls-2" d="M135,404.47a9.86,9.86,0,0,1-1.61,3.07c-.64-1-1.57-1.7-1.92-3A15.37,15.37,0,0,1,135,404.47Z"/><path class="cls-2" d="M135,216.4h-3.35c0-1.32,1.07-2,1.73-3A12.13,12.13,0,0,1,135,216.4Z"/><path class="cls-2" d="M116.46,356a11.76,11.76,0,0,1,1.64,3.06,11.27,11.27,0,0,1-3.33,0A13.65,13.65,0,0,1,116.46,356Z"/><path class="cls-2" d="M148.31,416a12.85,12.85,0,0,1,1.61-2.84c1.12.61,1.41,1.71,2.1,2.8A11,11,0,0,1,148.31,416Z"/><path class="cls-2" d="M166.8,65.3l-1.6-2.68c1.13-.72,2.2-.22,3.53-.46A9.94,9.94,0,0,1,166.8,65.3Z"/><path class="cls-2" d="M135.06,176.39a11.9,11.9,0,0,1-1.65,2.91,12.18,12.18,0,0,1-2-2.76A14.6,14.6,0,0,1,135.06,176.39Z"/><path class="cls-2" d="M131.57,119.32h3.27a8.08,8.08,0,0,1-1.41,3A7.36,7.36,0,0,1,131.57,119.32Z"/><path class="cls-2" d="M118.21,302.07a13.23,13.23,0,0,1-3.39,0,10.92,10.92,0,0,1,1.61-3.08A13.76,13.76,0,0,1,118.21,302.07Z"/><path class="cls-2" d="M151.83,433.11c-.62,1.11-.83,2.12-1.87,2.72a10.49,10.49,0,0,1-1.51-2.71A12.73,12.73,0,0,1,151.83,433.11Z"/><path class="cls-2" d="M133.4,236.66l-2-3.12a10.3,10.3,0,0,1,3.59,0Z"/><path class="cls-2" d="M215.72,16.78a6,6,0,0,1,1.77-2.85,9.8,9.8,0,0,1,1.77,2.7A16.31,16.31,0,0,1,215.72,16.78Z"/><path class="cls-2" d="M202.36,501.66a9.67,9.67,0,0,1-3.23,0,6.83,6.83,0,0,1,1.45-2.91A7.83,7.83,0,0,1,202.36,501.66Z"/><path class="cls-2" d="M131.53,159.37c.46-1.26,1.37-1.87,1.77-3.17l1.7,3.15A13.91,13.91,0,0,1,131.53,159.37Z"/><path class="cls-2" d="M131.61,102.22c.33-1.18,1.2-1.75,1.71-2.73a10.41,10.41,0,0,1,1.6,2.73Z"/><path class="cls-2" d="M149.91,71.06c1.12.55,1.33,1.63,1.83,2.66a10.41,10.41,0,0,1-3.2,0A9.61,9.61,0,0,1,149.91,71.06Z"/><path class="cls-2" d="M165.2,444.5l1.59-2.7a9.58,9.58,0,0,1,1.78,2.67A14,14,0,0,1,165.2,444.5Z"/><path class="cls-2" d="M116.51,185.15a6.32,6.32,0,0,1,1.36,2.71,13.47,13.47,0,0,1-2.7.14C115.08,186.74,115.85,186,116.51,185.15Z"/><path class="cls-2" d="M116.52,242.18a9.24,9.24,0,0,1,1.38,2.73,7.64,7.64,0,0,1-2.86-.06A7,7,0,0,1,116.52,242.18Z"/><path class="cls-2" d="M116.64,207.89A9.89,9.89,0,0,1,114.9,205a8.92,8.92,0,0,1,2.94-.12C117.94,206.08,117,206.67,116.64,207.89Z"/><path class="cls-2" d="M118,262.09a11.32,11.32,0,0,1-1.52,2.57,8.67,8.67,0,0,1-1.56-2.57Z"/><path class="cls-2" d="M185.44,473.14a15.64,15.64,0,0,1-3.21-.16l1.55-2.84Z"/><path class="cls-2" d="M115,148a8.48,8.48,0,0,1,2.74-.06c0,1-.77,1.62-1.17,2.55A5.78,5.78,0,0,1,115,148Z"/><path class="cls-2" d="M118,376.23a10.79,10.79,0,0,1-1.52,2.6,9.85,9.85,0,0,1-1.59-2.55A8.76,8.76,0,0,1,118,376.23Z"/><path class="cls-2" d="M99.66,293.27a10.23,10.23,0,0,1-1.55-2.52,8.73,8.73,0,0,1,2.77-.11C100.89,291.69,100.11,292.28,99.66,293.27Z"/><path class="cls-2" d="M101,233.63c-.48.91-.88,1.69-1.38,2.66a10.12,10.12,0,0,1-1.37-2.7A6.55,6.55,0,0,1,101,233.63Z"/><path class="cls-2" d="M101.14,347.67l-1.54,2.71L98,347.75A8.26,8.26,0,0,1,101.14,347.67Z"/><path class="cls-2" d="M183.79,36.72l-1.49-2.67a8.08,8.08,0,0,1,3-.11Z"/><path class="cls-2" d="M115.13,130.69a4.94,4.94,0,0,1,1.34-2.31,5.6,5.6,0,0,1,1.36,2.28A6.47,6.47,0,0,1,115.13,130.69Z"/><path class="cls-2" d="M199.3,5.43A7.5,7.5,0,0,1,202,5.34c0,1.11-.67,1.78-1.27,2.72A5.26,5.26,0,0,1,199.3,5.43Z"/><path class="cls-2" d="M166.79,42.76a6.33,6.33,0,0,1,1.54,2.33,6.88,6.88,0,0,1-2.82,0A11.11,11.11,0,0,1,166.79,42.76Z"/><path class="cls-2" d="M183.76,492.83a9.89,9.89,0,0,1-1.43-2.34,9.31,9.31,0,0,1,2.78-.21A4.69,4.69,0,0,1,183.76,492.83Z"/><path class="cls-2" d="M99.59,327.8a10.75,10.75,0,0,1,1.44,2.47,9.54,9.54,0,0,1-2.77.1A5.49,5.49,0,0,1,99.59,327.8Z"/><path class="cls-2" d="M165.75,501.5c-.06-1,.56-1.53,1-2.27,1,.48,1.08,1.39,1.57,2.25A5.32,5.32,0,0,1,165.75,501.5Z"/><path class="cls-2" d="M81.46,319.2a7.19,7.19,0,0,1,2.49,0,4.87,4.87,0,0,1-1.17,2.33A3.74,3.74,0,0,1,81.46,319.2Z"/><path class="cls-2" d="M115.16,415.79a6.13,6.13,0,0,1,1.29-2.21,5.38,5.38,0,0,1,1.31,2.18A4.88,4.88,0,0,1,115.16,415.79Z"/><path class="cls-2" d="M83.93,205.18a4.9,4.9,0,0,1-1.14,2.09c-.8-.45-1-1.26-1.39-2A4.06,4.06,0,0,1,83.93,205.18Z"/><path class="cls-2" d="M183.7,14.16a8.11,8.11,0,0,1,1.44,2.34,8.37,8.37,0,0,1-2.54.14C182.53,15.63,183.25,15.07,183.7,14.16Z"/><path class="cls-2" d="M99.58,157.06c.1.07.17.09.19.13.32.61,1.21,1.18.78,1.85s-1.31.24-2.1.21A3.26,3.26,0,0,1,99.58,157.06Z"/><path class="cls-2" d="M168.29,461.83a9.08,9.08,0,0,1-1.35,2.38,6.47,6.47,0,0,1-1.4-2.32A7.07,7.07,0,0,1,168.29,461.83Z"/><path class="cls-2" d="M98.35,387.47a4.37,4.37,0,0,1,1.25-2.39,4.62,4.62,0,0,1,1.22,2.27A10.19,10.19,0,0,1,98.35,387.47Z"/><path class="cls-2" d="M98.22,216.05a7.5,7.5,0,0,1,1.38-2.14,7.29,7.29,0,0,1,1.31,2.12A4.82,4.82,0,0,1,98.22,216.05Z"/><path class="cls-2" d="M82.69,299.45a4.35,4.35,0,0,1,1.16,2.23,4.67,4.67,0,0,1-2.23,0C81.57,300.81,82.16,300.28,82.69,299.45Z"/><path class="cls-2" d="M99.62,270.84a9.44,9.44,0,0,1,1.22,2.33,4.87,4.87,0,0,1-2.49.09A6.19,6.19,0,0,1,99.62,270.84Z"/><path class="cls-2" d="M134.48,444.34a6.15,6.15,0,0,1-2.53,0,9.21,9.21,0,0,1,1.39-2.17A4.29,4.29,0,0,1,134.48,444.34Z"/><path class="cls-2" d="M149.91,470.8a3.74,3.74,0,0,1,1.43,2A4.6,4.6,0,0,1,149,473C148.93,472.06,149.57,471.52,149.91,470.8Z"/><path class="cls-2" d="M117.78,91.08a8.06,8.06,0,0,1-1.24,2.27,6.57,6.57,0,0,1-1.42-2.13A9.67,9.67,0,0,1,117.78,91.08Z"/><path class="cls-2" d="M133.35,64.82,132,62.92c.12-.17.18-.34.26-.35.75-.07,1.84-.42,2.17.17S133.89,64.09,133.35,64.82Z"/><path class="cls-2" d="M82.68,185.64c.42.16.57.53.75.87.58,1.12.42,1.39-.79,1.35-1,0-1.19-.25-.77-1.16a3.45,3.45,0,0,1,.39-.67A2.59,2.59,0,0,1,82.68,185.64Z"/><path class="cls-2" d="M115.31,73.7a5.25,5.25,0,0,1,1.16-2.27,4.92,4.92,0,0,1,1.09,2.13A5.61,5.61,0,0,1,115.31,73.7Z"/><path class="cls-2" d="M100.68,404.9a3.65,3.65,0,0,1-.94,1.9c-.09,0-.18.05-.2,0-.51-.49-1.22-1.08-.82-1.76S99.9,404.87,100.68,404.9Z"/><path class="cls-2" d="M81.53,358.78a3.66,3.66,0,0,1,1.19-2c.6.45.79,1.14,1.27,1.86A4.7,4.7,0,0,1,81.53,358.78Z"/><path class="cls-2" d="M99.61,178.82a4,4,0,0,1-1.21-2,4.57,4.57,0,0,1,2.35,0A4.23,4.23,0,0,1,99.61,178.82Z"/><path class="cls-2" d="M149.93,36.05c-.43-.72-.94-1.19-1-1.93.73-.32,1.45-.06,2.25-.17C151.26,35,150.66,35.44,149.93,36.05Z"/><path class="cls-2" d="M168,5.51a2.81,2.81,0,0,1-1.1,2.05,3.3,3.3,0,0,1-1.05-2A4.23,4.23,0,0,1,168,5.51Z"/><path class="cls-2" d="M134.38,45A4.46,4.46,0,0,1,132,45a5.57,5.57,0,0,1,1.36-1.82A3.11,3.11,0,0,1,134.38,45Z"/><path class="cls-2" d="M64.84,216.08a3.56,3.56,0,0,1,1-1.84c.77.26.87,1,1.3,1.68A4.66,4.66,0,0,1,64.84,216.08Z"/><path class="cls-2" d="M65.85,328.18c.68.68,1.1,1.15,1,1.9a3.41,3.41,0,0,1-1.92.14C64.79,329.32,65.43,328.89,65.85,328.18Z"/><path class="cls-2" d="M151.23,490.51c0,.93-.66,1.32-1.2,1.85a3.25,3.25,0,0,1-1.05-1.82A4.75,4.75,0,0,1,151.23,490.51Z"/><path class="cls-2" d="M65.83,270.94A6.78,6.78,0,0,1,67,273.07a3.38,3.38,0,0,1-2.07.09C64.93,272.34,65.51,271.84,65.83,270.94Z"/><path class="cls-2" d="M117.71,433.29c-.45.9-.75,1.47-1.07,2.11-.92-.37-.8-1.3-1.44-1.88A5.33,5.33,0,0,1,117.71,433.29Z"/><path class="cls-2" d="M132,462a4.44,4.44,0,0,1,2.35,0,3,3,0,0,1-.92,1.77C132.74,463.35,132.56,462.63,132,462Z"/><path class="cls-2" d="M81.68,376.48a2.69,2.69,0,0,1,2,0,3.22,3.22,0,0,1-.91,1.75A2.43,2.43,0,0,1,81.68,376.48Z"/><path class="cls-2" d="M82.62,242.53c.59.82,1.07,1.3,1.12,2a3.82,3.82,0,0,1-2,.09C81.61,243.82,82.28,243.41,82.62,242.53Z"/><path class="cls-2" d="M100.62,119.67a3.2,3.2,0,0,1-1,2c-.69-.47-.79-1.2-1.06-1.87A3.47,3.47,0,0,1,100.62,119.67Z"/><path class="cls-2" d="M65,119.82a2.41,2.41,0,0,1,1.73,0,1.91,1.91,0,0,1-.74,1.67C65.29,121.13,65.23,120.52,65,119.82Z"/><path class="cls-2" d="M99.61,100.1a3.88,3.88,0,0,1,1,1.73,3.26,3.26,0,0,1-1.93,0A2.43,2.43,0,0,1,99.61,100.1Z"/><path class="cls-2" d="M82.73,264.25a2.63,2.63,0,0,1-1-1.84,2.38,2.38,0,0,1,1.94,0C83.7,263.15,83.2,263.62,82.73,264.25Z"/><path class="cls-2" d="M64.77,233.93a3.33,3.33,0,0,1,2.07,0c0,.81-.52,1.29-.93,2Z"/><path class="cls-2" d="M82.81,150a2.18,2.18,0,0,1-1-1.66,4.05,4.05,0,0,1,1.79-.14C83.7,149,83.14,149.42,82.81,150Z"/><path class="cls-2" d="M66.84,176.78a1.94,1.94,0,0,1-.9,1.73,2.51,2.51,0,0,1-1-1.5C65.51,176.5,66.17,176.83,66.84,176.78Z"/><path class="cls-2" d="M116.58,35.76a1.82,1.82,0,0,1-1-1.29c.08-.11.14-.27.23-.3.45-.15,1.06-.27,1.29.11C117.54,34.93,116.82,35.27,116.58,35.76Z"/><path class="cls-2" d="M133.45,7.42c-.65-.6-1.21-1.1-.84-1.77.18-.33.94-.33,1.26,0C134.57,6.28,133.8,6.74,133.45,7.42Z"/><path class="cls-2" d="M98.69,62.84c.63-.27,1.32-.42,1.59,0s-.24,1-.68,1.43A2,2,0,0,1,98.69,62.84Z"/><path class="cls-2" d="M64.94,291.05a3.18,3.18,0,0,1,1.91,0,1.92,1.92,0,0,1-.88,1.62A2,2,0,0,1,64.94,291.05Z"/><path class="cls-2" d="M133.35,499.59a2.43,2.43,0,0,1,.9,1.57,3,3,0,0,1-1.95.14A3.25,3.25,0,0,1,133.35,499.59Z"/><path class="cls-2" d="M82.84,435.06a.76.76,0,0,1-.62-.55c-.13-.33-.54-.7-.15-1a1,1,0,0,1,1.11,0c.48.29.19.68,0,1S83,434.88,82.84,435.06Z"/><path class="cls-2" d="M151.15,16.16a2.3,2.3,0,0,1-1.93.09c-.12-.65.43-.95.58-1.51A2.17,2.17,0,0,1,151.15,16.16Z"/><path class="cls-2" d="M65.9,100.41a1.48,1.48,0,0,1,.83,1.27c-.47.36-1.16.43-1.42.1C64.87,101.21,65.45,100.77,65.9,100.41Z"/><path class="cls-2" d="M66.8,158.89a2.4,2.4,0,0,1-1.73,0,2,2,0,0,1,.79-1.49A1.78,1.78,0,0,1,66.8,158.89Z"/><path class="cls-2" d="M81.71,130.4a2.85,2.85,0,0,1,1-1.5c.62.24.63.89,1.13,1.39A3.46,3.46,0,0,1,81.71,130.4Z"/><path class="cls-2" d="M65.91,349.62a2.55,2.55,0,0,1-1-1.52,2.33,2.33,0,0,1,1.9-.06A1.84,1.84,0,0,1,65.91,349.62Z"/><path class="cls-2" d="M49.88,205.92c-.2.36-.29,1-.88.84a1,1,0,0,1-.59-1c0-.56.52-.48.89-.47S50,205.41,49.88,205.92Z"/><path class="cls-2" d="M48.4,187.48c0-.67.15-1.34.82-1.31.49,0,.7.68.68,1.24A1.72,1.72,0,0,1,48.4,187.48Z"/><path class="cls-2" d="M49.9,319.86c-.19.41-.23,1-.81,1-.42,0-.57-.53-.65-.9-.13-.62.37-.59.76-.6S49.87,319.4,49.9,319.86Z"/><path class="cls-2" d="M49.88,244.5c-.54.06-1.2.54-1.45-.32-.09-.33.26-.92.57-.93C49.76,243.22,49.85,243.86,49.88,244.5Z"/><path class="cls-2" d="M82.73,414.1a2,2,0,0,1,.77,1.35,1.78,1.78,0,0,1-1.59,0A1.79,1.79,0,0,1,82.73,414.1Z"/><path class="cls-2" d="M49.16,148.24c.33,0,.74,0,.66.49s-.19.85-.69.84-.61-.5-.66-.86S48.82,148.25,49.16,148.24Z"/><path class="cls-2" d="M32.92,272.67c0,.48-.33.51-.67.5s-.71,0-.62-.52c.06-.32.19-.71.54-.76C32.7,271.82,32.75,272.33,32.92,272.67Z"/><path class="cls-2" d="M49.88,262.52c-.08.54-.19,1.18-.81,1.15a.79.79,0,0,1-.59-1.05C48.77,262.12,49.38,262.36,49.88,262.52Z"/><path class="cls-2" d="M32.9,215.38c.11.49-.25.56-.57.62s-.77,0-.73-.42.17-.83.66-.86S32.74,215.11,32.9,215.38Z"/><path class="cls-2" d="M99.59,442.7a2.92,2.92,0,0,1,.84,1.21c-.52.43-1,.29-1.63.17A1.84,1.84,0,0,1,99.59,442.7Z"/><path class="cls-2" d="M66.79,387c-.65.21-1.25.44-1.55-.11a.9.9,0,0,1,.49-1.17C66.55,385.51,66.47,386.35,66.79,387Z"/><path class="cls-2" d="M117.31,472.54a2.65,2.65,0,0,1-1.53.16,1,1,0,0,1,.46-1.2C117.17,471.1,116.92,472.11,117.31,472.54Z"/><path class="cls-2" d="M82.87,93c-.62-.66-1.14-1-.71-1.55a.81.81,0,0,1,1.09,0C83.75,92.09,83,92.34,82.87,93Z"/><path class="cls-2" d="M82.79,71.85c.22.55.84.94.44,1.47a.76.76,0,0,1-1.07,0C81.87,72.83,82.24,72.37,82.79,71.85Z"/><path class="cls-2" d="M49.05,129.25c.42,0,.57.28.69.59.17.48-.14.6-.5.61s-.74.06-.72-.43A.88.88,0,0,1,49.05,129.25Z"/><path class="cls-2" d="M16,187.2c-.17.39-.5.4-.82.34s-.52-.35-.34-.72.35-.61.74-.42A.8.8,0,0,1,16,187.2Z"/><path class="cls-2" d="M32.28,290.94c.37,0,.72.09.61.54-.08.29-.2.66-.59.67s-.63-.42-.67-.78S32,291,32.28,290.94Z"/><path class="cls-2" d="M65.19,405.3a2.14,2.14,0,0,1,1.49-.05c-.1.5-.17,1.06-.73,1.09S65.29,405.83,65.19,405.3Z"/><path class="cls-2" d="M49.82,301c.08.5-.3.49-.6.49s-.73.11-.75-.33a.85.85,0,0,1,.59-.89C49.55,300.13,49.61,300.67,49.82,301Z"/><path class="cls-2" d="M49.72,415.24c-.08.43-.45.36-.76.33s-.5-.22-.4-.52.22-.69.65-.6S49.69,414.86,49.72,415.24Z"/><path class="cls-2" d="M65.86,443a.79.79,0,0,1,.68.64c.13.5-.22.54-.56.54s-.72.05-.68-.45A.88.88,0,0,1,65.86,443Z"/><path class="cls-2" d="M32.86,158.59c0,.45-.36.44-.67.43s-.65-.15-.5-.58.23-.63.64-.57S32.77,158.27,32.86,158.59Z"/><path class="cls-2" d="M32.22,233.82c.24.08.71-.11.65.43,0,.32-.16.68-.54.74s-.54-.32-.65-.61C31.48,233.89,31.86,233.86,32.22,233.82Z"/><path class="cls-2" d="M100.33,44.64c-.53.29-1.09.43-1.4-.07-.16-.27.17-.85.6-.88S100.13,44.25,100.33,44.64Z"/><path class="cls-2" d="M99.75,501.25c-.39,0-.77,0-.77-.44a.82.82,0,0,1,.63-.88c.28,0,.47.4.57.72S100.08,501.24,99.75,501.25Z"/><path class="cls-2" d="M49.14,376.53c.25.12.65,0,.6.39s-.17.68-.55.75-.55-.37-.62-.65C48.41,376.46,48.94,376.67,49.14,376.53Z"/><path class="cls-2" d="M32.81,405.5c-.05.32-.1.65-.51.69s-.44-.21-.52-.46c-.14-.44.1-.59.48-.6S32.78,405.14,32.81,405.5Z"/><path class="cls-2" d="M49.76,358.09c.09.38-.16.46-.43.47s-.75.12-.8-.28a.72.72,0,0,1,.61-.85C49.54,357.4,49.6,357.83,49.76,358.09Z"/><path class="cls-2" d="M117.11,16c-.12.45-.51.3-.8.31s-.58,0-.47-.42.3-.84.77-.72C116.88,15.22,117.08,15.6,117.11,16Z"/><path class="cls-2" d="M100.23,462.52c-.14.36-.23.8-.69.78s-.51-.39-.58-.7.25-.52.6-.51S100.22,462.06,100.23,462.52Z"/><path class="cls-2" d="M32.85,348.32c-.09.34-.15.7-.57.73s-.42-.26-.53-.49-.05-.52.3-.54S32.72,347.88,32.85,348.32Z"/><path class="cls-2" d="M117.11,491.2c-.23.26-.24.84-.78.64a.83.83,0,0,1-.5-.78c0-.5.41-.39.71-.41S117.17,490.75,117.11,491.2Z"/><path class="cls-2" d="M32.89,329.63c0,.47-.45.36-.73.35s-.61,0-.48-.4.17-.69.59-.68S32.74,329.31,32.89,329.63Z"/><path class="cls-2" d="M49.07,91.43c.3,0,.71,0,.62.49a.62.62,0,0,1-.48.56c-.46.07-.53-.33-.62-.63S48.85,91.52,49.07,91.43Z"/><path class="cls-2" d="M15.89,263c-.09.24-.14.55-.49.52s-.51-.33-.54-.68.17-.33.36-.36A.53.53,0,0,1,15.89,263Z"/><path class="cls-2" d="M66.5,63.23c0,.42-.27.74-.58.75s-.53-.35-.59-.67.2-.42.47-.41S66.46,62.82,66.5,63.23Z"/><path class="cls-2" d="M82.69,15.21a.76.76,0,0,1,.5.54c.1.32-.06.48-.37.5s-.68,0-.62-.48A.79.79,0,0,1,82.69,15.21Z"/><path class="cls-2" d="M65.91,44.81c-.22-.09-.58,0-.55-.38s.22-.7.55-.7.54.32.55.69S66.13,44.74,65.91,44.81Z"/><path class="cls-2" d="M49.62,73c0,.35-.27.38-.53.38s-.52-.14-.42-.48.12-.71.6-.57C49.56,72.41,49.58,72.71,49.62,73Z"/><path class="cls-2" d="M100.16,6.22c-.11.31-.25.7-.58.69A.69.69,0,0,1,99,6.2c0-.47.34-.45.66-.44S100.17,5.9,100.16,6.22Z"/><path class="cls-2" d="M83.24,472.16c0,.37-.14.49-.43.51s-.7,0-.62-.46a.82.82,0,0,1,.45-.57C83.05,471.52,83.07,472,83.24,472.16Z"/><path class="cls-2" d="M66.47,6c0,.57-.23.86-.56.89-.15,0-.39-.31-.51-.52s0-.48.32-.53A.84.84,0,0,1,66.47,6Z"/><path class="cls-2" d="M14.92,320.05c0-.36.1-.54.4-.55s.55,0,.53.37,0,.68-.5.67S15,320.22,14.92,320.05Z"/><path class="cls-2" d="M32.71,386.49c0,.35-.08.53-.4.55s-.51-.12-.49-.44.08-.54.41-.58S32.63,386.29,32.71,386.49Z"/><path class="cls-2" d="M65.8,463.21c-.13-.18-.38-.37-.41-.59,0-.49.37-.41.67-.41s.46.19.37.51S66.15,463.13,65.8,463.21Z"/><path class="cls-2" d="M83.22,34.82c-.12.14-.26.46-.45.49-.35,0-.53-.28-.58-.61s.3-.36.53-.36S83.24,34.36,83.22,34.82Z"/><path class="cls-2" d="M82.69,490.74c.2.08.57,0,.51.37s-.17.66-.55.61c-.17,0-.38-.34-.44-.56S82.42,490.78,82.69,490.74Z"/><path class="cls-2" d="M15.45,72.37c.26,0,.31.26.35.51a.36.36,0,0,1-.27.44c-.25,0-.55,0-.55-.35S15,72.44,15.45,72.37Z"/><path class="cls-2" d="M32.63,177.79a.46.46,0,0,1-.47.09.52.52,0,0,1-.35-.61c0-.09.31-.23.47-.22S32.82,177.13,32.63,177.79Z"/><path class="cls-2" d="M66.42,500.58c-.08.34-.34.31-.59.3s-.4-.07-.39-.29a.49.49,0,1,1,1,0Z"/><path class="cls-2" d="M15.48,206.42c-.24.05-.37-.1-.46-.28a.32.32,0,0,1,.19-.47c.24-.06.53-.07.58.3C15.81,206.19,15.67,206.32,15.48,206.42Z"/><path class="cls-2" d="M15.77,148.92c-.06.19-.13.36-.36.36s-.42-.28-.4-.52c0-.09.3-.21.46-.2S15.86,148.65,15.77,148.92Z"/><path class="cls-2" d="M49.53,491.18c-.06.18-.15.34-.37.35s-.39-.28-.38-.51c0-.08.3-.2.46-.19S49.64,490.89,49.53,491.18Z"/><path class="cls-2" d="M49.23,34.39c.14.06.37.07.31.34s-.15.35-.36.37c-.38,0-.42-.26-.41-.49S49,34.35,49.23,34.39Z"/><path class="cls-2" d="M49.14,471.84a.34.34,0,0,1,.37.33c0,.31-.16.46-.45.41a.33.33,0,0,1-.27-.41C48.83,472,48.92,471.84,49.14,471.84Z"/><path class="cls-2" d="M32.31,463c-.29,0-.4-.18-.41-.38,0-.38.29-.34.5-.31a.26.26,0,0,1,.23.39C32.55,462.82,32.49,463,32.31,463Z"/><path class="cls-2" d="M15.77,377c0,.29-.15.42-.37.42s-.42-.26-.36-.5a.35.35,0,0,1,.44-.24C15.64,376.74,15.83,376.84,15.77,377Z"/><path class="cls-2" d="M15.38,34.39c.2,0,.38.07.39.28s-.16.48-.47.42a.36.36,0,0,1-.3-.41C15,34.44,15.19,34.4,15.38,34.39Z"/><path class="cls-2" d="M32.64,44.3a.33.33,0,0,1-.24.43.51.51,0,0,1-.46-.18.36.36,0,0,1,.3-.54C32.48,44,32.55,44.14,32.64,44.3Z"/><path class="cls-2" d="M49.08,434.46a.5.5,0,0,1-.33-.59c0-.09.31-.19.47-.2s.36.08.34.33A.46.46,0,0,1,49.08,434.46Z"/><path class="cls-2" d="M15.45,433.69c.16.06.37.08.31.35s-.13.34-.34.36-.43-.25-.41-.48A.34.34,0,0,1,15.45,433.69Z"/><path class="cls-2" d="M32.66,101.24c0,.26-.14.33-.33.38a.34.34,0,0,1-.43-.26c0-.25,0-.55.41-.5A.39.39,0,0,1,32.66,101.24Z"/><path class="cls-2" d="M15.76,91.92c0,.18-.14.34-.36.33S15,92,15,91.75s.29-.22.44-.21S15.84,91.66,15.76,91.92Z"/><path class="cls-2" d="M32.69,6.23c-.07.11-.13.35-.26.4s-.47,0-.55-.32a.33.33,0,0,1,.23-.44A.42.42,0,0,1,32.69,6.23Z"/><path class="cls-2" d="M15.78,300.93c.09.26-.13.36-.28.39s-.53,0-.5-.34a.56.56,0,0,1,.28-.42C15.54,300.48,15.74,300.64,15.78,300.93Z"/><path class="cls-2" d="M32.26,63a.3.3,0,0,1,.37.29.36.36,0,0,1-.45.42.35.35,0,0,1-.28-.4C31.92,63.06,32.06,63,32.26,63Z"/><path class="cls-2" d="M15.8,243.87c0,.39-.2.45-.41.46s-.4-.08-.4-.3.17-.51.49-.45S15.82,243.78,15.8,243.87Z"/><path class="cls-2" d="M15.81,358.15c-.09.36-.36.36-.58.31a.3.3,0,0,1-.24-.41c.1-.27.3-.42.56-.32S15.74,358,15.81,358.15Z"/><path class="cls-2" d="M32.66,500.55c.07.25-.16.27-.34.31a.31.31,0,0,1-.42-.27c0-.23.12-.36.33-.4S32.57,500.31,32.66,500.55Z"/><path class="cls-2" d="M32.28,120c.1.07.37.14.39.26a.5.5,0,0,1-.33.6c-.24.06-.36-.11-.42-.28S31.88,120,32.28,120Z"/></g></svg>