<svg height="512pt" viewBox="0 0 512 512.00101" width="512pt" xmlns="http://www.w3.org/2000/svg"><path d="m492.25 197.023438-30.691406-24.71875c-8.242188-6.636719-20.34375-5.332032-26.984375 2.90625l-45.691407 56.738281c-6.636718 8.238281-5.335937 20.34375 2.90625 26.980469l27.234376 21.933593c3.996093 3.21875 5.210937 8.875 2.890624 13.457031-4.242187 8.367188-26.058593 38.496094-44.042968 60.828126-18.324219 22.75-42.648438 49.964843-50.050782 56-3.980468 3.242187-9.765624 3.261718-13.761718.042968l-27.234375-21.933594c-3.992188-3.21875-9.003907-4.6875-14.09375-4.132812-5.09375.546875-9.671875 3.050781-12.886719 7.039062l-45.695312 56.738282c-6.636719 8.242187-5.332032 20.34375 2.910156 26.980468l30.691406 24.722657c9.339844 7.519531 20.855469 11.398437 32.445312 11.394531 7.773438 0 15.582032-1.742188 22.789063-5.296875 26.574219-13.109375 78.90625-56.949219 123.539063-112.367187 44.632812-55.417969 76.3125-115.886719 83.457031-144.648438 4.828125-19.429688-2.128907-40.101562-17.730469-52.664062zm0 0" fill="#ff3d43"/><path d="m496.148438 200.511719c-10.570313 35.621093-46.933594 103.507812-97.25 165.984375-52.742188 65.488281-114.578126 117.289062-145.984376 132.78125-1.441406.710937-2.910156 1.335937-4.386718 1.925781 9.195312 7.121094 20.394531 10.800781 31.667968 10.796875 7.773438 0 15.582032-1.742188 22.789063-5.296875 26.574219-13.109375 78.90625-56.949219 123.539063-112.367187 44.632812-55.417969 76.3125-115.886719 83.457031-144.648438 4.40625-17.726562-1.003907-36.480469-13.832031-49.175781zm0 0" fill="#d72e2e"/><path d="m317.730469 275.980469c38.542969-30.089844 60.515625-72.335938 60.515625-116.769531 0-42.789063-19.847656-82.933594-55.894532-113.039063-35.648437-29.773437-82.964843-46.171875-133.226562-46.171875-50.265625 0-97.582031 16.398438-133.230469 46.171875-36.042969 30.105469-55.894531 70.25-55.894531 113.039063 0 42.789062 19.851562 82.933593 55.894531 113.039062 35.648438 29.777344 82.964844 46.175781 133.230469 46.175781 12.695312 0 25.152344-1.027343 37.316406-3.066406 9.429688 6.828125 41.097656 27.3125 90.972656 35.070313.960938.148437 1.917969.222656 2.863282.222656 5.683594 0 11.035156-2.644532 14.710937-7.378906 4.621094-5.960938 5.632813-14 2.632813-20.984376zm0 0" fill="#ffdf65"/><path d="m317.730469 275.980469c38.542969-30.089844 60.515625-72.335938 60.515625-116.769531 0-42.789063-19.847656-82.933594-55.894532-113.039063-35.648437-29.773437-82.964843-46.171875-133.226562-46.171875-5.816406 0-11.589844.230469-17.3125.664062 43.738281 3.320313 84.386719 19.179688 115.914062 45.507813 36.042969 30.105469 55.894532 70.25 55.894532 113.039063 0 44.433593-21.976563 86.679687-60.515625 116.769531l19.890625 46.308593c3 6.984376 1.988281 15.023438-2.632813 20.984376-.921875 1.183593-1.945312 2.238281-3.054687 3.152343 6.332031 1.539063 13.03125 2.902344 20.109375 4.003907.957031.148437 1.914062.222656 2.863281.222656 5.679688 0 11.035156-2.644532 14.707031-7.378906 4.625-5.960938 5.632813-14 2.632813-20.984376zm0 0" fill="#ffcd2c"/><g fill="#464649"><path d="m215.835938 190.054688c-3.992188-1.28125-8.257813.875-9.539063 4.871093-.015625.039063-1.421875 4.007813-5.386719 7.828125-5.214844 5.023438-12.394531 7.570313-21.339844 7.570313-21.132812 0-26.507812-14.769531-26.699218-15.316407-1.28125-3.996093-5.5625-6.191406-9.554688-4.910156-3.992187 1.28125-6.195312 5.558594-4.914062 9.550782.339844 1.054687 8.667968 25.867187 41.167968 25.867187 32.496094 0 40.828126-24.808594 41.164063-25.867187 1.28125-3.992188-.90625-8.3125-4.898437-9.59375zm0 0"/><path d="m103.535156 142.554688c-9.375 0-17.003906 7.625-17.003906 17.003906 0 9.375 7.628906 17 17.003906 17s17-7.625 17-17c0-9.378906-7.625-17.003906-17-17.003906zm0 0"/><path d="m255.601562 142.554688c-9.375 0-17 7.625-17 17.003906 0 9.375 7.625 17 17 17 9.378907 0 17.003907-7.625 17.003907-17 0-9.378906-7.628907-17.003906-17.003907-17.003906zm0 0"/></g></svg>